{
DisplayStrings = (
"nrhmuijflt\012noaecspboqdg ijfltceuad\012kxzwvy\012IftnHLEFTZH\012EHNMAVvYyWwMHNKkXx\012HNMAVWYZK\012HoOQCcGZH\012DKRPBHE\012SsOJjtr JSC\01201742539C68\0120HOT17ZH4ANM\012SsCc27Z0\012Z5SsCcB308B\01253SsCc906bg",

glyphs = (
{
glyphname = A;
lastChange = "2014-09-22 11:44:41 +0100";
layers = (
{
anchors = (
{
name = ogonek;
position = "{572, 0}";
},
{
name = top;
position = "{291, 660}";
}
);
background = {
anchors = (
{
name = ogonek;
position = "{564, 0}";
},
{
name = top;
position = "{258, 660}";
}
);
paths = (
{
closed = 1;
nodes = (
"259 660 LINE",
"512 0 LINE",
"598 0 LINE",
"340 660 LINE"
);
},
{
closed = 1;
nodes = (
"245 660 LINE",
"-14 0 LINE",
"72 0 LINE",
"325 660 LINE"
);
},
{
closed = 1;
nodes = (
"114 258 LINE",
"114 183 LINE",
"467 183 LINE",
"467 258 LINE"
);
},
{
closed = 1;
nodes = (
"305 679 LINE",
"559 1 LINE",
"577 1 LINE",
"318 679 LINE"
);
},
{
closed = 1;
nodes = (
"265 679 LINE",
"5 1 LINE",
"23 1 LINE",
"277 679 LINE"
);
},
{
closed = 1;
nodes = (
"131 231 LINE",
"131 211 LINE",
"448 211 LINE",
"448 231 LINE"
);
}
);
};
layerId = "40D202EF-20C6-4DB3-A3D1-28A333770DD8";
name = Light;
paths = (
{
closed = 1;
nodes = (
"284 660 LINE",
"555 0 LINE",
"572 0 LINE",
"302 660 LINE"
);
},
{
closed = 1;
nodes = (
"280 660 LINE",
"10 0 LINE",
"27 0 LINE",
"298 660 LINE"
);
},
{
closed = 1;
nodes = (
"116 248 LINE",
"116 234 LINE",
"465 234 LINE",
"465 248 LINE"
);
}
);
width = 582;
},
{
anchors = (
{
name = ogonek;
position = "{641, 0}";
},
{
name = top;
position = "{335, 660}";
}
);
layerId = "90FEB760-6DE5-46E5-A8E9-582C63BAB3AD";
name = Regular;
paths = (
{
closed = 1;
nodes = (
"302 660 LINE",
"555 0 LINE",
"641 0 LINE",
"383 660 LINE"
);
},
{
closed = 1;
nodes = (
"288 660 LINE",
"29 0 LINE",
"115 0 LINE",
"368 660 LINE"
);
},
{
closed = 1;
nodes = (
"157 258 LINE",
"157 183 LINE",
"510 183 LINE",
"510 258 LINE"
);
}
);
width = 670;
}
);
unicode = 0041;
},
{
glyphname = AE;
lastChange = "2014-09-22 11:44:41 +0100";
layers = (
{
background = {
paths = (
{
closed = 1;
nodes = (
"108 258 LINE",
"68 183 LINE",
"403 183 LINE",
"403 258 LINE"
);
},
{
closed = 1;
nodes = (
"363 660 LINE",
"363 0 LINE",
"443 0 LINE",
"443 660 LINE"
);
},
{
closed = 1;
nodes = (
"405 75 LINE",
"405 0 LINE",
"814 0 LINE",
"814 75 LINE"
);
},
{
closed = 1;
nodes = (
"405 372 LINE",
"405 297 LINE",
"714 297 LINE",
"714 372 LINE"
);
},
{
closed = 1;
nodes = (
"341 660 LINE",
"301 585 LINE",
"799 585 LINE",
"799 660 LINE"
);
},
{
closed = 1;
nodes = (
"300 660 LINE",
"-88 0 LINE",
"4 0 LINE",
"386 660 LINE"
);
}
);
};
layerId = "40D202EF-20C6-4DB3-A3D1-28A333770DD8";
name = Light;
paths = (
{
closed = 1;
nodes = (
"167 248 LINE",
"156 234 LINE",
"448 234 LINE",
"448 248 LINE"
);
},
{
closed = 1;
nodes = (
"443 660 LINE",
"443 0 LINE",
"459 0 LINE",
"459 660 LINE"
);
},
{
closed = 1;
nodes = (
"452 14 LINE",
"452 0 LINE",
"860 0 LINE",
"860 14 LINE"
);
},
{
closed = 1;
nodes = (
"452 342 LINE",
"452 328 LINE",
"767 328 LINE",
"767 342 LINE"
);
},
{
closed = 1;
nodes = (
"429 660 LINE",
"418 646 LINE",
"844 646 LINE",
"844 660 LINE"
);
},
{
closed = 1;
nodes = (
"417 660 LINE",
"-3 0 LINE",
"20 0 LINE",
"434 660 LINE"
);
}
);
width = 885;
},
{
layerId = "90FEB760-6DE5-46E5-A8E9-582C63BAB3AD";
name = Regular;
paths = (
{
closed = 1;
nodes = (
"188 258 LINE",
"148 183 LINE",
"483 183 LINE",
"483 258 LINE"
);
},
{
closed = 1;
nodes = (
"443 660 LINE",
"443 0 LINE",
"523 0 LINE",
"523 660 LINE"
);
},
{
closed = 1;
nodes = (
"485 75 LINE",
"485 0 LINE",
"894 0 LINE",
"894 75 LINE"
);
},
{
closed = 1;
nodes = (
"485 372 LINE",
"485 297 LINE",
"794 297 LINE",
"794 372 LINE"
);
},
{
closed = 1;
nodes = (
"421 660 LINE",
"381 585 LINE",
"879 585 LINE",
"879 660 LINE"
);
},
{
closed = 1;
nodes = (
"380 660 LINE",
"-8 0 LINE",
"84 0 LINE",
"466 660 LINE"
);
}
);
width = 953;
}
);
rightMetricsKey = E;
unicode = 00C6;
},
{
glyphname = B;
lastChange = "2014-09-22 11:44:41 +0100";
layers = (
{
background = {
paths = (
{
closed = 1;
nodes = (
"152 350 LINE",
"152 295 LINE",
"365 295 LINE SMOOTH",
"459 295 OFFCURVE",
"505 255 OFFCURVE",
"505 185 CURVE SMOOTH",
"505 115 OFFCURVE",
"459 75 OFFCURVE",
"365 75 CURVE SMOOTH",
"152 75 LINE",
"152 0 LINE",
"346 0 LINE SMOOTH",
"502 0 OFFCURVE",
"589 73 OFFCURVE",
"589 185 CURVE SMOOTH",
"589 285 OFFCURVE",
"500 350 OFFCURVE",
"364 350 CURVE SMOOTH"
);
},
{
closed = 1;
nodes = (
"112 660 LINE",
"112 0 LINE",
"192 0 LINE",
"192 660 LINE"
);
},
{
closed = 1;
nodes = (
"152 660 LINE",
"152 585 LINE",
"348 585 LINE SMOOTH",
"442 585 OFFCURVE",
"488 550 OFFCURVE",
"488 478 CURVE SMOOTH",
"488 405 OFFCURVE",
"442 370 OFFCURVE",
"348 370 CURVE SMOOTH",
"152 370 LINE",
"152 315 LINE",
"347 315 LINE SMOOTH",
"483 315 OFFCURVE",
"572 377 OFFCURVE",
"572 478 CURVE SMOOTH",
"572 590 OFFCURVE",
"503 660 OFFCURVE",
"347 660 CURVE SMOOTH"
);
}
);
};
layerId = "40D202EF-20C6-4DB3-A3D1-28A333770DD8";
name = Light;
paths = (
{
closed = 1;
nodes = (
"565 280 OFFCURVE",
"489 340 OFFCURVE",
"344 340 CURVE SMOOTH",
"121 340 LINE",
"121 326 LINE",
"344 326 LINE SMOOTH",
"479 326 OFFCURVE",
"549 274 OFFCURVE",
"549 170 CURVE SMOOTH",
"549 67 OFFCURVE",
"479 14 OFFCURVE",
"344 14 CURVE SMOOTH",
"121 14 LINE",
"121 0 LINE",
"344 0 LINE SMOOTH",
"489 0 OFFCURVE",
"565 58 OFFCURVE",
"565 169 CURVE SMOOTH"
);
},
{
closed = 1;
nodes = (
"112 660 LINE",
"112 0 LINE",
"128 0 LINE",
"128 660 LINE"
);
},
{
closed = 1;
nodes = (
"546 603 OFFCURVE",
"477 660 OFFCURVE",
"344 660 CURVE SMOOTH",
"121 660 LINE",
"121 646 LINE",
"344 646 LINE SMOOTH",
"466 646 OFFCURVE",
"530 593 OFFCURVE",
"530 492 CURVE SMOOTH",
"530 391 OFFCURVE",
"466 340 OFFCURVE",
"344 340 CURVE SMOOTH",
"121 340 LINE",
"121 326 LINE",
"344 326 LINE SMOOTH",
"477 326 OFFCURVE",
"546 384 OFFCURVE",
"546 493 CURVE SMOOTH"
);
}
);
width = 625;
},
{
layerId = "90FEB760-6DE5-46E5-A8E9-582C63BAB3AD";
name = Regular;
paths = (
{
closed = 1;
nodes = (
"587 285 OFFCURVE",
"498 350 OFFCURVE",
"362 350 CURVE SMOOTH",
"150 350 LINE",
"150 295 LINE",
"363 295 LINE SMOOTH",
"457 295 OFFCURVE",
"503 255 OFFCURVE",
"503 185 CURVE SMOOTH",
"503 115 OFFCURVE",
"457 75 OFFCURVE",
"363 75 CURVE SMOOTH",
"150 75 LINE",
"150 0 LINE",
"344 0 LINE SMOOTH",
"500 0 OFFCURVE",
"587 73 OFFCURVE",
"587 185 CURVE SMOOTH"
);
},
{
closed = 1;
nodes = (
"110 660 LINE",
"110 0 LINE",
"190 0 LINE",
"190 660 LINE"
);
},
{
closed = 1;
nodes = (
"570 590 OFFCURVE",
"501 660 OFFCURVE",
"345 660 CURVE SMOOTH",
"150 660 LINE",
"150 585 LINE",
"346 585 LINE SMOOTH",
"440 585 OFFCURVE",
"486 550 OFFCURVE",
"486 478 CURVE SMOOTH",
"486 405 OFFCURVE",
"440 370 OFFCURVE",
"346 370 CURVE SMOOTH",
"150 370 LINE",
"150 315 LINE",
"345 315 LINE SMOOTH",
"481 315 OFFCURVE",
"570 377 OFFCURVE",
"570 478 CURVE SMOOTH"
);
}
);
width = 661;
}
);
leftMetricsKey = I;
unicode = 0042;
},
{
glyphname = C;
lastChange = "2014-09-22 11:44:41 +0100";
layers = (
{
anchors = (
{
name = bottom;
position = "{365, 0}";
},
{
name = top;
position = "{363, 742}";
}
);
background = {
anchors = (
{
name = top;
position = "{325, 660}";
},
{
name = bottom;
position = "{326, 0}";
}
);
paths = (
{
closed = 1;
nodes = (
"179 670 OFFCURVE",
"59 539 OFFCURVE",
"59 330 CURVE SMOOTH",
"59 121 OFFCURVE",
"177 -10 OFFCURVE",
"365 -10 CURVE SMOOTH",
"489 -10 OFFCURVE",
"589 56 OFFCURVE",
"631 169 CURVE",
"551 199 LINE",
"522 110 OFFCURVE",
"453 65 OFFCURVE",
"365 65 CURVE SMOOTH",
"228 65 OFFCURVE",
"143 164 OFFCURVE",
"143 330 CURVE SMOOTH",
"143 497 OFFCURVE",
"234 595 OFFCURVE",
"369 595 CURVE SMOOTH",
"457 595 OFFCURVE",
"511 555 OFFCURVE",
"540 479 CURVE",
"619 516 LINE",
"577 616 OFFCURVE",
"491 670 OFFCURVE",
"363 670 CURVE SMOOTH"
);
},
{
closed = 1;
nodes = (
"183 690 OFFCURVE",
"65 559 OFFCURVE",
"65 340 CURVE",
"65 121 OFFCURVE",
"181 -10 OFFCURVE",
"366 -10 CURVE",
"477 -10 OFFCURVE",
"566 43 OFFCURVE",
"613 141 CURVE",
"592 149 LINE",
"550 57 OFFCURVE",
"467 10 OFFCURVE",
"366 10 CURVE",
"192 10 OFFCURVE",
"85 138 OFFCURVE",
"85 340 CURVE",
"85 544 OFFCURVE",
"200 670 OFFCURVE",
"370 670 CURVE",
"466 670 OFFCURVE",
"537 626 OFFCURVE",
"576 553 CURVE",
"599 564 LINE",
"555 648 OFFCURVE",
"479 690 OFFCURVE",
"363 690 CURVE"
);
}
);
};
layerId = "40D202EF-20C6-4DB3-A3D1-28A333770DD8";
name = Light;
paths = (
{
closed = 1;
nodes = (
"604 171 LINE",
"573 65 OFFCURVE",
"484 4 OFFCURVE",
"358 4 CURVE SMOOTH",
"193 4 OFFCURVE",
"81 130 OFFCURVE",
"81 330 CURVE SMOOTH",
"81 530 OFFCURVE",
"192 656 OFFCURVE",
"358 656 CURVE SMOOTH",
"487 656 OFFCURVE",
"566 601 OFFCURVE",
"599 489 CURVE",
"614 496 LINE",
"581 612 OFFCURVE",
"497 670 OFFCURVE",
"358 670 CURVE SMOOTH",
"182 670 OFFCURVE",
"65 539 OFFCURVE",
"65 330 CURVE SMOOTH",
"65 121 OFFCURVE",
"183 -10 OFFCURVE",
"358 -10 CURVE SMOOTH",
"491 -10 OFFCURVE",
"586 54 OFFCURVE",
"619 165 CURVE"
);
}
);
width = 666;
},
{
anchors = (
{
name = bottom;
position = "{385, 0}";
},
{
name = top;
position = "{384, 660}";
}
);
layerId = "90FEB760-6DE5-46E5-A8E9-582C63BAB3AD";
name = Regular;
paths = (
{
closed = 1;
nodes = (
"572 199 LINE",
"543 110 OFFCURVE",
"474 65 OFFCURVE",
"386 65 CURVE SMOOTH",
"249 65 OFFCURVE",
"164 164 OFFCURVE",
"164 330 CURVE SMOOTH",
"164 497 OFFCURVE",
"255 595 OFFCURVE",
"390 595 CURVE SMOOTH",
"478 595 OFFCURVE",
"532 555 OFFCURVE",
"561 479 CURVE",
"640 516 LINE",
"598 616 OFFCURVE",
"512 670 OFFCURVE",
"384 670 CURVE SMOOTH",
"200 670 OFFCURVE",
"80 539 OFFCURVE",
"80 330 CURVE SMOOTH",
"80 121 OFFCURVE",
"198 -10 OFFCURVE",
"386 -10 CURVE SMOOTH",
"510 -10 OFFCURVE",
"610 56 OFFCURVE",
"652 169 CURVE"
);
}
);
width = 692;
}
);
leftMetricsKey = O;
unicode = 0043;
},
{
glyphname = D;
lastChange = "2014-09-22 11:44:41 +0100";
layers = (
{
anchors = (
{
name = center;
position = "{360, 371}";
},
{
name = top;
position = "{365, 742}";
}
);
background = {
components = (
{
name = H;
transform = "{1, 0, 0, 1, 0, 0}";
}
);
};
layerId = "40D202EF-20C6-4DB3-A3D1-28A333770DD8";
name = Light;
paths = (
{
closed = 1;
nodes = (
"121 660 LINE",
"121 646 LINE",
"315 646 LINE SMOOTH",
"518 646 OFFCURVE",
"624 541 OFFCURVE",
"624 340 CURVE SMOOTH",
"624 126 OFFCURVE",
"518 14 OFFCURVE",
"315 14 CURVE SMOOTH",
"120 14 LINE",
"120 0 LINE",
"315 0 LINE SMOOTH",
"529 0 OFFCURVE",
"640 117 OFFCURVE",
"640 340 CURVE SMOOTH",
"640 550 OFFCURVE",
"529 660 OFFCURVE",
"315 660 CURVE SMOOTH"
);
},
{
closed = 1;
nodes = (
"112 660 LINE",
"112 0 LINE",
"128 0 LINE",
"128 660 LINE"
);
}
);
width = 705;
},
{
anchors = (
{
name = center;
position = "{368, 330}";
},
{
name = top;
position = "{327, 660}";
}
);
layerId = "90FEB760-6DE5-46E5-A8E9-582C63BAB3AD";
name = Regular;
paths = (
{
closed = 1;
nodes = (
"150 660 LINE",
"150 585 LINE",
"331 585 LINE SMOOTH",
"482 585 OFFCURVE",
"571 490 OFFCURVE",
"571 330 CURVE SMOOTH",
"571 170 OFFCURVE",
"482 75 OFFCURVE",
"331 75 CURVE SMOOTH",
"150 75 LINE",
"150 0 LINE",
"323 0 LINE SMOOTH",
"530 0 OFFCURVE",
"655 118 OFFCURVE",
"655 330 CURVE SMOOTH",
"655 542 OFFCURVE",
"530 660 OFFCURVE",
"323 660 CURVE SMOOTH"
);
},
{
closed = 1;
nodes = (
"110 660 LINE",
"110 0 LINE",
"190 0 LINE",
"190 660 LINE"
);
}
);
width = 735;
}
);
leftMetricsKey = I;
rightMetricsKey = O;
unicode = 0044;
},
{
glyphname = E;
lastChange = "2014-09-22 11:44:41 +0100";
layers = (
{
anchors = (
{
name = bottom;
position = "{330, 0}";
},
{
name = ogonek;
position = "{566, 0}";
},
{
name = top;
position = "{330, 660}";
}
);
background = {
anchors = (
{
name = ogonek;
position = "{543, 0}";
},
{
name = bottom;
position = "{296, 0}";
},
{
name = top;
position = "{296, 660}";
}
);
paths = (
{
closed = 1;
nodes = (
"112 660 LINE",
"112 0 LINE",
"192 0 LINE",
"192 660 LINE"
);
},
{
closed = 1;
nodes = (
"154 75 LINE",
"154 0 LINE",
"590 0 LINE",
"590 75 LINE"
);
},
{
closed = 1;
nodes = (
"154 372 LINE",
"154 297 LINE",
"490 297 LINE",
"490 372 LINE"
);
},
{
closed = 1;
nodes = (
"154 660 LINE",
"154 585 LINE",
"575 585 LINE",
"575 660 LINE"
);
}
);
};
layerId = "40D202EF-20C6-4DB3-A3D1-28A333770DD8";
name = Light;
paths = (
{
closed = 1;
nodes = (
"112 660 LINE",
"112 0 LINE",
"128 0 LINE",
"128 660 LINE"
);
},
{
closed = 1;
nodes = (
"118 14 LINE",
"118 0 LINE",
"566 0 LINE",
"566 14 LINE"
);
},
{
closed = 1;
nodes = (
"118 344 LINE",
"118 330 LINE",
"466 330 LINE",
"466 344 LINE"
);
},
{
closed = 1;
nodes = (
"118 660 LINE",
"118 646 LINE",
"549 646 LINE",
"549 660 LINE"
);
}
);
width = 591;
},
{
anchors = (
{
name = bottom;
position = "{341, 0}";
},
{
name = ogonek;
position = "{588, 0}";
},
{
name = top;
position = "{341, 660}";
}
);
layerId = "90FEB760-6DE5-46E5-A8E9-582C63BAB3AD";
name = Regular;
paths = (
{
closed = 1;
nodes = (
"110 660 LINE",
"110 0 LINE",
"190 0 LINE",
"190 660 LINE"
);
},
{
closed = 1;
nodes = (
"152 75 LINE",
"152 0 LINE",
"588 0 LINE",
"588 75 LINE"
);
},
{
closed = 1;
nodes = (
"152 372 LINE",
"152 297 LINE",
"488 297 LINE",
"488 372 LINE"
);
},
{
closed = 1;
nodes = (
"152 660 LINE",
"152 585 LINE",
"573 585 LINE",
"573 660 LINE"
);
}
);
width = 647;
}
);
leftMetricsKey = I;
unicode = 0045;
},
{
glyphname = F;
lastChange = "2014-09-22 11:44:41 +0100";
layers = (
{
background = {
paths = (
{
closed = 1;
nodes = (
"112 660 LINE",
"112 0 LINE",
"192 0 LINE",
"192 660 LINE"
);
},
{
closed = 1;
nodes = (
"154 372 LINE",
"154 297 LINE",
"490 297 LINE",
"490 372 LINE"
);
},
{
closed = 1;
nodes = (
"154 660 LINE",
"154 585 LINE",
"574 585 LINE",
"574 660 LINE"
);
}
);
};
layerId = "40D202EF-20C6-4DB3-A3D1-28A333770DD8";
name = Light;
paths = (
{
closed = 1;
nodes = (
"112 660 LINE",
"112 0 LINE",
"128 0 LINE",
"128 660 LINE"
);
},
{
closed = 1;
nodes = (
"118 344 LINE",
"118 330 LINE",
"466 330 LINE",
"466 344 LINE"
);
},
{
closed = 1;
nodes = (
"118 660 LINE",
"118 646 LINE",
"548 646 LINE",
"548 660 LINE"
);
}
);
width = 577;
},
{
layerId = "90FEB760-6DE5-46E5-A8E9-582C63BAB3AD";
name = Regular;
paths = (
{
closed = 1;
nodes = (
"110 660 LINE",
"110 0 LINE",
"190 0 LINE",
"190 660 LINE"
);
},
{
closed = 1;
nodes = (
"152 372 LINE",
"152 297 LINE",
"488 297 LINE",
"488 372 LINE"
);
},
{
closed = 1;
nodes = (
"152 660 LINE",
"152 585 LINE",
"572 585 LINE",
"572 660 LINE"
);
}
);
width = 617;
}
);
leftMetricsKey = E;
unicode = 0046;
},
{
glyphname = G;
lastChange = "2014-09-22 11:44:41 +0100";
layers = (
{
anchors = (
{
name = bottom;
position = "{400, 0}";
},
{
name = top;
position = "{365, 742}";
}
);
background = {
anchors = (
{
name = top;
position = "{326, 660}";
},
{
name = bottom;
position = "{358, 0}";
}
);
paths = (
{
closed = 1;
nodes = (
"188 670 OFFCURVE",
"65 539 OFFCURVE",
"65 330 CURVE SMOOTH",
"65 121 OFFCURVE",
"183 -10 OFFCURVE",
"371 -10 CURVE SMOOTH",
"532 -10 OFFCURVE",
"615 85 OFFCURVE",
"615 224 CURVE",
"571 235 LINE",
"571 121 OFFCURVE",
"484 65 OFFCURVE",
"374 65 CURVE SMOOTH",
"227 65 OFFCURVE",
"149 164 OFFCURVE",
"149 330 CURVE SMOOTH",
"149 496 OFFCURVE",
"239 595 OFFCURVE",
"373 595 CURVE SMOOTH",
"465 595 OFFCURVE",
"535 555 OFFCURVE",
"564 479 CURVE",
"637 519 LINE",
"586 621 OFFCURVE",
"504 670 OFFCURVE",
"373 670 CURVE SMOOTH"
);
},
{
closed = 1;
nodes = (
"571 333 LINE",
"571 143 LINE",
"589 0 LINE",
"642 0 LINE",
"642 143 LINE",
"642 333 LINE"
);
},
{
closed = 1;
nodes = (
"359 333 LINE",
"359 258 LINE",
"642 258 LINE",
"642 333 LINE"
);
}
);
};
layerId = "40D202EF-20C6-4DB3-A3D1-28A333770DD8";
name = Light;
paths = (
{
closed = 1;
nodes = (
"182 670 OFFCURVE",
"65 539 OFFCURVE",
"65 330 CURVE SMOOTH",
"65 121 OFFCURVE",
"179 -10 OFFCURVE",
"354 -10 CURVE SMOOTH",
"518 -10 OFFCURVE",
"613 92 OFFCURVE",
"613 268 CURVE",
"603 274 LINE",
"603 103 OFFCURVE",
"512 4 OFFCURVE",
"354 4 CURVE SMOOTH",
"189 4 OFFCURVE",
"81 130 OFFCURVE",
"81 330 CURVE SMOOTH",
"81 530 OFFCURVE",
"192 656 OFFCURVE",
"358 656 CURVE SMOOTH",
"488 656 OFFCURVE",
"567 601 OFFCURVE",
"600 489 CURVE",
"614 496 LINE",
"581 612 OFFCURVE",
"497 670 OFFCURVE",
"358 670 CURVE SMOOTH"
);
},
{
closed = 1;
nodes = (
"603 304 LINE",
"603 206 LINE",
"603 0 LINE",
"619 0 LINE",
"619 206 LINE",
"619 304 LINE"
);
},
{
closed = 1;
nodes = (
"362 311 LINE",
"362 297 LINE",
"619 297 LINE",
"619 311 LINE"
);
}
);
width = 686;
},
{
anchors = (
{
name = bottom;
position = "{417, 0}";
},
{
name = top;
position = "{385, 660}";
}
);
layerId = "90FEB760-6DE5-46E5-A8E9-582C63BAB3AD";
name = Regular;
paths = (
{
closed = 1;
nodes = (
"203 670 OFFCURVE",
"80 539 OFFCURVE",
"80 330 CURVE SMOOTH",
"80 121 OFFCURVE",
"198 -10 OFFCURVE",
"386 -10 CURVE SMOOTH",
"547 -10 OFFCURVE",
"630 85 OFFCURVE",
"630 224 CURVE",
"586 235 LINE",
"586 121 OFFCURVE",
"499 65 OFFCURVE",
"389 65 CURVE SMOOTH",
"242 65 OFFCURVE",
"164 164 OFFCURVE",
"164 330 CURVE SMOOTH",
"164 496 OFFCURVE",
"254 595 OFFCURVE",
"388 595 CURVE SMOOTH",
"480 595 OFFCURVE",
"550 555 OFFCURVE",
"579 479 CURVE",
"652 519 LINE",
"601 621 OFFCURVE",
"519 670 OFFCURVE",
"388 670 CURVE SMOOTH"
);
},
{
closed = 1;
nodes = (
"586 333 LINE",
"586 143 LINE",
"604 0 LINE",
"657 0 LINE",
"657 143 LINE",
"657 333 LINE"
);
},
{
closed = 1;
nodes = (
"374 333 LINE",
"374 258 LINE",
"657 258 LINE",
"657 333 LINE"
);
}
);
width = 721;
}
);
leftMetricsKey = O;
unicode = 0047;
},
{
glyphname = H;
lastChange = "2014-09-22 11:44:41 +0100";
layers = (
{
background = {
paths = (
{
closed = 1;
nodes = (
"550 660 LINE",
"550 0 LINE",
"630 0 LINE",
"630 660 LINE"
);
},
{
closed = 1;
nodes = (
"112 660 LINE",
"112 0 LINE",
"192 0 LINE",
"192 660 LINE"
);
},
{
closed = 1;
nodes = (
"154 372 LINE",
"154 297 LINE",
"587 297 LINE",
"587 372 LINE"
);
}
);
};
layerId = "40D202EF-20C6-4DB3-A3D1-28A333770DD8";
name = Light;
paths = (
{
closed = 1;
nodes = (
"594 660 LINE",
"594 0 LINE",
"610 0 LINE",
"610 660 LINE"
);
},
{
closed = 1;
nodes = (
"112 660 LINE",
"112 0 LINE",
"128 0 LINE",
"128 660 LINE"
);
},
{
closed = 1;
nodes = (
"120 344 LINE",
"120 330 LINE",
"603 330 LINE",
"603 344 LINE"
);
}
);
width = 722;
},
{
layerId = "90FEB760-6DE5-46E5-A8E9-582C63BAB3AD";
name = Regular;
paths = (
{
closed = 1;
nodes = (
"548 660 LINE",
"548 0 LINE",
"628 0 LINE",
"628 660 LINE"
);
},
{
closed = 1;
nodes = (
"110 660 LINE",
"110 0 LINE",
"190 0 LINE",
"190 660 LINE"
);
},
{
closed = 1;
nodes = (
"152 372 LINE",
"152 297 LINE",
"585 297 LINE",
"585 372 LINE"
);
}
);
width = 738;
}
);
leftMetricsKey = I;
rightMetricsKey = I;
unicode = 0048;
},
{
glyphname = I;
lastChange = "2014-09-22 11:44:41 +0100";
layers = (
{
anchors = (
{
name = ogonek;
position = "{128, 0}";
},
{
name = top;
position = "{120, 660}";
}
);
background = {
anchors = (
{
name = ogonek;
position = "{145, 0}";
},
{
name = top;
position = "{105, 660}";
}
);
paths = (
{
closed = 1;
nodes = (
"65 660 LINE",
"65 0 LINE",
"145 0 LINE",
"145 660 LINE"
);
}
);
};
layerId = "40D202EF-20C6-4DB3-A3D1-28A333770DD8";
name = Light;
paths = (
{
closed = 1;
nodes = (
"112 660 LINE",
"112 0 LINE",
"128 0 LINE",
"128 660 LINE"
);
}
);
width = 240;
},
{
anchors = (
{
name = ogonek;
position = "{190, 0}";
},
{
name = top;
position = "{150, 660}";
}
);
layerId = "90FEB760-6DE5-46E5-A8E9-582C63BAB3AD";
name = Regular;
paths = (
{
closed = 1;
nodes = (
"110 660 LINE",
"110 0 LINE",
"190 0 LINE",
"190 660 LINE"
);
}
);
width = 300;
}
);
unicode = 0049;
},
{
glyphname = J;
lastChange = "2014-09-22 11:44:41 +0100";
layers = (
{
background = {
paths = (
{
closed = 1;
nodes = (
"389 660 LINE",
"389 246 LINE SMOOTH",
"389 128 OFFCURVE",
"355 65 OFFCURVE",
"242 65 CURVE SMOOTH",
"142 65 OFFCURVE",
"110 120 OFFCURVE",
"125 233 CURVE",
"51 218 LINE",
"25 79 OFFCURVE",
"97 -10 OFFCURVE",
"245 -10 CURVE SMOOTH",
"385 -10 OFFCURVE",
"468 78 OFFCURVE",
"468 226 CURVE SMOOTH",
"469 660 LINE"
);
},
{
closed = 1;
nodes = (
"453 660 LINE",
"453 246 LINE",
"453 101 OFFCURVE",
"407 10 OFFCURVE",
"255 10 CURVE",
"134 10 OFFCURVE",
"84 76 OFFCURVE",
"87 189 CURVE",
"78 188 LINE",
"62 62 OFFCURVE",
"126 -10 OFFCURVE",
"259 -10 CURVE",
"391 -10 OFFCURVE",
"468 73 OFFCURVE",
"468 223 CURVE",
"469 660 LINE"
);
}
);
};
layerId = "40D202EF-20C6-4DB3-A3D1-28A333770DD8";
name = Light;
paths = (
{
closed = 1;
nodes = (
"453 660 LINE",
"453 209 LINE SMOOTH",
"453 84 OFFCURVE",
"393 4 OFFCURVE",
"275 4 CURVE SMOOTH",
"155 4 OFFCURVE",
"93 76 OFFCURVE",
"111 208 CURVE",
"95 200 LINE",
"77 74 OFFCURVE",
"143 -10 OFFCURVE",
"275 -10 CURVE SMOOTH",
"403 -10 OFFCURVE",
"469 75 OFFCURVE",
"469 209 CURVE SMOOTH",
"469 660 LINE"
);
}
);
width = 617;
},
{
layerId = "90FEB760-6DE5-46E5-A8E9-582C63BAB3AD";
name = Regular;
paths = (
{
closed = 1;
nodes = (
"387 660 LINE",
"387 246 LINE SMOOTH",
"387 128 OFFCURVE",
"353 65 OFFCURVE",
"240 65 CURVE SMOOTH",
"140 65 OFFCURVE",
"108 120 OFFCURVE",
"123 233 CURVE",
"49 218 LINE",
"23 79 OFFCURVE",
"95 -10 OFFCURVE",
"243 -10 CURVE SMOOTH",
"383 -10 OFFCURVE",
"466 78 OFFCURVE",
"466 226 CURVE SMOOTH",
"467 660 LINE"
);
}
);
width = 569;
}
);
rightMetricsKey = U;
unicode = 004A;
},
{
glyphname = K;
lastChange = "2014-09-22 11:44:41 +0100";
layers = (
{
anchors = (
{
name = bottom;
position = "{332, 0}";
},
{
name = top;
position = "{332, 660}";
}
);
background = {
paths = (
{
closed = 1;
nodes = (
"543 660 LINE",
"156 266 LINE",
"156 241 LINE",
"567 660 LINE"
);
},
{
closed = 1;
nodes = (
"112 660 LINE",
"112 0 LINE",
"128 0 LINE",
"128 660 LINE"
);
},
{
closed = 1;
nodes = (
"311 367 LINE",
"563 0 LINE",
"585 0 LINE",
"327 378 LINE"
);
},
{
closed = 1;
nodes = (
"112 660 LINE",
"112 0 LINE",
"128 0 LINE",
"128 660 LINE"
);
},
{
closed = 1;
nodes = (
"524 660 LINE",
"152 279 LINE",
"152 171 LINE",
"629 660 LINE"
);
},
{
closed = 1;
nodes = (
"112 660 LINE",
"112 0 LINE",
"192 0 LINE",
"192 660 LINE"
);
},
{
closed = 1;
nodes = (
"283 371 LINE",
"536 0 LINE",
"632 0 LINE",
"349 416 LINE"
);
}
);
};
layerId = "40D202EF-20C6-4DB3-A3D1-28A333770DD8";
name = Light;
paths = (
{
closed = 1;
nodes = (
"524 660 LINE",
"119 248 LINE",
"119 225 LINE",
"547 660 LINE"
);
},
{
closed = 1;
nodes = (
"112 660 LINE",
"112 0 LINE",
"128 0 LINE",
"128 660 LINE"
);
},
{
closed = 1;
nodes = (
"272 390 LINE",
"536 0 LINE",
"557 0 LINE",
"283 404 LINE"
);
}
);
width = 603;
},
{
anchors = (
{
name = bottom;
position = "{375, 0}";
},
{
name = top;
position = "{355, 660}";
}
);
layerId = "90FEB760-6DE5-46E5-A8E9-582C63BAB3AD";
name = Regular;
paths = (
{
closed = 1;
nodes = (
"522 660 LINE",
"150 279 LINE",
"150 171 LINE",
"627 660 LINE"
);
},
{
closed = 1;
nodes = (
"110 660 LINE",
"110 0 LINE",
"190 0 LINE",
"190 660 LINE"
);
},
{
closed = 1;
nodes = (
"281 371 LINE",
"534 0 LINE",
"630 0 LINE",
"347 416 LINE"
);
}
);
width = 669;
}
);
leftMetricsKey = I;
unicode = 004B;
},
{
glyphname = L;
lastChange = "2014-09-22 11:44:41 +0100";
layers = (
{
anchors = (
{
name = bottom;
position = "{344, 0}";
},
{
name = top;
position = "{120, 660}";
},
{
name = topright;
position = "{302, 730}";
}
);
background = {
anchors = (
{
name = top;
position = "{105, 660}";
},
{
name = bottom;
position = "{319, 0}";
},
{
name = topright;
position = "{267, 730}";
}
);
paths = (
{
closed = 1;
nodes = (
"112 660 LINE",
"112 0 LINE",
"192 0 LINE",
"192 660 LINE"
);
},
{
closed = 1;
nodes = (
"154 75 LINE",
"154 0 LINE",
"570 0 LINE",
"570 75 LINE"
);
}
);
};
layerId = "40D202EF-20C6-4DB3-A3D1-28A333770DD8";
name = Light;
paths = (
{
closed = 1;
nodes = (
"112 660 LINE",
"112 0 LINE",
"128 0 LINE",
"128 660 LINE"
);
},
{
closed = 1;
nodes = (
"118 14 LINE",
"118 0 LINE",
"544 0 LINE",
"544 14 LINE"
);
}
);
width = 557;
},
{
anchors = (
{
name = bottom;
position = "{364, 0}";
},
{
name = top;
position = "{150, 660}";
},
{
name = topright;
position = "{312, 730}";
}
);
layerId = "90FEB760-6DE5-46E5-A8E9-582C63BAB3AD";
name = Regular;
paths = (
{
closed = 1;
nodes = (
"110 660 LINE",
"110 0 LINE",
"190 0 LINE",
"190 660 LINE"
);
},
{
closed = 1;
nodes = (
"152 75 LINE",
"152 0 LINE",
"568 0 LINE",
"568 75 LINE"
);
}
);
width = 597;
}
);
leftMetricsKey = I;
unicode = 004C;
},
{
glyphname = Lslash;
lastChange = "2014-09-22 11:44:41 +0100";
layers = (
{
background = {
paths = (
{
closed = 1;
nodes = (
"3 289 LINE",
"3 206 LINE",
"365 448 LINE",
"365 531 LINE"
);
},
{
closed = 1;
nodes = (
"110 660 LINE",
"110 0 LINE",
"190 0 LINE",
"190 660 LINE"
);
},
{
closed = 1;
nodes = (
"152 75 LINE",
"152 0 LINE",
"568 0 LINE",
"568 75 LINE"
);
}
);
};
components = (
{
name = L;
transform = "{1, 0, 0, 1, 0, 0}";
}
);
layerId = "40D202EF-20C6-4DB3-A3D1-28A333770DD8";
name = Light;
paths = (
{
closed = 1;
nodes = (
"11 243 LINE",
"11 223 LINE",
"336 460 LINE",
"336 480 LINE"
);
}
);
width = 557;
},
{
components = (
{
name = L;
transform = "{1, 0, 0, 1, 0, 0}";
}
);
layerId = "90FEB760-6DE5-46E5-A8E9-582C63BAB3AD";
name = Regular;
paths = (
{
closed = 1;
nodes = (
"3 289 LINE",
"3 206 LINE",
"365 448 LINE",
"365 531 LINE"
);
}
);
width = 597;
}
);
rightMetricsKey = L;
unicode = 0141;
},
{
glyphname = M;
lastChange = "2014-09-22 11:44:41 +0100";
layers = (
{
background = {
paths = (
{
closed = 1;
nodes = (
"667 -21 LINE",
"425 -699 LINE",
"440 -699 LINE",
"626 -175 LINE",
"675 -21 LINE"
);
},
{
closed = 1;
nodes = (
"126 -21 LINE",
"126 -265 LINE",
"126 -699 LINE",
"142 -699 LINE",
"142 -265 LINE",
"127 -21 LINE"
);
},
{
closed = 1;
nodes = (
"168 -21 LINE",
"217 -176 LINE",
"402 -699 LINE",
"417 -699 LINE",
"176 -21 LINE"
);
},
{
closed = 1;
nodes = (
"714 -21 LINE",
"700 -265 LINE",
"700 -699 LINE",
"716 -699 LINE",
"716 -265 LINE",
"716 -21 LINE"
);
},
{
closed = 1;
nodes = (
"613 660 LINE",
"372 0 LINE",
"454 0 LINE",
"630 485 LINE",
"687 660 LINE"
);
},
{
closed = 1;
nodes = (
"94 660 LINE",
"94 415 LINE",
"94 0 LINE",
"174 0 LINE",
"174 415 LINE",
"159 660 LINE"
);
},
{
closed = 1;
nodes = (
"140 660 LINE",
"196 486 LINE",
"372 0 LINE",
"454 0 LINE",
"214 660 LINE"
);
},
{
closed = 1;
nodes = (
"667 660 LINE",
"652 415 LINE",
"652 0 LINE",
"732 0 LINE",
"732 415 LINE",
"732 660 LINE"
);
}
);
};
layerId = "40D202EF-20C6-4DB3-A3D1-28A333770DD8";
name = Light;
paths = (
{
closed = 1;
nodes = (
"403 0 LINE",
"421 0 LINE",
"676 600 LINE",
"701 660 LINE",
"684 660 LINE"
);
},
{
closed = 1;
nodes = (
"112 660 LINE",
"112 603 LINE",
"112 0 LINE",
"128 0 LINE",
"128 603 LINE",
"128 660 LINE"
);
},
{
closed = 1;
nodes = (
"121 660 LINE",
"146 600 LINE",
"401 0 LINE",
"419 0 LINE",
"138 660 LINE"
);
},
{
closed = 1;
nodes = (
"694 660 LINE",
"694 603 LINE",
"694 0 LINE",
"710 0 LINE",
"710 603 LINE",
"710 660 LINE"
);
}
);
width = 822;
},
{
layerId = "90FEB760-6DE5-46E5-A8E9-582C63BAB3AD";
name = Regular;
paths = (
{
closed = 1;
nodes = (
"388 0 LINE",
"470 0 LINE",
"646 485 LINE",
"703 660 LINE",
"629 660 LINE"
);
},
{
closed = 1;
nodes = (
"110 660 LINE",
"110 415 LINE",
"110 0 LINE",
"190 0 LINE",
"190 415 LINE",
"175 660 LINE"
);
},
{
closed = 1;
nodes = (
"156 660 LINE",
"212 486 LINE",
"388 0 LINE",
"470 0 LINE",
"230 660 LINE"
);
},
{
closed = 1;
nodes = (
"683 660 LINE",
"668 415 LINE",
"668 0 LINE",
"748 0 LINE",
"748 415 LINE",
"748 660 LINE"
);
}
);
width = 858;
}
);
leftMetricsKey = i;
rightMetricsKey = l;
unicode = 004D;
},
{
glyphname = N;
lastChange = "2014-09-22 11:44:41 +0100";
layers = (
{
anchors = (
{
name = bottom;
position = "{391, 0}";
},
{
name = top;
position = "{361, 660}";
}
);
background = {
anchors = (
{
name = top;
position = "{328, 660}";
},
{
name = bottom;
position = "{354, 0}";
}
);
paths = (
{
closed = 1;
nodes = (
"126 660 LINE",
"244 442 LINE",
"524 0 LINE",
"594 0 LINE",
"475 220 LINE",
"196 660 LINE"
);
},
{
closed = 1;
nodes = (
"101 660 LINE",
"101 466 LINE",
"101 0 LINE",
"181 0 LINE",
"181 466 LINE",
"171 660 LINE"
);
},
{
closed = 1;
nodes = (
"539 660 LINE",
"539 194 LINE",
"549 0 LINE",
"619 0 LINE",
"619 194 LINE",
"619 660 LINE"
);
},
{
closed = 1;
nodes = (
"160 679 LINE",
"265 480 LINE",
"562 1 LINE",
"561 1 LINE",
"455 202 LINE",
"159 679 LINE"
);
},
{
closed = 1;
nodes = (
"112 679 LINE",
"112 493 LINE",
"112 1 LINE",
"128 1 LINE",
"128 492 LINE",
"119 679 LINE"
);
},
{
closed = 1;
nodes = (
"594 679 LINE",
"594 188 LINE",
"603 1 LINE",
"610 1 LINE",
"610 187 LINE",
"610 679 LINE"
);
}
);
};
layerId = "40D202EF-20C6-4DB3-A3D1-28A333770DD8";
name = Light;
paths = (
{
closed = 1;
nodes = (
"116 660 LINE",
"141 625 LINE",
"586 0 LINE",
"606 0 LINE",
"581 35 LINE",
"136 660 LINE"
);
},
{
closed = 1;
nodes = (
"112 660 LINE",
"112 622 LINE",
"112 0 LINE",
"128 0 LINE",
"128 622 LINE",
"128 660 LINE"
);
},
{
closed = 1;
nodes = (
"594 660 LINE",
"594 57 LINE",
"594 0 LINE",
"610 0 LINE",
"610 57 LINE",
"610 660 LINE"
);
}
);
width = 722;
},
{
anchors = (
{
name = bottom;
position = "{399, 0}";
},
{
name = top;
position = "{373, 660}";
}
);
layerId = "90FEB760-6DE5-46E5-A8E9-582C63BAB3AD";
name = Regular;
paths = (
{
closed = 1;
nodes = (
"135 660 LINE",
"253 442 LINE",
"533 0 LINE",
"603 0 LINE",
"484 220 LINE",
"205 660 LINE"
);
},
{
closed = 1;
nodes = (
"110 660 LINE",
"110 466 LINE",
"110 0 LINE",
"190 0 LINE",
"190 466 LINE",
"180 660 LINE"
);
},
{
closed = 1;
nodes = (
"548 660 LINE",
"548 194 LINE",
"558 0 LINE",
"628 0 LINE",
"628 194 LINE",
"628 660 LINE"
);
}
);
width = 738;
}
);
leftMetricsKey = I;
rightMetricsKey = I;
unicode = 004E;
},
{
glyphname = O;
lastChange = "2014-09-22 11:44:41 +0100";
layers = (
{
anchors = (
{
name = top;
position = "{365, 660}";
}
);
background = {
anchors = (
{
name = top;
position = "{327, 660}";
}
);
paths = (
{
closed = 1;
nodes = (
"178 670 OFFCURVE",
"60 539 OFFCURVE",
"60 330 CURVE SMOOTH",
"60 121 OFFCURVE",
"178 -10 OFFCURVE",
"366 -10 CURVE SMOOTH",
"554 -10 OFFCURVE",
"672 121 OFFCURVE",
"672 330 CURVE SMOOTH",
"672 539 OFFCURVE",
"554 670 OFFCURVE",
"366 670 CURVE SMOOTH"
);
},
{
closed = 1;
nodes = (
"503 595 OFFCURVE",
"588 496 OFFCURVE",
"588 330 CURVE SMOOTH",
"588 164 OFFCURVE",
"503 65 OFFCURVE",
"366 65 CURVE SMOOTH",
"229 65 OFFCURVE",
"144 164 OFFCURVE",
"144 330 CURVE SMOOTH",
"144 496 OFFCURVE",
"229 595 OFFCURVE",
"366 595 CURVE SMOOTH"
);
}
);
};
layerId = "40D202EF-20C6-4DB3-A3D1-28A333770DD8";
name = Light;
paths = (
{
closed = 1;
nodes = (
"181 670 OFFCURVE",
"65 539 OFFCURVE",
"65 330 CURVE SMOOTH",
"65 121 OFFCURVE",
"181 -10 OFFCURVE",
"366 -10 CURVE SMOOTH",
"551 -10 OFFCURVE",
"667 121 OFFCURVE",
"667 330 CURVE SMOOTH",
"667 539 OFFCURVE",
"551 670 OFFCURVE",
"366 670 CURVE SMOOTH"
);
},
{
closed = 1;
nodes = (
"541 656 OFFCURVE",
"651 530 OFFCURVE",
"651 330 CURVE SMOOTH",
"651 130 OFFCURVE",
"541 4 OFFCURVE",
"366 4 CURVE SMOOTH",
"191 4 OFFCURVE",
"81 130 OFFCURVE",
"81 330 CURVE SMOOTH",
"81 530 OFFCURVE",
"191 656 OFFCURVE",
"366 656 CURVE SMOOTH"
);
}
);
width = 732;
},
{
anchors = (
{
name = top;
position = "{386, 660}";
}
);
layerId = "90FEB760-6DE5-46E5-A8E9-582C63BAB3AD";
name = Regular;
paths = (
{
closed = 1;
nodes = (
"198 670 OFFCURVE",
"80 539 OFFCURVE",
"80 330 CURVE SMOOTH",
"80 121 OFFCURVE",
"198 -10 OFFCURVE",
"386 -10 CURVE SMOOTH",
"574 -10 OFFCURVE",
"692 121 OFFCURVE",
"692 330 CURVE SMOOTH",
"692 539 OFFCURVE",
"574 670 OFFCURVE",
"386 670 CURVE SMOOTH"
);
},
{
closed = 1;
nodes = (
"523 595 OFFCURVE",
"608 496 OFFCURVE",
"608 330 CURVE SMOOTH",
"608 164 OFFCURVE",
"523 65 OFFCURVE",
"386 65 CURVE SMOOTH",
"249 65 OFFCURVE",
"164 164 OFFCURVE",
"164 330 CURVE SMOOTH",
"164 496 OFFCURVE",
"249 595 OFFCURVE",
"386 595 CURVE SMOOTH"
);
}
);
width = 772;
}
);
unicode = 004F;
},
{
color = 0;
glyphname = Oslash;
lastChange = "2014-09-22 11:44:41 +0100";
layers = (
{
background = {
paths = (
{
closed = 1;
nodes = (
"582 700 LINE",
"80 -41 LINE",
"151 -41 LINE",
"653 700 LINE"
);
},
{
closed = 1;
nodes = (
"179 670 OFFCURVE",
"61 539 OFFCURVE",
"61 330 CURVE SMOOTH",
"61 121 OFFCURVE",
"179 -10 OFFCURVE",
"367 -10 CURVE SMOOTH",
"555 -10 OFFCURVE",
"673 121 OFFCURVE",
"673 330 CURVE SMOOTH",
"673 539 OFFCURVE",
"555 670 OFFCURVE",
"367 670 CURVE SMOOTH"
);
},
{
closed = 1;
nodes = (
"504 595 OFFCURVE",
"589 496 OFFCURVE",
"589 330 CURVE SMOOTH",
"589 164 OFFCURVE",
"504 65 OFFCURVE",
"367 65 CURVE SMOOTH",
"230 65 OFFCURVE",
"145 164 OFFCURVE",
"145 330 CURVE SMOOTH",
"145 496 OFFCURVE",
"230 595 OFFCURVE",
"367 595 CURVE SMOOTH"
);
}
);
};
components = (
{
name = O;
transform = "{1, 0, 0, 1, 0, 0}";
}
);
layerId = "40D202EF-20C6-4DB3-A3D1-28A333770DD8";
name = Light;
paths = (
{
closed = 1;
nodes = (
"617 690 LINE",
"95 -31 LINE",
"115 -31 LINE",
"637 690 LINE"
);
}
);
width = 732;
},
{
components = (
{
name = O;
transform = "{1, 0, 0, 1, 0, 0}";
}
);
layerId = "90FEB760-6DE5-46E5-A8E9-582C63BAB3AD";
name = Regular;
paths = (
{
closed = 1;
nodes = (
"601 700 LINE",
"99 -41 LINE",
"170 -41 LINE",
"672 700 LINE"
);
}
);
width = 772;
}
);
leftMetricsKey = O;
rightMetricsKey = O;
unicode = 00D8;
},
{
color = 0;
glyphname = OE;
lastChange = "2014-09-22 11:44:41 +0100";
layers = (
{
background = {
paths = (
{
closed = 1;
nodes = (
"178 670 OFFCURVE",
"65 539 OFFCURVE",
"65 330 CURVE SMOOTH",
"65 121 OFFCURVE",
"178 -10 OFFCURVE",
"366 -10 CURVE SMOOTH",
"458 -10 OFFCURVE",
"515 14 OFFCURVE",
"554 66 CURVE",
"554 177 LINE",
"518 107 OFFCURVE",
"463 65 OFFCURVE",
"366 65 CURVE SMOOTH",
"229 65 OFFCURVE",
"149 164 OFFCURVE",
"149 330 CURVE SMOOTH",
"149 496 OFFCURVE",
"229 595 OFFCURVE",
"366 595 CURVE SMOOTH",
"463 595 OFFCURVE",
"518 553 OFFCURVE",
"554 483 CURVE",
"554 594 LINE",
"515 646 OFFCURVE",
"458 670 OFFCURVE",
"366 670 CURVE SMOOTH"
);
},
{
closed = 1;
nodes = (
"543 660 LINE",
"543 0 LINE",
"623 0 LINE",
"623 660 LINE"
);
},
{
closed = 1;
nodes = (
"585 75 LINE",
"585 0 LINE",
"985 0 LINE",
"985 75 LINE"
);
},
{
closed = 1;
nodes = (
"585 372 LINE",
"585 297 LINE",
"885 297 LINE",
"885 372 LINE"
);
},
{
closed = 1;
nodes = (
"585 660 LINE",
"585 585 LINE",
"970 585 LINE",
"970 660 LINE"
);
},
{
closed = 1;
nodes = (
"176 690 OFFCURVE",
"65 559 OFFCURVE",
"65 340 CURVE",
"65 120 OFFCURVE",
"176 -10 OFFCURVE",
"360 -10 CURVE",
"445 -10 OFFCURVE",
"494 9 OFFCURVE",
"531 53 CURVE",
"531 65 LINE",
"488 31 OFFCURVE",
"432 10 OFFCURVE",
"360 10 CURVE",
"186 10 OFFCURVE",
"85 139 OFFCURVE",
"85 340 CURVE",
"85 541 OFFCURVE",
"186 670 OFFCURVE",
"360 670 CURVE",
"432 670 OFFCURVE",
"488 649 OFFCURVE",
"531 615 CURVE",
"531 627 LINE",
"494 671 OFFCURVE",
"445 690 OFFCURVE",
"360 690 CURVE"
);
},
{
closed = 1;
nodes = (
"591 679 LINE",
"591 1 LINE",
"607 1 LINE",
"607 679 LINE"
);
},
{
closed = 1;
nodes = (
"637 21 LINE",
"637 1 LINE",
"1005 1 LINE",
"1005 21 LINE"
);
},
{
closed = 1;
nodes = (
"637 355 LINE",
"637 335 LINE",
"895 335 LINE",
"895 355 LINE"
);
},
{
closed = 1;
nodes = (
"637 679 LINE",
"637 659 LINE",
"989 659 LINE",
"989 679 LINE"
);
}
);
};
layerId = "40D202EF-20C6-4DB3-A3D1-28A333770DD8";
name = Light;
paths = (
{
closed = 1;
nodes = (
"182 670 OFFCURVE",
"65 539 OFFCURVE",
"65 330 CURVE SMOOTH",
"65 121 OFFCURVE",
"183 -10 OFFCURVE",
"358 -10 CURVE SMOOTH",
"454 -10 OFFCURVE",
"531 23 OFFCURVE",
"578 84 CURVE",
"578 112 LINE",
"535 43 OFFCURVE",
"458 4 OFFCURVE",
"358 4 CURVE SMOOTH",
"193 4 OFFCURVE",
"81 130 OFFCURVE",
"81 330 CURVE SMOOTH",
"81 530 OFFCURVE",
"192 656 OFFCURVE",
"358 656 CURVE SMOOTH",
"465 656 OFFCURVE",
"537 618 OFFCURVE",
"578 542 CURVE",
"578 575 LINE",
"534 638 OFFCURVE",
"461 670 OFFCURVE",
"358 670 CURVE SMOOTH"
);
},
{
closed = 1;
nodes = (
"570 660 LINE",
"570 0 LINE",
"586 0 LINE",
"586 660 LINE"
);
},
{
closed = 1;
nodes = (
"584 14 LINE",
"576 0 LINE",
"998 0 LINE",
"998 14 LINE"
);
},
{
closed = 1;
nodes = (
"576 344 LINE",
"576 330 LINE",
"909 330 LINE",
"909 344 LINE"
);
},
{
closed = 1;
nodes = (
"576 660 LINE",
"576 646 LINE",
"981 646 LINE",
"981 660 LINE"
);
}
);
width = 1023;
},
{
layerId = "90FEB760-6DE5-46E5-A8E9-582C63BAB3AD";
name = Regular;
paths = (
{
closed = 1;
nodes = (
"193 670 OFFCURVE",
"80 539 OFFCURVE",
"80 330 CURVE SMOOTH",
"80 121 OFFCURVE",
"193 -10 OFFCURVE",
"381 -10 CURVE SMOOTH",
"473 -10 OFFCURVE",
"530 14 OFFCURVE",
"569 66 CURVE",
"569 177 LINE",
"533 107 OFFCURVE",
"478 65 OFFCURVE",
"381 65 CURVE SMOOTH",
"244 65 OFFCURVE",
"164 164 OFFCURVE",
"164 330 CURVE SMOOTH",
"164 496 OFFCURVE",
"244 595 OFFCURVE",
"381 595 CURVE SMOOTH",
"478 595 OFFCURVE",
"533 553 OFFCURVE",
"569 483 CURVE",
"569 594 LINE",
"530 646 OFFCURVE",
"473 670 OFFCURVE",
"381 670 CURVE SMOOTH"
);
},
{
closed = 1;
nodes = (
"558 660 LINE",
"558 0 LINE",
"638 0 LINE",
"638 660 LINE"
);
},
{
closed = 1;
nodes = (
"600 75 LINE",
"600 0 LINE",
"1000 0 LINE",
"1000 75 LINE"
);
},
{
closed = 1;
nodes = (
"600 372 LINE",
"600 297 LINE",
"900 297 LINE",
"900 372 LINE"
);
},
{
closed = 1;
nodes = (
"600 660 LINE",
"600 585 LINE",
"985 585 LINE",
"985 660 LINE"
);
}
);
width = 1059;
}
);
leftMetricsKey = O;
rightMetricsKey = E;
unicode = 0152;
},
{
glyphname = P;
lastChange = "2014-09-22 11:44:41 +0100";
layers = (
{
background = {
paths = (
{
closed = 1;
nodes = (
"105 660 LINE",
"105 585 LINE",
"286 585 LINE SMOOTH",
"390 585 OFFCURVE",
"436 541 OFFCURVE",
"436 459 CURVE SMOOTH",
"436 377 OFFCURVE",
"390 333 OFFCURVE",
"286 333 CURVE SMOOTH",
"105 333 LINE",
"105 258 LINE",
"298 258 LINE SMOOTH",
"431 258 OFFCURVE",
"520 335 OFFCURVE",
"520 459 CURVE SMOOTH",
"520 583 OFFCURVE",
"431 660 OFFCURVE",
"298 660 CURVE SMOOTH"
);
},
{
closed = 1;
nodes = (
"65 660 LINE",
"65 0 LINE",
"145 0 LINE",
"145 660 LINE"
);
}
);
};
layerId = "40D202EF-20C6-4DB3-A3D1-28A333770DD8";
name = Light;
paths = (
{
closed = 1;
nodes = (
"120 660 LINE",
"120 646 LINE",
"316 646 LINE SMOOTH",
"447 646 OFFCURVE",
"525 582 OFFCURVE",
"525 475 CURVE SMOOTH",
"525 368 OFFCURVE",
"447 305 OFFCURVE",
"316 305 CURVE SMOOTH",
"120 305 LINE",
"120 291 LINE",
"316 291 LINE SMOOTH",
"457 291 OFFCURVE",
"541 359 OFFCURVE",
"541 475 CURVE SMOOTH",
"541 591 OFFCURVE",
"457 660 OFFCURVE",
"316 660 CURVE SMOOTH"
);
},
{
closed = 1;
nodes = (
"112 660 LINE",
"112 0 LINE",
"128 0 LINE",
"128 660 LINE"
);
}
);
width = 609;
},
{
layerId = "90FEB760-6DE5-46E5-A8E9-582C63BAB3AD";
name = Regular;
paths = (
{
closed = 1;
nodes = (
"150 660 LINE",
"150 585 LINE",
"331 585 LINE SMOOTH",
"435 585 OFFCURVE",
"481 541 OFFCURVE",
"481 459 CURVE SMOOTH",
"481 377 OFFCURVE",
"435 333 OFFCURVE",
"331 333 CURVE SMOOTH",
"150 333 LINE",
"150 258 LINE",
"343 258 LINE SMOOTH",
"476 258 OFFCURVE",
"565 335 OFFCURVE",
"565 459 CURVE SMOOTH",
"565 583 OFFCURVE",
"476 660 OFFCURVE",
"343 660 CURVE SMOOTH"
);
},
{
closed = 1;
nodes = (
"110 660 LINE",
"110 0 LINE",
"190 0 LINE",
"190 660 LINE"
);
}
);
width = 594;
}
);
leftMetricsKey = I;
unicode = 0050;
},
{
color = 2;
glyphname = Thorn;
lastChange = "2014-09-22 11:44:41 +0100";
layers = (
{
background = {
paths = (
{
closed = 1;
nodes = (
"152 542 LINE",
"152 467 LINE",
"339 467 LINE SMOOTH",
"443 467 OFFCURVE",
"493 425 OFFCURVE",
"493 337 CURVE SMOOTH",
"493 249 OFFCURVE",
"443 207 OFFCURVE",
"339 207 CURVE SMOOTH",
"152 207 LINE",
"152 132 LINE",
"331 132 LINE SMOOTH",
"495 132 OFFCURVE",
"577 206 OFFCURVE",
"577 337 CURVE SMOOTH",
"577 469 OFFCURVE",
"495 542 OFFCURVE",
"331 542 CURVE SMOOTH"
);
},
{
closed = 1;
nodes = (
"112 660 LINE",
"112 0 LINE",
"192 0 LINE",
"192 660 LINE"
);
}
);
};
layerId = "40D202EF-20C6-4DB3-A3D1-28A333770DD8";
name = Light;
paths = (
{
closed = 1;
nodes = (
"121 525 LINE",
"121 511 LINE",
"316 511 LINE SMOOTH",
"454 511 OFFCURVE",
"524 453 OFFCURVE",
"524 340 CURVE SMOOTH",
"524 227 OFFCURVE",
"454 169 OFFCURVE",
"316 169 CURVE SMOOTH",
"121 169 LINE",
"121 155 LINE",
"307 155 LINE SMOOTH",
"461 155 OFFCURVE",
"540 218 OFFCURVE",
"540 340 CURVE SMOOTH",
"540 462 OFFCURVE",
"461 525 OFFCURVE",
"307 525 CURVE SMOOTH"
);
},
{
closed = 1;
nodes = (
"112 660 LINE",
"112 0 LINE",
"128 0 LINE",
"128 660 LINE"
);
}
);
width = 605;
},
{
layerId = "90FEB760-6DE5-46E5-A8E9-582C63BAB3AD";
name = Regular;
paths = (
{
closed = 1;
nodes = (
"150 542 LINE",
"150 467 LINE",
"337 467 LINE SMOOTH",
"441 467 OFFCURVE",
"491 425 OFFCURVE",
"491 337 CURVE SMOOTH",
"491 249 OFFCURVE",
"441 207 OFFCURVE",
"337 207 CURVE SMOOTH",
"150 207 LINE",
"150 132 LINE",
"329 132 LINE SMOOTH",
"493 132 OFFCURVE",
"575 206 OFFCURVE",
"575 337 CURVE SMOOTH",
"575 469 OFFCURVE",
"493 542 OFFCURVE",
"329 542 CURVE SMOOTH"
);
},
{
closed = 1;
nodes = (
"110 660 LINE",
"110 0 LINE",
"190 0 LINE",
"190 660 LINE"
);
}
);
width = 655;
}
);
leftMetricsKey = H;
rightMetricsKey = O;
unicode = 00DE;
},
{
glyphname = Q;
lastChange = "2014-09-22 11:44:41 +0100";
layers = (
{
background = {
paths = (
{
closed = 1;
nodes = (
"336 20 LINE",
"334 -145 OFFCURVE",
"435 -193 OFFCURVE",
"531 -195 CURVE SMOOTH",
"598 -196 OFFCURVE",
"645 -179 OFFCURVE",
"680 -156 CURVE",
"655 -88 LINE",
"630 -111 OFFCURVE",
"585 -124 OFFCURVE",
"536 -124 CURVE SMOOTH",
"463 -124 OFFCURVE",
"400 -92 OFFCURVE",
"407 38 CURVE"
);
}
);
};
components = (
{
name = O;
transform = "{1, 0, 0, 1, 0, 0}";
}
);
layerId = "40D202EF-20C6-4DB3-A3D1-28A333770DD8";
name = Light;
paths = (
{
closed = 1;
nodes = (
"364 -4 LINE",
"369 -126 OFFCURVE",
"442 -195 OFFCURVE",
"544 -195 CURVE SMOOTH",
"593 -195 OFFCURVE",
"630 -182 OFFCURVE",
"656 -157 CURVE",
"648 -144 LINE",
"622 -171 OFFCURVE",
"583 -181 OFFCURVE",
"544 -181 CURVE SMOOTH",
"449 -181 OFFCURVE",
"383 -120 OFFCURVE",
"378 -4 CURVE"
);
}
);
width = 732;
},
{
components = (
{
name = O;
transform = "{1, 0, 0, 1, 0, 0}";
}
);
layerId = "90FEB760-6DE5-46E5-A8E9-582C63BAB3AD";
name = Regular;
paths = (
{
closed = 1;
nodes = (
"336 20 LINE",
"334 -145 OFFCURVE",
"435 -193 OFFCURVE",
"531 -195 CURVE SMOOTH",
"598 -196 OFFCURVE",
"645 -179 OFFCURVE",
"680 -156 CURVE",
"655 -88 LINE",
"630 -111 OFFCURVE",
"585 -124 OFFCURVE",
"536 -124 CURVE SMOOTH",
"463 -124 OFFCURVE",
"400 -92 OFFCURVE",
"407 38 CURVE"
);
}
);
width = 772;
}
);
leftMetricsKey = O;
rightMetricsKey = o;
unicode = 0051;
},
{
glyphname = R;
lastChange = "2014-09-22 11:44:41 +0100";
layers = (
{
anchors = (
{
name = bottom;
position = "{359, 0}";
},
{
name = top;
position = "{315, 660}";
}
);
background = {
anchors = (
{
name = top;
position = "{336, 660}";
},
{
name = bottom;
position = "{369, 0}";
}
);
paths = (
{
closed = 1;
nodes = (
"152 660 LINE",
"152 585 LINE",
"361 585 LINE SMOOTH",
"455 585 OFFCURVE",
"501 546 OFFCURVE",
"501 467 CURVE SMOOTH",
"501 388 OFFCURVE",
"455 349 OFFCURVE",
"361 349 CURVE SMOOTH",
"152 349 LINE",
"152 274 LINE",
"362 274 LINE SMOOTH",
"496 274 OFFCURVE",
"585 348 OFFCURVE",
"585 467 CURVE SMOOTH",
"585 586 OFFCURVE",
"496 660 OFFCURVE",
"362 660 CURVE SMOOTH"
);
},
{
closed = 1;
nodes = (
"112 660 LINE",
"112 0 LINE",
"192 0 LINE",
"192 660 LINE"
);
},
{
closed = 1;
nodes = (
"340 289 LINE",
"530 0 LINE",
"625 0 LINE",
"407 333 LINE"
);
}
);
};
layerId = "40D202EF-20C6-4DB3-A3D1-28A333770DD8";
name = Light;
paths = (
{
closed = 1;
nodes = (
"120 660 LINE",
"120 646 LINE",
"351 646 LINE SMOOTH",
"472 646 OFFCURVE",
"544 584 OFFCURVE",
"544 480 CURVE SMOOTH",
"544 376 OFFCURVE",
"472 314 OFFCURVE",
"351 314 CURVE SMOOTH",
"120 314 LINE",
"120 300 LINE",
"351 300 LINE SMOOTH",
"480 300 OFFCURVE",
"560 368 OFFCURVE",
"560 480 CURVE SMOOTH",
"560 592 OFFCURVE",
"480 660 OFFCURVE",
"351 660 CURVE SMOOTH"
);
},
{
closed = 1;
nodes = (
"112 660 LINE",
"112 0 LINE",
"128 0 LINE",
"128 660 LINE"
);
},
{
closed = 1;
nodes = (
"369 304 LINE",
"571 0 LINE",
"589 0 LINE",
"382 314 LINE"
);
}
);
width = 680;
},
{
anchors = (
{
name = bottom;
position = "{367, 0}";
},
{
name = top;
position = "{334, 660}";
}
);
layerId = "90FEB760-6DE5-46E5-A8E9-582C63BAB3AD";
name = Regular;
paths = (
{
closed = 1;
nodes = (
"150 660 LINE",
"150 585 LINE",
"359 585 LINE SMOOTH",
"453 585 OFFCURVE",
"499 546 OFFCURVE",
"499 467 CURVE SMOOTH",
"499 388 OFFCURVE",
"453 349 OFFCURVE",
"359 349 CURVE SMOOTH",
"150 349 LINE",
"150 274 LINE",
"360 274 LINE SMOOTH",
"494 274 OFFCURVE",
"583 348 OFFCURVE",
"583 467 CURVE SMOOTH",
"583 586 OFFCURVE",
"494 660 OFFCURVE",
"360 660 CURVE SMOOTH"
);
},
{
closed = 1;
nodes = (
"110 660 LINE",
"110 0 LINE",
"190 0 LINE",
"190 660 LINE"
);
},
{
closed = 1;
nodes = (
"338 289 LINE",
"528 0 LINE",
"623 0 LINE",
"405 333 LINE"
);
}
);
width = 659;
}
);
leftMetricsKey = I;
unicode = 0052;
},
{
glyphname = S;
lastChange = "2014-09-22 11:44:41 +0100";
layers = (
{
anchors = (
{
name = bottom;
position = "{367, 0}";
},
{
name = top;
position = "{357, 742}";
}
);
background = {
anchors = (
{
name = top;
position = "{325, 660}";
},
{
name = bottom;
position = "{358, 0}";
}
);
paths = (
{
closed = 1;
nodes = (
"200 670 OFFCURVE",
"107 580 OFFCURVE",
"107 474 CURVE SMOOTH",
"107 370 OFFCURVE",
"176 321 OFFCURVE",
"329 293 CURVE SMOOTH",
"502 260 OFFCURVE",
"531 230 OFFCURVE",
"531 171 CURVE SMOOTH",
"531 103 OFFCURVE",
"463 65 OFFCURVE",
"361 65 CURVE SMOOTH",
"266 65 OFFCURVE",
"175 123 OFFCURVE",
"162 203 CURVE",
"81 161 LINE",
"120 60 OFFCURVE",
"219 -10 OFFCURVE",
"359 -10 CURVE SMOOTH",
"513 -10 OFFCURVE",
"614 65 OFFCURVE",
"614 178 CURVE SMOOTH",
"614 282 OFFCURVE",
"550 333 OFFCURVE",
"385 363 CURVE SMOOTH",
"228 392 OFFCURVE",
"191 423 OFFCURVE",
"191 483 CURVE SMOOTH",
"191 546 OFFCURVE",
"249 595 OFFCURVE",
"354 595 CURVE SMOOTH",
"451 595 OFFCURVE",
"499 561 OFFCURVE",
"539 474 CURVE",
"608 530 LINE",
"557 622 OFFCURVE",
"474 670 OFFCURVE",
"353 670 CURVE SMOOTH"
);
},
{
closed = 1;
nodes = (
"207 690 OFFCURVE",
"120 604 OFFCURVE",
"120 502 CURVE",
"120 405 OFFCURVE",
"180 359 OFFCURVE",
"335 330 CURVE",
"542 290 OFFCURVE",
"586 244 OFFCURVE",
"586 161 CURVE",
"586 62 OFFCURVE",
"491 10 OFFCURVE",
"363 10 CURVE",
"260 10 OFFCURVE",
"160 65 OFFCURVE",
"122 148 CURVE",
"100 136 LINE",
"144 47 OFFCURVE",
"234 -10 OFFCURVE",
"361 -10 CURVE",
"513 -10 OFFCURVE",
"606 62 OFFCURVE",
"606 169 CURVE",
"606 267 OFFCURVE",
"550 314 OFFCURVE",
"383 345 CURVE",
"195 381 OFFCURVE",
"140 426 OFFCURVE",
"140 512 CURVE",
"140 601 OFFCURVE",
"221 670 OFFCURVE",
"356 670 CURVE",
"459 670 OFFCURVE",
"525 632 OFFCURVE",
"571 556 CURVE",
"590 572 LINE",
"539 651 OFFCURVE",
"465 690 OFFCURVE",
"355 690 CURVE"
);
}
);
};
layerId = "40D202EF-20C6-4DB3-A3D1-28A333770DD8";
name = Light;
paths = (
{
closed = 1;
nodes = (
"203 670 OFFCURVE",
"116 586 OFFCURVE",
"116 492 CURVE SMOOTH",
"116 242 OFFCURVE",
"586 390 OFFCURVE",
"586 160 CURVE SMOOTH",
"586 60 OFFCURVE",
"487 4 OFFCURVE",
"365 4 CURVE SMOOTH",
"238 4 OFFCURVE",
"140 64 OFFCURVE",
"116 174 CURVE",
"101 166 LINE",
"129 52 OFFCURVE",
"230 -10 OFFCURVE",
"365 -10 CURVE SMOOTH",
"509 -10 OFFCURVE",
"602 60 OFFCURVE",
"602 160 CURVE SMOOTH",
"602 410 OFFCURVE",
"132 258 OFFCURVE",
"132 492 CURVE SMOOTH",
"132 584 OFFCURVE",
"217 656 OFFCURVE",
"351 656 CURVE SMOOTH",
"471 656 OFFCURVE",
"552 610 OFFCURVE",
"579 507 CURVE",
"592 517 LINE",
"561 623 OFFCURVE",
"476 670 OFFCURVE",
"351 670 CURVE SMOOTH"
);
}
);
width = 698;
},
{
anchors = (
{
name = bottom;
position = "{358, 0}";
},
{
name = top;
position = "{325, 660}";
}
);
layerId = "90FEB760-6DE5-46E5-A8E9-582C63BAB3AD";
name = Regular;
paths = (
{
closed = 1;
nodes = (
"166 670 OFFCURVE",
"73 580 OFFCURVE",
"73 474 CURVE SMOOTH",
"73 224 OFFCURVE",
"497 345 OFFCURVE",
"497 174 CURVE SMOOTH",
"497 103 OFFCURVE",
"429 65 OFFCURVE",
"327 65 CURVE SMOOTH",
"232 65 OFFCURVE",
"141 123 OFFCURVE",
"128 203 CURVE",
"47 161 LINE",
"86 60 OFFCURVE",
"185 -10 OFFCURVE",
"325 -10 CURVE SMOOTH",
"479 -10 OFFCURVE",
"580 65 OFFCURVE",
"580 178 CURVE SMOOTH",
"580 433 OFFCURVE",
"157 305 OFFCURVE",
"157 483 CURVE SMOOTH",
"157 546 OFFCURVE",
"215 595 OFFCURVE",
"320 595 CURVE SMOOTH",
"417 595 OFFCURVE",
"465 561 OFFCURVE",
"505 474 CURVE",
"574 530 LINE",
"523 622 OFFCURVE",
"440 670 OFFCURVE",
"319 670 CURVE SMOOTH"
);
}
);
width = 635;
}
);
unicode = 0053;
},
{
glyphname = T;
lastChange = "2014-09-22 11:44:41 +0100";
layers = (
{
anchors = (
{
name = bottom;
position = "{273, 0}";
},
{
name = center;
position = "{281, 371}";
},
{
name = top;
position = "{281, 660}";
}
);
background = {
anchors = (
{
name = center;
position = "{248, 330}";
},
{
name = bottom;
position = "{193, 0}";
},
{
name = top;
position = "{248, 660}";
}
);
paths = (
{
closed = 1;
nodes = (
"208 660 LINE",
"208 0 LINE",
"288 0 LINE",
"288 660 LINE"
);
},
{
closed = 1;
nodes = (
"-23 660 LINE",
"-23 585 LINE",
"518 585 LINE",
"518 660 LINE"
);
}
);
};
layerId = "40D202EF-20C6-4DB3-A3D1-28A333770DD8";
name = Light;
paths = (
{
closed = 1;
nodes = (
"273 653 LINE",
"273 0 LINE",
"289 0 LINE",
"289 653 LINE"
);
},
{
closed = 1;
nodes = (
"19 660 LINE",
"19 646 LINE",
"542 646 LINE",
"542 660 LINE"
);
}
);
width = 561;
},
{
anchors = (
{
name = bottom;
position = "{273, 0}";
},
{
name = center;
position = "{328, 330}";
},
{
name = top;
position = "{328, 660}";
}
);
layerId = "90FEB760-6DE5-46E5-A8E9-582C63BAB3AD";
name = Regular;
paths = (
{
closed = 1;
nodes = (
"288 660 LINE",
"288 0 LINE",
"368 0 LINE",
"368 660 LINE"
);
},
{
closed = 1;
nodes = (
"57 660 LINE",
"57 585 LINE",
"598 585 LINE",
"598 660 LINE"
);
}
);
width = 655;
}
);
unicode = 0054;
},
{
color = 0;
glyphname = Tcedilla;
lastChange = "2014-09-22 11:44:41 +0100";
layers = (
{
background = {
paths = (
{
closed = 1;
nodes = (
"347 -32 OFFCURVE",
"368 -55 OFFCURVE",
"368 -97 CURVE SMOOTH",
"368 -132 OFFCURVE",
"343 -152 OFFCURVE",
"311 -152 CURVE SMOOTH",
"283 -152 OFFCURVE",
"258 -140 OFFCURVE",
"242 -123 CURVE",
"212 -180 LINE",
"240 -205 OFFCURVE",
"275 -215 OFFCURVE",
"322 -215 CURVE SMOOTH",
"384 -215 OFFCURVE",
"437 -180 OFFCURVE",
"437 -108 CURVE SMOOTH",
"437 -49 OFFCURVE",
"405 -4 OFFCURVE",
"317 29 CURVE",
"269 3 LINE"
);
}
);
};
components = (
{
name = T;
transform = "{1, 0, 0, 1, 0, 0}";
}
);
layerId = "40D202EF-20C6-4DB3-A3D1-28A333770DD8";
name = Light;
paths = (
{
closed = 1;
nodes = (
"431 -83 OFFCURVE",
"441 -109 OFFCURVE",
"441 -140 CURVE",
"441 -198 OFFCURVE",
"396 -234 OFFCURVE",
"342 -234 CURVE",
"321 -234 OFFCURVE",
"299 -228 OFFCURVE",
"280 -220 CURVE",
"277 -225 LINE",
"297 -236 OFFCURVE",
"320 -240 OFFCURVE",
"354 -240 CURVE",
"411 -240 OFFCURVE",
"447 -199 OFFCURVE",
"447 -152 CURVE",
"447 -118 OFFCURVE",
"431 -81 OFFCURVE",
"389 -59 CURVE",
"407 -58 LINE"
);
}
);
width = 721;
},
{
components = (
{
name = T;
transform = "{1, 0, 0, 1, 0, 0}";
}
);
layerId = "90FEB760-6DE5-46E5-A8E9-582C63BAB3AD";
name = Regular;
paths = (
{
closed = 1;
nodes = (
"351 -39 OFFCURVE",
"368 -59 OFFCURVE",
"368 -97 CURVE SMOOTH",
"368 -132 OFFCURVE",
"343 -152 OFFCURVE",
"311 -152 CURVE SMOOTH",
"283 -152 OFFCURVE",
"258 -140 OFFCURVE",
"242 -123 CURVE",
"212 -180 LINE",
"240 -205 OFFCURVE",
"275 -215 OFFCURVE",
"322 -215 CURVE SMOOTH",
"394 -215 OFFCURVE",
"439 -163 OFFCURVE",
"439 -108 CURVE SMOOTH",
"439 -68 OFFCURVE",
"418 -21 OFFCURVE",
"361 4 CURVE",
"288 0 LINE"
);
}
);
width = 655;
}
);
unicode = 0162;
},
{
glyphname = U;
lastChange = "2014-09-22 11:44:41 +0100";
layers = (
{
anchors = (
{
name = ogonek;
position = "{438, 0}";
},
{
name = top;
position = "{350, 742}";
}
);
background = {
anchors = (
{
name = ogonek;
position = "{394, 0}";
},
{
name = top;
position = "{314, 660}";
}
);
paths = (
{
closed = 1;
nodes = (
"528 660 LINE",
"528 266 LINE SMOOTH",
"528 128 OFFCURVE",
"472 65 OFFCURVE",
"349 65 CURVE SMOOTH",
"226 65 OFFCURVE",
"170 128 OFFCURVE",
"170 266 CURVE SMOOTH",
"170 660 LINE",
"90 660 LINE",
"90 246 LINE SMOOTH",
"90 76 OFFCURVE",
"183 -10 OFFCURVE",
"349 -10 CURVE SMOOTH",
"516 -10 OFFCURVE",
"608 76 OFFCURVE",
"608 246 CURVE SMOOTH",
"608 660 LINE"
);
}
);
};
layerId = "40D202EF-20C6-4DB3-A3D1-28A333770DD8";
name = Light;
paths = (
{
closed = 1;
nodes = (
"583 660 LINE",
"583 235 LINE SMOOTH",
"583 88 OFFCURVE",
"496 4 OFFCURVE",
"350 4 CURVE SMOOTH",
"204 4 OFFCURVE",
"117 88 OFFCURVE",
"117 235 CURVE SMOOTH",
"117 660 LINE",
"101 660 LINE",
"101 235 LINE SMOOTH",
"101 78 OFFCURVE",
"194 -10 OFFCURVE",
"350 -10 CURVE SMOOTH",
"506 -10 OFFCURVE",
"599 78 OFFCURVE",
"599 235 CURVE SMOOTH",
"599 660 LINE"
);
}
);
width = 700;
},
{
anchors = (
{
name = ogonek;
position = "{441, 0}";
},
{
name = top;
position = "{361, 660}";
}
);
layerId = "90FEB760-6DE5-46E5-A8E9-582C63BAB3AD";
name = Regular;
paths = (
{
closed = 1;
nodes = (
"540 660 LINE",
"540 266 LINE SMOOTH",
"540 128 OFFCURVE",
"484 65 OFFCURVE",
"361 65 CURVE SMOOTH",
"238 65 OFFCURVE",
"182 128 OFFCURVE",
"182 266 CURVE SMOOTH",
"182 660 LINE",
"102 660 LINE",
"102 246 LINE SMOOTH",
"102 76 OFFCURVE",
"195 -10 OFFCURVE",
"361 -10 CURVE SMOOTH",
"528 -10 OFFCURVE",
"620 76 OFFCURVE",
"620 246 CURVE SMOOTH",
"620 660 LINE"
);
}
);
width = 722;
}
);
unicode = 0055;
},
{
color = 0;
glyphname = Uogonek;
lastChange = "2014-09-22 11:44:41 +0100";
layers = (
{
background = {
paths = (
{
closed = 1;
nodes = (
"455 29 LINE",
"362 -4 OFFCURVE",
"292 -38 OFFCURVE",
"292 -122 CURVE SMOOTH",
"292 -190 OFFCURVE",
"339 -230 OFFCURVE",
"420 -230 CURVE SMOOTH",
"465 -230 OFFCURVE",
"506 -215 OFFCURVE",
"526 -200 CURVE",
"506 -144 LINE",
"487 -156 OFFCURVE",
"465 -167 OFFCURVE",
"429 -167 CURVE SMOOTH",
"393 -167 OFFCURVE",
"363 -144 OFFCURVE",
"363 -111 CURVE SMOOTH",
"363 -66 OFFCURVE",
"404 -36 OFFCURVE",
"501 0 CURVE"
);
}
);
};
components = (
{
name = U;
transform = "{1, 0, 0, 1, 0, 0}";
}
);
layerId = "40D202EF-20C6-4DB3-A3D1-28A333770DD8";
name = Light;
paths = (
{
closed = 1;
nodes = (
"518 -4 LINE",
"405 -59 OFFCURVE",
"357 -104 OFFCURVE",
"357 -168 CURVE",
"357 -226 OFFCURVE",
"392 -257 OFFCURVE",
"462 -257 CURVE",
"492 -257 OFFCURVE",
"517 -251 OFFCURVE",
"536 -242 CURVE",
"535 -240 LINE",
"518 -247 OFFCURVE",
"497 -251 OFFCURVE",
"472 -251 CURVE",
"414 -251 OFFCURVE",
"363 -212 OFFCURVE",
"363 -156 CURVE",
"363 -106 OFFCURVE",
"405 -61 OFFCURVE",
"508 3 CURVE"
);
}
);
width = 794;
},
{
components = (
{
name = U;
transform = "{1, 0, 0, 1, 0, 0}";
}
);
layerId = "90FEB760-6DE5-46E5-A8E9-582C63BAB3AD";
name = Regular;
paths = (
{
closed = 1;
nodes = (
"473 58 LINE",
"352 2 OFFCURVE",
"292 -48 OFFCURVE",
"292 -122 CURVE SMOOTH",
"292 -190 OFFCURVE",
"339 -230 OFFCURVE",
"420 -230 CURVE SMOOTH",
"465 -230 OFFCURVE",
"506 -215 OFFCURVE",
"526 -200 CURVE",
"506 -144 LINE",
"487 -156 OFFCURVE",
"465 -167 OFFCURVE",
"429 -167 CURVE SMOOTH",
"393 -167 OFFCURVE",
"363 -144 OFFCURVE",
"363 -111 CURVE SMOOTH",
"363 -76 OFFCURVE",
"404 -36 OFFCURVE",
"519 29 CURVE"
);
}
);
width = 722;
}
);
unicode = 0172;
},
{
glyphname = V;
lastChange = "2014-09-22 11:44:41 +0100";
layers = (
{
background = {
paths = (
{
closed = 1;
nodes = (
"548 660 LINE",
"305 0 LINE",
"386 0 LINE",
"634 660 LINE"
);
},
{
closed = 1;
nodes = (
"42 660 LINE",
"291 0 LINE",
"371 0 LINE",
"128 660 LINE"
);
},
{
closed = 1;
nodes = (
"598 679 LINE",
"354 1 LINE",
"368 1 LINE",
"617 679 LINE"
);
},
{
closed = 1;
nodes = (
"65 679 LINE",
"315 1 LINE",
"328 1 LINE",
"84 679 LINE"
);
}
);
};
layerId = "40D202EF-20C6-4DB3-A3D1-28A333770DD8";
name = Light;
paths = (
{
closed = 1;
nodes = (
"553 660 LINE",
"292 0 LINE",
"310 0 LINE",
"570 660 LINE"
);
},
{
closed = 1;
nodes = (
"28 660 LINE",
"288 0 LINE",
"306 0 LINE",
"45 660 LINE"
);
}
);
width = 598;
},
{
layerId = "90FEB760-6DE5-46E5-A8E9-582C63BAB3AD";
name = Regular;
paths = (
{
closed = 1;
nodes = (
"540 660 LINE",
"297 0 LINE",
"378 0 LINE",
"626 660 LINE"
);
},
{
closed = 1;
nodes = (
"34 660 LINE",
"283 0 LINE",
"363 0 LINE",
"120 660 LINE"
);
}
);
width = 660;
}
);
unicode = 0056;
},
{
glyphname = W;
lastChange = "2014-09-22 11:44:41 +0100";
layers = (
{
background = {
paths = (
{
closed = 1;
nodes = (
"17 660 LINE",
"212 0 LINE",
"281 0 LINE",
"228 208 LINE",
"103 660 LINE"
);
},
{
closed = 1;
nodes = (
"418 660 LINE",
"285 167 LINE",
"245 0 LINE",
"311 0 LINE",
"490 660 LINE"
);
},
{
closed = 1;
nodes = (
"434 660 LINE",
"614 0 LINE",
"683 0 LINE",
"641 176 LINE",
"510 660 LINE"
);
},
{
closed = 1;
nodes = (
"826 660 LINE",
"702 213 LINE",
"648 0 LINE",
"713 0 LINE",
"907 660 LINE"
);
},
{
closed = 1;
nodes = (
"18 679 LINE",
"214 1 LINE",
"217 1 LINE",
"169 195 LINE",
"38 679 LINE"
);
},
{
closed = 1;
nodes = (
"441 679 LINE",
"301 148 LINE",
"267 1 LINE",
"266 1 LINE",
"446 679 LINE"
);
},
{
closed = 1;
nodes = (
"476 679 LINE",
"657 1 LINE",
"660 1 LINE",
"623 159 LINE",
"485 679 LINE"
);
},
{
closed = 1;
nodes = (
"890 679 LINE",
"760 200 LINE",
"711 1 LINE",
"709 1 LINE",
"904 679 LINE"
);
}
);
};
layerId = "40D202EF-20C6-4DB3-A3D1-28A333770DD8";
name = Light;
paths = (
{
closed = 1;
nodes = (
"32 660 LINE",
"250 0 LINE",
"266 0 LINE",
"244 72 LINE",
"49 660 LINE"
);
},
{
closed = 1;
nodes = (
"456 660 LINE",
"272 46 LINE",
"260 0 LINE",
"274 0 LINE",
"473 660 LINE"
);
},
{
closed = 1;
nodes = (
"460 660 LINE",
"659 0 LINE",
"673 0 LINE",
"661 46 LINE",
"477 660 LINE"
);
},
{
closed = 1;
nodes = (
"884 660 LINE",
"689 72 LINE",
"667 0 LINE",
"683 0 LINE",
"901 660 LINE"
);
}
);
width = 907;
},
{
layerId = "90FEB760-6DE5-46E5-A8E9-582C63BAB3AD";
name = Regular;
paths = (
{
closed = 1;
nodes = (
"45 660 LINE",
"240 0 LINE",
"309 0 LINE",
"256 208 LINE",
"131 660 LINE"
);
},
{
closed = 1;
nodes = (
"446 660 LINE",
"313 167 LINE",
"273 0 LINE",
"339 0 LINE",
"518 660 LINE"
);
},
{
closed = 1;
nodes = (
"462 660 LINE",
"642 0 LINE",
"711 0 LINE",
"669 176 LINE",
"538 660 LINE"
);
},
{
closed = 1;
nodes = (
"854 660 LINE",
"730 213 LINE",
"676 0 LINE",
"741 0 LINE",
"935 660 LINE"
);
}
);
width = 980;
}
);
unicode = 0057;
},
{
glyphname = X;
lastChange = "2014-09-22 11:44:41 +0100";
layers = (
{
background = {
paths = (
{
closed = 1;
nodes = (
"445 660 LINE",
"258 375 LINE",
"251 375 LINE",
"-7 0 LINE",
"86 0 LINE",
"288 308 LINE",
"295 308 LINE",
"530 660 LINE"
);
},
{
closed = 1;
nodes = (
"13 660 LINE",
"444 0 LINE",
"537 0 LINE",
"108 660 LINE"
);
}
);
};
layerId = "40D202EF-20C6-4DB3-A3D1-28A333770DD8";
name = Light;
paths = (
{
closed = 1;
nodes = (
"473 660 LINE",
"265 350 LINE",
"262 347 LINE",
"30 0 LINE",
"51 0 LINE",
"274 333 LINE",
"277 337 LINE",
"494 660 LINE"
);
},
{
closed = 1;
nodes = (
"50 660 LINE",
"483 0 LINE",
"503 0 LINE",
"70 660 LINE"
);
}
);
width = 533;
},
{
layerId = "90FEB760-6DE5-46E5-A8E9-582C63BAB3AD";
name = Regular;
paths = (
{
closed = 1;
nodes = (
"487 660 LINE",
"300 375 LINE",
"293 375 LINE",
"35 0 LINE",
"128 0 LINE",
"330 308 LINE",
"337 308 LINE",
"572 660 LINE"
);
},
{
closed = 1;
nodes = (
"55 660 LINE",
"486 0 LINE",
"579 0 LINE",
"150 660 LINE"
);
}
);
width = 614;
}
);
unicode = 0058;
},
{
glyphname = Y;
lastChange = "2014-09-22 11:44:41 +0100";
layers = (
{
anchors = (
{
name = top;
position = "{268, 660}";
}
);
background = {
anchors = (
{
name = top;
position = "{267, 660}";
}
);
paths = (
{
closed = 1;
nodes = (
"448 660 LINE",
"241 294 LINE",
"307 258 LINE",
"543 660 LINE"
);
},
{
closed = 1;
nodes = (
"241 294 LINE",
"227 258 LINE",
"227 0 LINE",
"307 0 LINE",
"307 258 LINE",
"293 294 LINE"
);
},
{
closed = 1;
nodes = (
"-9 660 LINE",
"227 258 LINE",
"293 294 LINE",
"86 660 LINE"
);
},
{
closed = 1;
nodes = (
"487 679 LINE",
"284 311 LINE",
"296 305 LINE",
"510 679 LINE"
);
},
{
closed = 1;
nodes = (
"263 267 LINE",
"258 254 LINE",
"258 1 LINE",
"274 1 LINE",
"274 254 LINE",
"269 267 LINE"
);
},
{
closed = 1;
nodes = (
"21 679 LINE",
"236 305 LINE",
"248 311 LINE",
"44 679 LINE"
);
}
);
};
layerId = "40D202EF-20C6-4DB3-A3D1-28A333770DD8";
name = Light;
paths = (
{
closed = 1;
nodes = (
"489 660 LINE",
"263 264 LINE",
"276 256 LINE",
"508 660 LINE"
);
},
{
closed = 1;
nodes = (
"276 256 LINE",
"273 264 LINE",
"263 264 LINE",
"260 256 LINE",
"260 0 LINE",
"276 0 LINE"
);
},
{
closed = 1;
nodes = (
"28 660 LINE",
"260 256 LINE",
"273 264 LINE",
"47 660 LINE"
);
}
);
width = 536;
},
{
anchors = (
{
name = top;
position = "{297, 660}";
}
);
layerId = "90FEB760-6DE5-46E5-A8E9-582C63BAB3AD";
name = Regular;
paths = (
{
closed = 1;
nodes = (
"478 660 LINE",
"271 294 LINE",
"337 258 LINE",
"573 660 LINE"
);
},
{
closed = 1;
nodes = (
"337 258 LINE",
"323 294 LINE",
"271 294 LINE",
"257 258 LINE",
"257 0 LINE",
"337 0 LINE"
);
},
{
closed = 1;
nodes = (
"21 660 LINE",
"257 258 LINE",
"323 294 LINE",
"116 660 LINE"
);
}
);
width = 594;
}
);
unicode = 0059;
},
{
glyphname = Z;
lastChange = "2014-09-22 11:44:41 +0100";
layers = (
{
anchors = (
{
name = top;
position = "{296, 660}";
}
);
background = {
anchors = (
{
name = top;
position = "{285, 660}";
}
);
paths = (
{
closed = 1;
nodes = (
"35 75 LINE",
"95 29 LINE",
"541 585 LINE",
"482 632 LINE"
);
},
{
closed = 1;
nodes = (
"35 75 LINE",
"35 0 LINE",
"554 0 LINE",
"554 75 LINE"
);
},
{
closed = 1;
nodes = (
"45 660 LINE",
"45 585 LINE",
"541 585 LINE",
"541 660 LINE"
);
},
{
closed = 1;
nodes = (
"58 58 LINE",
"70 50 LINE",
"519 622 LINE",
"508 631 LINE"
);
},
{
closed = 1;
nodes = (
"46 21 LINE",
"46 1 LINE",
"545 1 LINE",
"545 21 LINE"
);
},
{
closed = 1;
nodes = (
"57 679 LINE",
"57 659 LINE",
"531 659 LINE",
"531 679 LINE"
);
}
);
};
layerId = "40D202EF-20C6-4DB3-A3D1-28A333770DD8";
name = Light;
paths = (
{
closed = 1;
nodes = (
"48 14 LINE",
"61 3 LINE",
"533 646 LINE",
"521 655 LINE"
);
},
{
closed = 1;
nodes = (
"48 14 LINE",
"48 0 LINE",
"547 0 LINE",
"547 14 LINE"
);
},
{
closed = 1;
nodes = (
"59 660 LINE",
"59 646 LINE",
"533 646 LINE",
"533 660 LINE"
);
}
);
width = 577;
},
{
anchors = (
{
name = top;
position = "{313, 660}";
}
);
layerId = "90FEB760-6DE5-46E5-A8E9-582C63BAB3AD";
name = Regular;
paths = (
{
closed = 1;
nodes = (
"63 75 LINE",
"123 29 LINE",
"569 585 LINE",
"510 632 LINE"
);
},
{
closed = 1;
nodes = (
"63 75 LINE",
"63 0 LINE",
"582 0 LINE",
"582 75 LINE"
);
},
{
closed = 1;
nodes = (
"73 660 LINE",
"73 585 LINE",
"569 585 LINE",
"569 660 LINE"
);
}
);
width = 625;
}
);
unicode = 005A;
},
{
glyphname = a;
lastChange = "2014-09-22 11:44:41 +0100";
layers = (
{
anchors = (
{
name = ogonek;
position = "{533, -1}";
},
{
name = top;
position = "{260, 500}";
}
);
background = {
anchors = (
{
name = ogonek;
position = "{522, 0}";
},
{
name = top;
position = "{260, 500}";
}
);
paths = (
{
closed = 1;
nodes = (
"155 510 OFFCURVE",
"76 462 OFFCURVE",
"50 388 CURVE",
"109 345 LINE",
"136 408 OFFCURVE",
"186 440 OFFCURVE",
"252 440 CURVE SMOOTH",
"327 440 OFFCURVE",
"369 396 OFFCURVE",
"369 330 CURVE SMOOTH",
"369 102 LINE SMOOTH",
"369 16 OFFCURVE",
"403 -10 OFFCURVE",
"462 -10 CURVE SMOOTH",
"487 -10 OFFCURVE",
"508 -5 OFFCURVE",
"522 0 CURVE",
"527 63 LINE",
"515 60 OFFCURVE",
"500 58 OFFCURVE",
"487 58 CURVE SMOOTH",
"459 58 OFFCURVE",
"449 70 OFFCURVE",
"449 94 CURVE SMOOTH",
"449 340 LINE SMOOTH",
"449 456 OFFCURVE",
"366 510 OFFCURVE",
"252 510 CURVE SMOOTH"
);
},
{
closed = 1;
nodes = (
"236 280 LINE SMOOTH",
"107 258 OFFCURVE",
"41 199 OFFCURVE",
"41 124 CURVE SMOOTH",
"41 34 OFFCURVE",
"117 -10 OFFCURVE",
"211 -10 CURVE SMOOTH",
"299 -10 OFFCURVE",
"391 42 OFFCURVE",
"391 125 CURVE",
"369 168 LINE",
"369 102 OFFCURVE",
"295 60 OFFCURVE",
"215 60 CURVE SMOOTH",
"158 60 OFFCURVE",
"124 82 OFFCURVE",
"124 124 CURVE SMOOTH",
"124 171 OFFCURVE",
"169 198 OFFCURVE",
"257 216 CURVE SMOOTH",
"415 245 LINE",
"404 308 LINE"
);
}
);
};
layerId = "40D202EF-20C6-4DB3-A3D1-28A333770DD8";
name = Light;
paths = (
{
closed = 1;
nodes = (
"166 510 OFFCURVE",
"105 471 OFFCURVE",
"74 388 CURVE",
"87 378 LINE",
"118 459 OFFCURVE",
"175 496 OFFCURVE",
"266 496 CURVE SMOOTH",
"369 496 OFFCURVE",
"425 441 OFFCURVE",
"425 345 CURVE SMOOTH",
"425 82 LINE SMOOTH",
"425 4 OFFCURVE",
"466 -10 OFFCURVE",
"497 -10 CURVE SMOOTH",
"513 -10 OFFCURVE",
"524 -7 OFFCURVE",
"533 -1 CURVE",
"534 13 LINE",
"525 6 OFFCURVE",
"511 4 OFFCURVE",
"496 4 CURVE SMOOTH",
"463 4 OFFCURVE",
"441 27 OFFCURVE",
"441 76 CURVE SMOOTH",
"441 351 LINE SMOOTH",
"441 453 OFFCURVE",
"379 510 OFFCURVE",
"266 510 CURVE SMOOTH"
);
},
{
closed = 1;
nodes = (
"248 253 LINE SMOOTH",
"118 229 OFFCURVE",
"64 187 OFFCURVE",
"64 108 CURVE SMOOTH",
"64 30 OFFCURVE",
"128 -10 OFFCURVE",
"220 -10 CURVE SMOOTH",
"318 -10 OFFCURVE",
"433 37 OFFCURVE",
"433 140 CURVE",
"425 148 LINE",
"425 44 OFFCURVE",
"303 4 OFFCURVE",
"225 4 CURVE SMOOTH",
"143 4 OFFCURVE",
"80 38 OFFCURVE",
"80 108 CURVE SMOOTH",
"80 175 OFFCURVE",
"128 217 OFFCURVE",
"259 241 CURVE SMOOTH",
"432 273 LINE",
"430 287 LINE"
);
}
);
width = 540;
},
{
anchors = (
{
name = ogonek;
position = "{541, 0}";
},
{
name = top;
position = "{279, 500}";
}
);
layerId = "90FEB760-6DE5-46E5-A8E9-582C63BAB3AD";
name = Regular;
paths = (
{
closed = 1;
nodes = (
"174 510 OFFCURVE",
"95 462 OFFCURVE",
"69 388 CURVE",
"128 345 LINE",
"155 408 OFFCURVE",
"205 440 OFFCURVE",
"271 440 CURVE SMOOTH",
"346 440 OFFCURVE",
"388 396 OFFCURVE",
"388 330 CURVE SMOOTH",
"388 102 LINE SMOOTH",
"388 16 OFFCURVE",
"422 -10 OFFCURVE",
"481 -10 CURVE SMOOTH",
"506 -10 OFFCURVE",
"527 -5 OFFCURVE",
"541 0 CURVE",
"546 63 LINE",
"534 60 OFFCURVE",
"519 58 OFFCURVE",
"506 58 CURVE SMOOTH",
"478 58 OFFCURVE",
"468 70 OFFCURVE",
"468 94 CURVE SMOOTH",
"468 340 LINE SMOOTH",
"468 456 OFFCURVE",
"385 510 OFFCURVE",
"271 510 CURVE SMOOTH"
);
},
{
closed = 1;
nodes = (
"255 280 LINE SMOOTH",
"126 258 OFFCURVE",
"60 199 OFFCURVE",
"60 124 CURVE SMOOTH",
"60 34 OFFCURVE",
"136 -10 OFFCURVE",
"230 -10 CURVE SMOOTH",
"318 -10 OFFCURVE",
"410 42 OFFCURVE",
"410 125 CURVE",
"388 168 LINE",
"388 102 OFFCURVE",
"314 60 OFFCURVE",
"234 60 CURVE SMOOTH",
"177 60 OFFCURVE",
"143 82 OFFCURVE",
"143 124 CURVE SMOOTH",
"143 171 OFFCURVE",
"188 198 OFFCURVE",
"276 216 CURVE SMOOTH",
"434 245 LINE",
"423 308 LINE"
);
}
);
width = 563;
}
);
unicode = 0061;
},
{
glyphname = amacron;
lastChange = "2014-09-22 11:44:41 +0100";
layers = (
{
background = {
paths = (
{
closed = 1;
nodes = (
"467 58 OFFCURVE",
"457 70 OFFCURVE",
"457 94 CURVE SMOOTH",
"457 340 LINE SMOOTH",
"457 456 OFFCURVE",
"368 510 OFFCURVE",
"254 510 CURVE SMOOTH",
"163 510 OFFCURVE",
"84 462 OFFCURVE",
"58 388 CURVE",
"120 344 LINE",
"147 407 OFFCURVE",
"192 440 OFFCURVE",
"258 440 CURVE SMOOTH",
"333 440 OFFCURVE",
"377 396 OFFCURVE",
"377 330 CURVE SMOOTH",
"377 308.781 LINE",
"252 283 LINE SMOOTH",
"119 257 OFFCURVE",
"49 199 OFFCURVE",
"49 124 CURVE SMOOTH",
"49 24 OFFCURVE",
"117 -10 OFFCURVE",
"225 -10 CURVE SMOOTH",
"283.635 -10 OFFCURVE",
"348.557 16.725 OFFCURVE",
"379.939 62.967 CURVE",
"389.363 7.867 OFFCURVE",
"421.092 -10 OFFCURVE",
"470 -10 CURVE SMOOTH",
"495 -10 OFFCURVE",
"516 -5 OFFCURVE",
"530 0 CURVE",
"535 63 LINE",
"523 60 OFFCURVE",
"508 58 OFFCURVE",
"495 58 CURVE SMOOTH"
);
},
{
closed = 1;
nodes = (
"168 60 OFFCURVE",
"132 83 OFFCURVE",
"132 124 CURVE SMOOTH",
"132 171 OFFCURVE",
"185 200 OFFCURVE",
"273 219 CURVE SMOOTH",
"377 241 LINE",
"377 149 LINE SMOOTH",
"377 102 OFFCURVE",
"303 60 OFFCURVE",
"223 60 CURVE SMOOTH"
);
},
{
closed = 1;
nodes = (
"94 613 LINE",
"442 613 LINE",
"442 680 LINE",
"94 680 LINE"
);
}
);
};
components = (
{
name = a;
transform = "{1, 0, 0, 1, 0, 0}";
},
{
name = macron;
transform = "{1, 0, 0, 1, -15, -62}";
}
);
layerId = "40D202EF-20C6-4DB3-A3D1-28A333770DD8";
name = Light;
width = 540;
},
{
components = (
{
name = a;
transform = "{1, 0, 0, 1, 0, 0}";
},
{
name = macron;
transform = "{1, 0, 0, 1, 29, 0}";
}
);
layerId = "90FEB760-6DE5-46E5-A8E9-582C63BAB3AD";
name = Regular;
width = 563;
}
);
unicode = 0101;
},
{
glyphname = ae;
lastChange = "2014-09-22 11:44:41 +0100";
layers = (
{
background = {
anchors = (
{
name = ogonek;
position = "{1094, 10}";
}
);
paths = (
{
closed = 1;
nodes = (
"512 510 OFFCURVE",
"444 374 OFFCURVE",
"444 247 CURVE SMOOTH",
"444 96 OFFCURVE",
"516 -10 OFFCURVE",
"659 -10 CURVE SMOOTH",
"767 -10 OFFCURVE",
"824 31 OFFCURVE",
"860 99 CURVE",
"793 134 LINE",
"776 86 OFFCURVE",
"739 60 OFFCURVE",
"664 60 CURVE SMOOTH",
"565 60 OFFCURVE",
"508 131 OFFCURVE",
"508 250 CURVE SMOOTH",
"508 369 OFFCURVE",
"568 440 OFFCURVE",
"657 440 CURVE SMOOTH",
"747 440 OFFCURVE",
"799 368 OFFCURVE",
"796 255 CURVE SMOOTH",
"795 220 LINE",
"872 220 LINE",
"872 255 LINE SMOOTH",
"872 412 OFFCURVE",
"799 510 OFFCURVE",
"658 510 CURVE SMOOTH"
);
},
{
closed = 1;
nodes = (
"220 510 OFFCURVE",
"143 465 OFFCURVE",
"114 388 CURVE",
"176 344 LINE",
"203 407 OFFCURVE",
"248 440 OFFCURVE",
"314 440 CURVE SMOOTH",
"393 440 OFFCURVE",
"437 396 OFFCURVE",
"437 330 CURVE SMOOTH",
"437 264 LINE",
"505 264 LINE",
"505 290 LINE SMOOTH",
"505 435 OFFCURVE",
"431 510 OFFCURVE",
"316 510 CURVE SMOOTH"
);
},
{
closed = 1;
nodes = (
"478 291 LINE",
"478 220 LINE",
"835 220 LINE",
"835 291 LINE"
);
},
{
closed = 1;
nodes = (
"288 273 LINE SMOOTH",
"165 257 OFFCURVE",
"105 199 OFFCURVE",
"105 124 CURVE SMOOTH",
"105 42 OFFCURVE",
"167 -10 OFFCURVE",
"265 -10 CURVE SMOOTH",
"388 -10 OFFCURVE",
"491 54 OFFCURVE",
"491 179 CURVE",
"452 198 LINE",
"452 112 OFFCURVE",
"369 60 OFFCURVE",
"279 60 CURVE SMOOTH",
"218 60 OFFCURVE",
"188 81 OFFCURVE",
"188 124 CURVE SMOOTH",
"188 171 OFFCURVE",
"221 195 OFFCURVE",
"309 209 CURVE SMOOTH",
"479 236 LINE",
"468 296 LINE"
);
}
);
};
layerId = "40D202EF-20C6-4DB3-A3D1-28A333770DD8";
name = Light;
paths = (
{
closed = 1;
nodes = (
"505 510 OFFCURVE",
"425 413 OFFCURVE",
"425 250 CURVE SMOOTH",
"425 87 OFFCURVE",
"506 -10 OFFCURVE",
"634 -10 CURVE SMOOTH",
"735 -10 OFFCURVE",
"796 35 OFFCURVE",
"827 109 CURVE",
"814 116 LINE",
"785 46 OFFCURVE",
"729 4 OFFCURVE",
"634 4 CURVE SMOOTH",
"515 4 OFFCURVE",
"440 96 OFFCURVE",
"440 250 CURVE SMOOTH",
"440 404 OFFCURVE",
"514 496 OFFCURVE",
"633 496 CURVE SMOOTH",
"760 496 OFFCURVE",
"822 419 OFFCURVE",
"822 262 CURVE SMOOTH",
"822 257 LINE",
"836 257 LINE",
"836 264 LINE SMOOTH",
"836 429 OFFCURVE",
"765 510 OFFCURVE",
"633 510 CURVE SMOOTH"
);
},
{
closed = 1;
nodes = (
"248 253 LINE SMOOTH",
"117 240 OFFCURVE",
"64 187 OFFCURVE",
"64 108 CURVE SMOOTH",
"64 30 OFFCURVE",
"128 -10 OFFCURVE",
"220 -10 CURVE SMOOTH",
"318 -10 OFFCURVE",
"436 37 OFFCURVE",
"436 180 CURVE",
"425 188 LINE",
"425 44 OFFCURVE",
"303 4 OFFCURVE",
"225 4 CURVE SMOOTH",
"143 4 OFFCURVE",
"80 38 OFFCURVE",
"80 108 CURVE SMOOTH",
"80 175 OFFCURVE",
"127 229 OFFCURVE",
"259 241 CURVE SMOOTH",
"432 257 LINE",
"430 271 LINE"
);
},
{
closed = 1;
nodes = (
"166 510 OFFCURVE",
"105 471 OFFCURVE",
"74 388 CURVE",
"87 378 LINE",
"118 459 OFFCURVE",
"175 496 OFFCURVE",
"266 496 CURVE SMOOTH",
"369 496 OFFCURVE",
"425 441 OFFCURVE",
"425 345 CURVE SMOOTH",
"425 172 LINE",
"441 178 LINE",
"441 351 LINE SMOOTH",
"441 453 OFFCURVE",
"379 510 OFFCURVE",
"266 510 CURVE SMOOTH"
);
},
{
closed = 1;
nodes = (
"433 272 LINE",
"433 257 LINE",
"831 257 LINE",
"831 272 LINE"
);
}
);
width = 886;
},
{
anchors = (
{
name = ogonek;
position = "{1094, 10}";
}
);
layerId = "90FEB760-6DE5-46E5-A8E9-582C63BAB3AD";
name = Regular;
paths = (
{
closed = 1;
nodes = (
"467 510 OFFCURVE",
"399 374 OFFCURVE",
"399 247 CURVE SMOOTH",
"399 96 OFFCURVE",
"471 -10 OFFCURVE",
"614 -10 CURVE SMOOTH",
"722 -10 OFFCURVE",
"779 31 OFFCURVE",
"815 99 CURVE",
"748 134 LINE",
"731 86 OFFCURVE",
"694 60 OFFCURVE",
"619 60 CURVE SMOOTH",
"520 60 OFFCURVE",
"463 131 OFFCURVE",
"463 250 CURVE SMOOTH",
"463 369 OFFCURVE",
"523 440 OFFCURVE",
"612 440 CURVE SMOOTH",
"702 440 OFFCURVE",
"754 368 OFFCURVE",
"751 255 CURVE SMOOTH",
"750 220 LINE",
"827 220 LINE",
"827 255 LINE SMOOTH",
"827 412 OFFCURVE",
"754 510 OFFCURVE",
"613 510 CURVE SMOOTH"
);
},
{
closed = 1;
nodes = (
"243 273 LINE SMOOTH",
"120 257 OFFCURVE",
"60 199 OFFCURVE",
"60 124 CURVE SMOOTH",
"60 42 OFFCURVE",
"122 -10 OFFCURVE",
"220 -10 CURVE SMOOTH",
"338 -10 OFFCURVE",
"434 54 OFFCURVE",
"434 179 CURVE",
"392 198 LINE",
"392 112 OFFCURVE",
"316 60 OFFCURVE",
"234 60 CURVE SMOOTH",
"173 60 OFFCURVE",
"143 81 OFFCURVE",
"143 124 CURVE SMOOTH",
"143 171 OFFCURVE",
"176 195 OFFCURVE",
"264 209 CURVE SMOOTH",
"434 236 LINE",
"423 296 LINE"
);
},
{
closed = 1;
nodes = (
"175 510 OFFCURVE",
"98 465 OFFCURVE",
"69 388 CURVE",
"131 344 LINE",
"158 407 OFFCURVE",
"203 440 OFFCURVE",
"269 440 CURVE SMOOTH",
"348 440 OFFCURVE",
"392 396 OFFCURVE",
"392 330 CURVE SMOOTH",
"392 181 LINE",
"460 188 LINE",
"460 290 LINE SMOOTH",
"460 435 OFFCURVE",
"386 510 OFFCURVE",
"271 510 CURVE SMOOTH"
);
},
{
closed = 1;
nodes = (
"433 291 LINE",
"433 220 LINE",
"790 220 LINE",
"790 291 LINE"
);
}
);
width = 888;
}
);
leftMetricsKey = a;
rightMetricsKey = e;
unicode = 00E6;
},
{
glyphname = b;
lastChange = "2014-09-22 11:44:41 +0100";
layers = (
{
components = (
{
name = bowl;
transform = "{-1, 0, 0, 1, 671, 0}";
}
);
layerId = "40D202EF-20C6-4DB3-A3D1-28A333770DD8";
name = Light;
paths = (
{
closed = 1;
nodes = (
"98 730 LINE",
"98 101 LINE",
"98 0 LINE",
"114 0 LINE",
"114 173 LINE",
"114 730 LINE"
);
}
);
width = 621;
},
{
components = (
{
name = bowl;
transform = "{-1, 0, 0, 1, 648, 0}";
}
);
layerId = "90FEB760-6DE5-46E5-A8E9-582C63BAB3AD";
name = Regular;
paths = (
{
closed = 1;
nodes = (
"94 730 LINE",
"94 117 LINE",
"94 0 LINE",
"159 0 LINE",
"174 127 LINE",
"174 730 LINE"
);
}
);
width = 630;
}
);
leftMetricsKey = n;
rightMetricsKey = o;
unicode = 0062;
},
{
glyphname = c;
lastChange = "2014-09-22 11:44:41 +0100";
layers = (
{
anchors = (
{
name = bottom;
position = "{301, 0}";
},
{
name = top;
position = "{304, 500}";
}
);
background = {
anchors = (
{
name = top;
position = "{314, 500}";
},
{
name = bottom;
position = "{314, 0}";
}
);
paths = (
{
closed = 1;
nodes = (
"163 510 OFFCURVE",
"72 412 OFFCURVE",
"72 250 CURVE SMOOTH",
"72 88 OFFCURVE",
"163 -10 OFFCURVE",
"314 -10 CURVE SMOOTH",
"420 -10 OFFCURVE",
"492 46 OFFCURVE",
"524 138 CURVE",
"452 163 LINE",
"432 97 OFFCURVE",
"385 60 OFFCURVE",
"312 60 CURVE SMOOTH",
"212 60 OFFCURVE",
"152 131 OFFCURVE",
"152 250 CURVE SMOOTH",
"152 369 OFFCURVE",
"212 440 OFFCURVE",
"312 440 CURVE SMOOTH",
"377 440 OFFCURVE",
"422 404 OFFCURVE",
"443 341 CURVE",
"519 377 LINE",
"484 459 OFFCURVE",
"417 510 OFFCURVE",
"314 510 CURVE SMOOTH"
);
},
{
closed = 1;
nodes = (
"158 510 OFFCURVE",
"72 416 OFFCURVE",
"72 250 CURVE",
"72 84 OFFCURVE",
"158 -10 OFFCURVE",
"302 -10 CURVE",
"390 -10 OFFCURVE",
"453 32 OFFCURVE",
"488 106 CURVE",
"476 110 LINE",
"445 43 OFFCURVE",
"385 4 OFFCURVE",
"300 4 CURVE",
"167 4 OFFCURVE",
"88 101 OFFCURVE",
"88 250 CURVE",
"88 399 OFFCURVE",
"167 496 OFFCURVE",
"300 496 CURVE",
"376 496 OFFCURVE",
"432 460 OFFCURVE",
"463 398 CURVE",
"482 407 LINE",
"446 474 OFFCURVE",
"389 510 OFFCURVE",
"302 510 CURVE"
);
}
);
};
guideLines = (
{
angle = 90;
position = "{503, 263}";
}
);
layerId = "40D202EF-20C6-4DB3-A3D1-28A333770DD8";
name = Light;
paths = (
{
closed = 1;
nodes = (
"159 510 OFFCURVE",
"74 412 OFFCURVE",
"74 250 CURVE SMOOTH",
"74 88 OFFCURVE",
"156 -10 OFFCURVE",
"301 -10 CURVE SMOOTH",
"402 -10 OFFCURVE",
"488 47 OFFCURVE",
"505 137 CURVE",
"491 142 LINE",
"477 57 OFFCURVE",
"394 4 OFFCURVE",
"301 4 CURVE SMOOTH",
"166 4 OFFCURVE",
"90 97 OFFCURVE",
"90 250 CURVE SMOOTH",
"90 403 OFFCURVE",
"169 496 OFFCURVE",
"304 496 CURVE SMOOTH",
"398 496 OFFCURVE",
"465 449 OFFCURVE",
"487 366 CURVE",
"501 373 LINE",
"477 461 OFFCURVE",
"403 510 OFFCURVE",
"304 510 CURVE SMOOTH"
);
}
);
width = 556;
},
{
anchors = (
{
name = bottom;
position = "{304, 0}";
},
{
name = top;
position = "{304, 500}";
}
);
layerId = "90FEB760-6DE5-46E5-A8E9-582C63BAB3AD";
name = Regular;
paths = (
{
closed = 1;
nodes = (
"153 510 OFFCURVE",
"62 412 OFFCURVE",
"62 250 CURVE SMOOTH",
"62 88 OFFCURVE",
"153 -10 OFFCURVE",
"304 -10 CURVE SMOOTH",
"410 -10 OFFCURVE",
"482 46 OFFCURVE",
"514 138 CURVE",
"442 163 LINE",
"422 97 OFFCURVE",
"375 60 OFFCURVE",
"302 60 CURVE SMOOTH",
"202 60 OFFCURVE",
"142 131 OFFCURVE",
"142 250 CURVE SMOOTH",
"142 369 OFFCURVE",
"202 440 OFFCURVE",
"302 440 CURVE SMOOTH",
"367 440 OFFCURVE",
"412 404 OFFCURVE",
"433 341 CURVE",
"509 377 LINE",
"474 459 OFFCURVE",
"407 510 OFFCURVE",
"304 510 CURVE SMOOTH"
);
}
);
width = 565;
}
);
leftMetricsKey = o;
unicode = 0063;
},
{
glyphname = d;
lastChange = "2014-09-22 11:44:41 +0100";
layers = (
{
anchors = (
{
name = center;
position = "{324, 281}";
},
{
name = topright;
position = "{661, 821}";
}
);
background = {
components = (
{
disableAlignment = 1;
name = n;
transform = "{-1, 0, 0, 1, 599, 0}";
},
{
name = u;
transform = "{1, 0, 0, 1, -26, 0}";
}
);
};
components = (
{
name = bowl;
transform = "{1, 0, 0, 1, -50, 0}";
}
);
layerId = "40D202EF-20C6-4DB3-A3D1-28A333770DD8";
name = Light;
paths = (
{
closed = 1;
nodes = (
"507 730 LINE",
"507 184 LINE",
"507 0 LINE",
"523 0 LINE",
"523 101 LINE",
"523 730 LINE"
);
}
);
width = 621;
},
{
anchors = (
{
name = center;
position = "{322, 250}";
},
{
name = topright;
position = "{628, 730}";
}
);
components = (
{
name = bowl;
transform = "{1, 0, 0, 1, -18, 0}";
}
);
layerId = "90FEB760-6DE5-46E5-A8E9-582C63BAB3AD";
name = Regular;
paths = (
{
closed = 1;
nodes = (
"456 730 LINE",
"456 127 LINE",
"471 0 LINE",
"536 0 LINE",
"536 117 LINE",
"536 730 LINE"
);
}
);
width = 630;
}
);
leftMetricsKey = q;
rightMetricsKey = "|n";
unicode = 0064;
},
{
color = 0;
glyphname = eth;
lastChange = "2014-09-22 11:44:41 +0100";
layers = (
{
background = {
paths = (
{
closed = 1;
nodes = (
"96 735 LINE",
"76 672 LINE",
"117 672 LINE SMOOTH",
"307 672 OFFCURVE",
"454 566 OFFCURVE",
"454 238 CURVE SMOOTH",
"454 144 OFFCURVE",
"393 60 OFFCURVE",
"282 60 CURVE SMOOTH",
"186 60 OFFCURVE",
"125 126 OFFCURVE",
"125 238 CURVE SMOOTH",
"125 348 OFFCURVE",
"186 415 OFFCURVE",
"287 415 CURVE SMOOTH",
"393 415 OFFCURVE",
"454 348 OFFCURVE",
"454 238 CURVE",
"473 238 LINE",
"473 392 OFFCURVE",
"414 485 OFFCURVE",
"276 485 CURVE SMOOTH",
"143 485 OFFCURVE",
"42 392 OFFCURVE",
"42 238 CURVE SMOOTH",
"42 83 OFFCURVE",
"133 -10 OFFCURVE",
"278 -10 CURVE SMOOTH",
"450 -10 OFFCURVE",
"532 113 OFFCURVE",
"532 288 CURVE SMOOTH",
"532 523 OFFCURVE",
"401 735 OFFCURVE",
"143 735 CURVE SMOOTH"
);
},
{
closed = 1;
nodes = (
"187 580 LINE",
"225 530 LINE",
"473 710 LINE",
"434 758 LINE"
);
},
{
closed = 1;
nodes = (
"115 763 LINE",
"113 757 LINE",
"111 757 LINE",
"337 757 OFFCURVE",
"517 625 OFFCURVE",
"517 237 CURVE",
"517 117 OFFCURVE",
"438 4 OFFCURVE",
"292 4 CURVE",
"165 4 OFFCURVE",
"83 95 OFFCURVE",
"83 237 CURVE",
"83 376 OFFCURVE",
"165 468 OFFCURVE",
"298 468 CURVE",
"425 468 OFFCURVE",
"504 390 OFFCURVE",
"516 269 CURVE",
"465 269 LINE",
"458 408 OFFCURVE",
"403 482 OFFCURVE",
"285 482 CURVE",
"159 482 OFFCURVE",
"64 392 OFFCURVE",
"64 237 CURVE",
"64 79 OFFCURVE",
"149 -10 OFFCURVE",
"288 -10 CURVE",
"452 -10 OFFCURVE",
"531 109 OFFCURVE",
"531 293 CURVE",
"531 544 OFFCURVE",
"397 763 OFFCURVE",
"139 763 CURVE"
);
},
{
closed = 1;
nodes = (
"235 615 LINE",
"237 612 LINE",
"453 773 LINE",
"452 774 LINE"
);
}
);
};
layerId = "40D202EF-20C6-4DB3-A3D1-28A333770DD8";
name = Light;
paths = (
{
closed = 1;
nodes = (
"103 735 LINE",
"97 721 LINE",
"141 721 LINE SMOOTH",
"370 721 OFFCURVE",
"515 558 OFFCURVE",
"515 257 CURVE SMOOTH",
"515 106 OFFCURVE",
"429 4 OFFCURVE",
"300 4 CURVE SMOOTH",
"163 4 OFFCURVE",
"80 95 OFFCURVE",
"80 237 CURVE SMOOTH",
"80 379 OFFCURVE",
"164 471 OFFCURVE",
"292 471 CURVE SMOOTH",
"429 471 OFFCURVE",
"503 381 OFFCURVE",
"515 257 CURVE",
"518 257 LINE",
"511 406 OFFCURVE",
"412 485 OFFCURVE",
"292 485 CURVE SMOOTH",
"155 485 OFFCURVE",
"64 388 OFFCURVE",
"64 237 CURVE SMOOTH",
"64 88 OFFCURVE",
"154 -10 OFFCURVE",
"300 -10 CURVE SMOOTH",
"438 -10 OFFCURVE",
"527 93 OFFCURVE",
"527 273 CURVE SMOOTH",
"527 547 OFFCURVE",
"384 735 OFFCURVE",
"139 735 CURVE SMOOTH"
);
},
{
closed = 1;
nodes = (
"204 573 LINE",
"213 561 LINE",
"461 741 LINE",
"452 752 LINE"
);
}
);
width = 589;
},
{
layerId = "90FEB760-6DE5-46E5-A8E9-582C63BAB3AD";
name = Regular;
paths = (
{
closed = 1;
nodes = (
"112 735 LINE",
"92 670 LINE",
"183 674 LINE SMOOTH",
"333 681 OFFCURVE",
"470 576 OFFCURVE",
"470 238 CURVE SMOOTH",
"470 144 OFFCURVE",
"409 60 OFFCURVE",
"298 60 CURVE SMOOTH",
"202 60 OFFCURVE",
"141 126 OFFCURVE",
"141 238 CURVE SMOOTH",
"141 348 OFFCURVE",
"202 415 OFFCURVE",
"303 415 CURVE SMOOTH",
"409 415 OFFCURVE",
"470 348 OFFCURVE",
"470 238 CURVE",
"489 238 LINE",
"489 392 OFFCURVE",
"430 485 OFFCURVE",
"292 485 CURVE SMOOTH",
"159 485 OFFCURVE",
"58 392 OFFCURVE",
"58 238 CURVE SMOOTH",
"58 83 OFFCURVE",
"149 -10 OFFCURVE",
"294 -10 CURVE SMOOTH",
"463 -10 OFFCURVE",
"545 113 OFFCURVE",
"545 288 CURVE SMOOTH",
"545 523 OFFCURVE",
"434 735 OFFCURVE",
"179 735 CURVE SMOOTH"
);
},
{
closed = 1;
nodes = (
"195 593 LINE",
"226 546 LINE",
"487 708 LINE",
"455 753 LINE"
);
}
);
width = 603;
}
);
unicode = 00F0;
},
{
glyphname = dcaron;
lastChange = "2014-09-22 11:44:41 +0100";
layers = (
{
background = {
paths = (
{
closed = 1;
nodes = (
"463 730 LINE",
"463 432 LINE",
"433 479 OFFCURVE",
"382 510 OFFCURVE",
"309 510 CURVE SMOOTH",
"164 510 OFFCURVE",
"77 413 OFFCURVE",
"77 250 CURVE SMOOTH",
"77 87 OFFCURVE",
"164 -10 OFFCURVE",
"309 -10 CURVE SMOOTH",
"387 -10 OFFCURVE",
"440 25 OFFCURVE",
"469 78 CURVE",
"478 0 LINE",
"543 0 LINE",
"543 730 LINE"
);
},
{
closed = 1;
nodes = (
"716 730 LINE",
"635 730 LINE",
"615 533 LINE",
"665 533 LINE"
);
},
{
closed = 1;
nodes = (
"217 60 OFFCURVE",
"160 134 OFFCURVE",
"160 250 CURVE SMOOTH",
"160 366 OFFCURVE",
"217 440 OFFCURVE",
"306 440 CURVE SMOOTH",
"395 440 OFFCURVE",
"437 385 OFFCURVE",
"463 313 CURVE",
"463 187 LINE",
"437 115 OFFCURVE",
"395 60 OFFCURVE",
"306 60 CURVE SMOOTH"
);
}
);
};
components = (
{
name = d;
transform = "{1, 0, 0, 1, 0, 0}";
},
{
disableAlignment = 1;
name = caron.alt;
transform = "{1, 0, 0, 1, 546, 0}";
}
);
layerId = "40D202EF-20C6-4DB3-A3D1-28A333770DD8";
name = Light;
width = 685;
},
{
components = (
{
name = d;
transform = "{1, 0, 0, 1, 0, 0}";
},
{
disableAlignment = 1;
name = caron.alt;
transform = "{1, 0, 0, 1, 546, 0}";
}
);
layerId = "90FEB760-6DE5-46E5-A8E9-582C63BAB3AD";
name = Regular;
width = 685;
}
);
leftMetricsKey = d;
unicode = 010F;
},
{
color = 0;
glyphname = dcroat;
lastChange = "2014-09-22 11:44:41 +0100";
layers = (
{
background = {
paths = (
{
closed = 1;
nodes = (
"610 579 LINE",
"610 640 LINE",
"543 640 LINE",
"543 730 LINE",
"463 730 LINE",
"463 640 LINE",
"296 640 LINE",
"296 579 LINE",
"463 579 LINE",
"463 432 LINE",
"433 479 OFFCURVE",
"382 510 OFFCURVE",
"309 510 CURVE SMOOTH",
"164 510 OFFCURVE",
"77 413 OFFCURVE",
"77 250 CURVE SMOOTH",
"77 87 OFFCURVE",
"164 -10 OFFCURVE",
"309 -10 CURVE SMOOTH",
"387 -10 OFFCURVE",
"440 25 OFFCURVE",
"469 78 CURVE",
"478 0 LINE",
"543 0 LINE",
"543 579 LINE"
);
},
{
closed = 1;
nodes = (
"217 60 OFFCURVE",
"160 134 OFFCURVE",
"160 250 CURVE SMOOTH",
"160 366 OFFCURVE",
"217 440 OFFCURVE",
"306 440 CURVE SMOOTH",
"395 440 OFFCURVE",
"437 385 OFFCURVE",
"463 313 CURVE",
"463 187 LINE",
"437 115 OFFCURVE",
"395 60 OFFCURVE",
"306 60 CURVE SMOOTH"
);
}
);
};
components = (
{
name = d;
transform = "{1, 0, 0, 1, 0, 0}";
},
{
name = macron;
transform = "{0.900, 0, 0, 0.900, 234, 33}";
}
);
layerId = "40D202EF-20C6-4DB3-A3D1-28A333770DD8";
name = Light;
width = 621;
},
{
components = (
{
name = d;
transform = "{1, 0, 0, 1, 0, 0}";
},
{
name = macron;
transform = "{0, 0, 0, 0, 0, 0}";
}
);
layerId = "90FEB760-6DE5-46E5-A8E9-582C63BAB3AD";
name = Regular;
width = 630;
}
);
unicode = 0111;
},
{
glyphname = e;
lastChange = "2014-09-22 11:44:41 +0100";
layers = (
{
anchors = (
{
name = bottom;
position = "{307, 0}";
},
{
name = ogonek;
position = "{451, 0}";
},
{
name = top;
position = "{298, 500}";
}
);
background = {
anchors = (
{
name = ogonek;
position = "{460, 0}";
},
{
name = bottom;
position = "{316, 0}";
},
{
name = top;
position = "{307, 500}";
}
);
paths = (
{
closed = 1;
nodes = (
"159 510 OFFCURVE",
"74 412 OFFCURVE",
"74 250 CURVE SMOOTH",
"74 88 OFFCURVE",
"165 -10 OFFCURVE",
"316 -10 CURVE SMOOTH",
"424 -10 OFFCURVE",
"486 31 OFFCURVE",
"524 99 CURVE",
"457 134 LINE",
"439 86 OFFCURVE",
"389 60 OFFCURVE",
"316 60 CURVE SMOOTH",
"215 60 OFFCURVE",
"152 131 OFFCURVE",
"152 250 CURVE SMOOTH",
"152 369 OFFCURVE",
"209 440 OFFCURVE",
"310 440 CURVE SMOOTH",
"405 440 OFFCURVE",
"463 368 OFFCURVE",
"459 255 CURVE SMOOTH",
"458 220 LINE",
"535 220 LINE",
"535 255 LINE SMOOTH",
"535 412 OFFCURVE",
"455 510 OFFCURVE",
"310 510 CURVE SMOOTH"
);
},
{
closed = 1;
nodes = (
"126 291 LINE",
"126 220 LINE",
"498 220 LINE",
"498 291 LINE"
);
}
);
};
layerId = "40D202EF-20C6-4DB3-A3D1-28A333770DD8";
name = Light;
paths = (
{
closed = 1;
nodes = (
"158 510 OFFCURVE",
"74 413 OFFCURVE",
"74 250 CURVE SMOOTH",
"74 87 OFFCURVE",
"159 -10 OFFCURVE",
"303 -10 CURVE SMOOTH",
"394 -10 OFFCURVE",
"470 35 OFFCURVE",
"505 109 CURVE",
"492 116 LINE",
"459 46 OFFCURVE",
"387 4 OFFCURVE",
"303 4 CURVE SMOOTH",
"168 4 OFFCURVE",
"90 96 OFFCURVE",
"90 250 CURVE SMOOTH",
"90 404 OFFCURVE",
"167 496 OFFCURVE",
"298 496 CURVE SMOOTH",
"426 496 OFFCURVE",
"495 401 OFFCURVE",
"495 244 CURVE SMOOTH",
"495 239 LINE",
"509 239 LINE",
"509 246 LINE SMOOTH",
"509 411 OFFCURVE",
"430 510 OFFCURVE",
"298 510 CURVE SMOOTH"
);
},
{
closed = 1;
nodes = (
"82 254 LINE",
"82 239 LINE",
"504 239 LINE",
"504 254 LINE"
);
}
);
width = 559;
},
{
anchors = (
{
name = bottom;
position = "{304, 0}";
},
{
name = ogonek;
position = "{448, 0}";
},
{
name = top;
position = "{295, 500}";
}
);
layerId = "90FEB760-6DE5-46E5-A8E9-582C63BAB3AD";
name = Regular;
paths = (
{
closed = 1;
nodes = (
"147 510 OFFCURVE",
"62 412 OFFCURVE",
"62 250 CURVE SMOOTH",
"62 88 OFFCURVE",
"153 -10 OFFCURVE",
"304 -10 CURVE SMOOTH",
"412 -10 OFFCURVE",
"474 31 OFFCURVE",
"512 99 CURVE",
"445 134 LINE",
"427 86 OFFCURVE",
"377 60 OFFCURVE",
"304 60 CURVE SMOOTH",
"203 60 OFFCURVE",
"140 131 OFFCURVE",
"140 250 CURVE SMOOTH",
"140 369 OFFCURVE",
"197 440 OFFCURVE",
"298 440 CURVE SMOOTH",
"393 440 OFFCURVE",
"447 368 OFFCURVE",
"447 255 CURVE SMOOTH",
"447 220 LINE",
"523 220 LINE",
"523 255 LINE SMOOTH",
"523 412 OFFCURVE",
"443 510 OFFCURVE",
"298 510 CURVE SMOOTH"
);
},
{
closed = 1;
nodes = (
"114 291 LINE",
"114 220 LINE",
"486 220 LINE",
"486 291 LINE"
);
}
);
width = 584;
}
);
leftMetricsKey = o;
unicode = 0065;
},
{
color = 0;
glyphname = eogonek;
lastChange = "2014-09-22 11:44:41 +0100";
layers = (
{
background = {
paths = (
{
closed = 1;
nodes = (
"412 29 LINE",
"303 -9 OFFCURVE",
"251 -54 OFFCURVE",
"251 -118 CURVE SMOOTH",
"251 -180 OFFCURVE",
"297 -215 OFFCURVE",
"363 -215 CURVE SMOOTH",
"408 -215 OFFCURVE",
"440 -196 OFFCURVE",
"458 -178 CURVE",
"436 -122 LINE",
"427 -136 OFFCURVE",
"407 -152 OFFCURVE",
"376 -152 CURVE SMOOTH",
"345 -152 OFFCURVE",
"320 -139 OFFCURVE",
"320 -104 CURVE SMOOTH",
"320 -67 OFFCURVE",
"357 -40 OFFCURVE",
"458 0 CURVE"
);
}
);
};
components = (
{
name = e;
transform = "{1, 0, 0, 1, 0, 0}";
}
);
layerId = "40D202EF-20C6-4DB3-A3D1-28A333770DD8";
name = Light;
paths = (
{
closed = 1;
nodes = (
"428 -13 LINE",
"338 -58 OFFCURVE",
"301 -87 OFFCURVE",
"301 -149 CURVE",
"301 -202 OFFCURVE",
"340 -240 OFFCURVE",
"392 -240 CURVE",
"424 -240 OFFCURVE",
"445 -233 OFFCURVE",
"462 -221 CURVE",
"463 -223 LINE",
"447 -230 OFFCURVE",
"428 -234 OFFCURVE",
"407 -234 CURVE",
"360 -234 OFFCURVE",
"305 -212 OFFCURVE",
"305 -148 CURVE",
"305 -80 OFFCURVE",
"344 -42 OFFCURVE",
"414 -4 CURVE"
);
}
);
width = 643;
},
{
components = (
{
name = e;
transform = "{1, 0, 0, 1, 0, 0}";
}
);
layerId = "90FEB760-6DE5-46E5-A8E9-582C63BAB3AD";
name = Regular;
paths = (
{
closed = 1;
nodes = (
"391 50 LINE",
"293 3 OFFCURVE",
"241 -29 OFFCURVE",
"241 -105 CURVE SMOOTH",
"241 -167 OFFCURVE",
"290 -215 OFFCURVE",
"356 -215 CURVE SMOOTH",
"406 -215 OFFCURVE",
"438 -196 OFFCURVE",
"458 -178 CURVE",
"436 -122 LINE",
"426 -136 OFFCURVE",
"406 -152 OFFCURVE",
"370 -152 CURVE SMOOTH",
"339 -152 OFFCURVE",
"310 -139 OFFCURVE",
"310 -104 CURVE SMOOTH",
"310 -45 OFFCURVE",
"347 -21 OFFCURVE",
"437 21 CURVE"
);
}
);
width = 584;
}
);
unicode = 0119;
},
{
glyphname = f;
lastChange = "2014-09-22 11:44:41 +0100";
layers = (
{
background = {
paths = (
{
closed = 1;
nodes = (
"187 735 OFFCURVE",
"130 673 OFFCURVE",
"130 584 CURVE SMOOTH",
"130 0 LINE",
"210 0 LINE",
"210 576 LINE SMOOTH",
"210 637 OFFCURVE",
"246 662 OFFCURVE",
"287 662 CURVE SMOOTH",
"321 662 OFFCURVE",
"340 649 OFFCURVE",
"357 629 CURVE",
"376 702 LINE",
"356 722 OFFCURVE",
"334 735 OFFCURVE",
"280 735 CURVE SMOOTH"
);
},
{
closed = 1;
nodes = (
"30 500 LINE",
"30 431 LINE",
"370 431 LINE",
"370 500 LINE"
);
}
);
};
guideLines = (
{
angle = 90;
position = "{325, 500}";
}
);
hints = (
{
place = "{257.299790, 0.000000}";
}
);
layerId = "40D202EF-20C6-4DB3-A3D1-28A333770DD8";
name = Light;
paths = (
{
closed = 1;
nodes = (
"180 735 OFFCURVE",
"130 678 OFFCURVE",
"130 583 CURVE SMOOTH",
"130 0 LINE",
"146 0 LINE",
"146 583 LINE SMOOTH",
"146 669 OFFCURVE",
"190 721 OFFCURVE",
"263 721 CURVE SMOOTH",
"295 721 OFFCURVE",
"315 713 OFFCURVE",
"333 692 CURVE",
"340 704 LINE",
"324 722 OFFCURVE",
"302 735 OFFCURVE",
"263 735 CURVE SMOOTH"
);
},
{
closed = 1;
nodes = (
"30 500 LINE",
"30 486 LINE",
"332 486 LINE",
"332 500 LINE"
);
}
);
width = 322;
},
{
guideLines = (
{
angle = 90;
position = "{394, 500}";
}
);
hints = (
{
place = "{257.299790, 0.000000}";
}
);
layerId = "90FEB760-6DE5-46E5-A8E9-582C63BAB3AD";
name = Regular;
paths = (
{
closed = 1;
nodes = (
"205 735 OFFCURVE",
"148 673 OFFCURVE",
"148 584 CURVE SMOOTH",
"148 0 LINE",
"228 0 LINE",
"228 576 LINE SMOOTH",
"228 637 OFFCURVE",
"264 662 OFFCURVE",
"305 662 CURVE SMOOTH",
"339 662 OFFCURVE",
"358 649 OFFCURVE",
"375 629 CURVE",
"394 702 LINE",
"374 722 OFFCURVE",
"352 735 OFFCURVE",
"298 735 CURVE SMOOTH"
);
},
{
closed = 1;
nodes = (
"48 500 LINE",
"48 431 LINE",
"388 431 LINE",
"388 500 LINE"
);
}
);
width = 410;
}
);
unicode = 0066;
},
{
glyphname = g;
lastChange = "2014-09-22 11:44:41 +0100";
layers = (
{
anchors = (
{
name = top;
position = "{268, 500}";
}
);
background = {
anchors = (
{
name = top;
position = "{299, 500}";
}
);
paths = (
{
closed = 1;
nodes = (
"141 207 OFFCURVE",
"88 171 OFFCURVE",
"88 110 CURVE SMOOTH",
"88 35 OFFCURVE",
"177 -5 OFFCURVE",
"238 -5 CURVE SMOOTH",
"372 -5 LINE SMOOTH",
"447 -5 OFFCURVE",
"471 -28 OFFCURVE",
"471 -64 CURVE SMOOTH",
"471 -108 OFFCURVE",
"413 -148 OFFCURVE",
"307 -148 CURVE SMOOTH",
"197 -148 OFFCURVE",
"142 -116 OFFCURVE",
"142 -67 CURVE SMOOTH",
"142 -29 OFFCURVE",
"175 -5 OFFCURVE",
"238 -5 CURVE",
"214 29 LINE",
"126 29 OFFCURVE",
"65 -17 OFFCURVE",
"65 -83 CURVE SMOOTH",
"65 -158 OFFCURVE",
"140 -215 OFFCURVE",
"298 -215 CURVE SMOOTH",
"433 -215 OFFCURVE",
"549 -154 OFFCURVE",
"549 -55 CURVE SMOOTH",
"549 17 OFFCURVE",
"489 64 OFFCURVE",
"394 64 CURVE SMOOTH",
"264 64 LINE SMOOTH",
"199 64 OFFCURVE",
"163 87 OFFCURVE",
"163 124 CURVE SMOOTH",
"163 158 OFFCURVE",
"192 179 OFFCURVE",
"253 187 CURVE",
"210 214 LINE"
);
},
{
closed = 1;
nodes = (
"175 510 OFFCURVE",
"90 440 OFFCURVE",
"90 341 CURVE SMOOTH",
"90 242 OFFCURVE",
"163 172 OFFCURVE",
"295 172 CURVE SMOOTH",
"415 172 OFFCURVE",
"500 242 OFFCURVE",
"500 341 CURVE SMOOTH",
"500 440 OFFCURVE",
"415 510 OFFCURVE",
"295 510 CURVE SMOOTH"
);
},
{
closed = 1;
nodes = (
"364 445 OFFCURVE",
"417 403 OFFCURVE",
"417 341 CURVE SMOOTH",
"417 279 OFFCURVE",
"364 237 OFFCURVE",
"295 237 CURVE SMOOTH",
"226 237 OFFCURVE",
"173 279 OFFCURVE",
"173 341 CURVE SMOOTH",
"173 403 OFFCURVE",
"226 445 OFFCURVE",
"295 445 CURVE SMOOTH"
);
},
{
closed = 1;
nodes = (
"453 592 OFFCURVE",
"408 549 OFFCURVE",
"394 460 CURVE",
"434 443 LINE",
"439 494 OFFCURVE",
"475 520 OFFCURVE",
"556 520 CURVE",
"538 592 LINE"
);
}
);
};
layerId = "40D202EF-20C6-4DB3-A3D1-28A333770DD8";
name = Light;
paths = (
{
closed = 1;
nodes = (
"134 208 OFFCURVE",
"87 166 OFFCURVE",
"87 113 CURVE SMOOTH",
"87 65 OFFCURVE",
"138 23 OFFCURVE",
"211 23 CURVE SMOOTH",
"363 23 LINE SMOOTH",
"439 23 OFFCURVE",
"483 -19 OFFCURVE",
"483 -74 CURVE SMOOTH",
"483 -145 OFFCURVE",
"400 -201 OFFCURVE",
"276 -201 CURVE SMOOTH",
"140 -201 OFFCURVE",
"72 -149 OFFCURVE",
"72 -81 CURVE SMOOTH",
"72 -22 OFFCURVE",
"140 23 OFFCURVE",
"212 23 CURVE",
"203 31 LINE",
"123 31 OFFCURVE",
"56 -14 OFFCURVE",
"56 -83 CURVE SMOOTH",
"56 -157 OFFCURVE",
"133 -215 OFFCURVE",
"274 -215 CURVE SMOOTH",
"409 -215 OFFCURVE",
"499 -154 OFFCURVE",
"499 -72 CURVE SMOOTH",
"499 -12 OFFCURVE",
"449 37 OFFCURVE",
"365 37 CURVE SMOOTH",
"218 37 LINE SMOOTH",
"145 37 OFFCURVE",
"103 75 OFFCURVE",
"103 117 CURVE SMOOTH",
"103 158 OFFCURVE",
"147 200 OFFCURVE",
"228 203 CURVE",
"214 212 LINE"
);
},
{
closed = 1;
nodes = (
"157 510 OFFCURVE",
"77 444 OFFCURVE",
"77 353 CURVE SMOOTH",
"77 262 OFFCURVE",
"157 196 OFFCURVE",
"268 196 CURVE SMOOTH",
"378 196 OFFCURVE",
"458 262 OFFCURVE",
"458 353 CURVE SMOOTH",
"458 444 OFFCURVE",
"378 510 OFFCURVE",
"268 510 CURVE SMOOTH"
);
},
{
closed = 1;
nodes = (
"369 496 OFFCURVE",
"442 436 OFFCURVE",
"442 353 CURVE SMOOTH",
"442 270 OFFCURVE",
"369 210 OFFCURVE",
"268 210 CURVE SMOOTH",
"167 210 OFFCURVE",
"93 270 OFFCURVE",
"93 353 CURVE SMOOTH",
"93 436 OFFCURVE",
"167 496 OFFCURVE",
"268 496 CURVE SMOOTH"
);
},
{
closed = 1;
nodes = (
"436 592 OFFCURVE",
"383 544 OFFCURVE",
"383 470 CURVE",
"395 467 LINE",
"395 534 OFFCURVE",
"443 579 OFFCURVE",
"511 579 CURVE",
"506 592 LINE"
);
}
);
width = 510;
},
{
anchors = (
{
name = top;
position = "{277, 500}";
}
);
layerId = "90FEB760-6DE5-46E5-A8E9-582C63BAB3AD";
name = Regular;
paths = (
{
closed = 1;
nodes = (
"119 207 OFFCURVE",
"66 171 OFFCURVE",
"66 110 CURVE SMOOTH",
"66 35 OFFCURVE",
"155 -5 OFFCURVE",
"216 -5 CURVE SMOOTH",
"350 -5 LINE SMOOTH",
"425 -5 OFFCURVE",
"449 -28 OFFCURVE",
"449 -64 CURVE SMOOTH",
"449 -108 OFFCURVE",
"391 -148 OFFCURVE",
"285 -148 CURVE SMOOTH",
"175 -148 OFFCURVE",
"120 -116 OFFCURVE",
"120 -67 CURVE SMOOTH",
"120 -29 OFFCURVE",
"153 -5 OFFCURVE",
"216 -5 CURVE",
"192 29 LINE",
"104 29 OFFCURVE",
"43 -17 OFFCURVE",
"43 -83 CURVE SMOOTH",
"43 -158 OFFCURVE",
"118 -215 OFFCURVE",
"276 -215 CURVE SMOOTH",
"411 -215 OFFCURVE",
"527 -154 OFFCURVE",
"527 -55 CURVE SMOOTH",
"527 17 OFFCURVE",
"467 64 OFFCURVE",
"372 64 CURVE SMOOTH",
"242 64 LINE SMOOTH",
"177 64 OFFCURVE",
"141 87 OFFCURVE",
"141 124 CURVE SMOOTH",
"141 158 OFFCURVE",
"170 179 OFFCURVE",
"231 187 CURVE",
"188 214 LINE"
);
},
{
closed = 1;
nodes = (
"153 510 OFFCURVE",
"68 440 OFFCURVE",
"68 341 CURVE SMOOTH",
"68 242 OFFCURVE",
"141 172 OFFCURVE",
"273 172 CURVE SMOOTH",
"393 172 OFFCURVE",
"478 242 OFFCURVE",
"478 341 CURVE SMOOTH",
"478 440 OFFCURVE",
"393 510 OFFCURVE",
"273 510 CURVE SMOOTH"
);
},
{
closed = 1;
nodes = (
"342 445 OFFCURVE",
"395 403 OFFCURVE",
"395 341 CURVE SMOOTH",
"395 279 OFFCURVE",
"342 237 OFFCURVE",
"273 237 CURVE SMOOTH",
"204 237 OFFCURVE",
"151 279 OFFCURVE",
"151 341 CURVE SMOOTH",
"151 403 OFFCURVE",
"204 445 OFFCURVE",
"273 445 CURVE SMOOTH"
);
},
{
closed = 1;
nodes = (
"431 592 OFFCURVE",
"386 549 OFFCURVE",
"372 460 CURVE",
"412 443 LINE",
"417 494 OFFCURVE",
"453 520 OFFCURVE",
"534 520 CURVE",
"516 592 LINE"
);
}
);
width = 549;
}
);
unicode = 0067;
},
{
glyphname = gcommaaccent;
lastChange = "2014-09-22 11:44:41 +0100";
layers = (
{
components = (
{
name = g;
transform = "{1, 0, 0, 1, 0, 0}";
}
);
layerId = "40D202EF-20C6-4DB3-A3D1-28A333770DD8";
name = Light;
paths = (
{
closed = 1;
nodes = (
"326 661 LINE",
"358 811 LINE",
"361 811 LINE",
"308 661 LINE"
);
}
);
width = 634;
},
{
components = (
{
name = g;
transform = "{1, 0, 0, 1, 0, 0}";
}
);
layerId = "90FEB760-6DE5-46E5-A8E9-582C63BAB3AD";
name = Regular;
paths = (
{
closed = 1;
nodes = (
"323 587 LINE",
"365 778 LINE",
"305 778 LINE",
"235 587 LINE"
);
}
);
width = 577;
}
);
unicode = 0123;
},
{
glyphname = h;
lastChange = "2014-09-22 11:44:41 +0100";
layers = (
{
background = {
paths = (
{
closed = 1;
nodes = (
"117 730 LINE",
"117 0 LINE",
"197 0 LINE",
"197 730 LINE"
);
},
{
closed = 1;
nodes = (
"254 510 OFFCURVE",
"166 449 OFFCURVE",
"166 288 CURVE",
"197 265 LINE",
"197 393 OFFCURVE",
"279 440 OFFCURVE",
"352 440 CURVE SMOOTH",
"421 440 OFFCURVE",
"475 403 OFFCURVE",
"475 292 CURVE SMOOTH",
"475 0 LINE",
"555 0 LINE",
"555 320 LINE SMOOTH",
"555 449 OFFCURVE",
"467 510 OFFCURVE",
"360 510 CURVE SMOOTH"
);
}
);
};
layerId = "40D202EF-20C6-4DB3-A3D1-28A333770DD8";
name = Light;
paths = (
{
closed = 1;
nodes = (
"98 730 LINE",
"98 0 LINE",
"114 0 LINE",
"114 730 LINE"
);
},
{
closed = 1;
nodes = (
"193 510 OFFCURVE",
"107 423 OFFCURVE",
"107 317 CURVE",
"114 301 LINE",
"114 405 OFFCURVE",
"198 496 OFFCURVE",
"305 496 CURVE SMOOTH",
"416 496 OFFCURVE",
"492 433 OFFCURVE",
"492 327 CURVE SMOOTH",
"492 1 LINE",
"508 1 LINE",
"508 329 LINE SMOOTH",
"508 442 OFFCURVE",
"426 510 OFFCURVE",
"308 510 CURVE SMOOTH"
);
}
);
width = 602;
},
{
layerId = "90FEB760-6DE5-46E5-A8E9-582C63BAB3AD";
name = Regular;
paths = (
{
closed = 1;
nodes = (
"94 730 LINE",
"94 0 LINE",
"174 0 LINE",
"174 730 LINE"
);
},
{
closed = 1;
nodes = (
"231 510 OFFCURVE",
"143 449 OFFCURVE",
"143 288 CURVE",
"174 265 LINE",
"174 393 OFFCURVE",
"256 440 OFFCURVE",
"329 440 CURVE SMOOTH",
"398 440 OFFCURVE",
"452 403 OFFCURVE",
"452 292 CURVE SMOOTH",
"452 0 LINE",
"532 0 LINE",
"532 320 LINE SMOOTH",
"532 449 OFFCURVE",
"444 510 OFFCURVE",
"337 510 CURVE SMOOTH"
);
}
);
width = 620;
}
);
leftMetricsKey = n;
rightMetricsKey = n;
unicode = 0068;
},
{
glyphname = i;
lastChange = "2014-09-22 11:44:41 +0100";
layers = (
{
background = {
paths = (
{
closed = 1;
nodes = (
"53 500 LINE",
"53 0 LINE",
"133 0 LINE",
"133 500 LINE"
);
},
{
closed = 1;
nodes = (
"60 739 OFFCURVE",
"33 712 OFFCURVE",
"33 679 CURVE SMOOTH",
"33 646 OFFCURVE",
"60 619 OFFCURVE",
"93 619 CURVE SMOOTH",
"126 619 OFFCURVE",
"153 646 OFFCURVE",
"153 679 CURVE SMOOTH",
"153 712 OFFCURVE",
"126 739 OFFCURVE",
"93 739 CURVE SMOOTH"
);
}
);
};
components = (
{
name = dotaccent;
transform = "{1, 0, 0, 1, -169, 0}";
}
);
layerId = "40D202EF-20C6-4DB3-A3D1-28A333770DD8";
name = Light;
paths = (
{
closed = 1;
nodes = (
"98 500 LINE",
"98 0 LINE",
"114 0 LINE",
"114 500 LINE"
);
}
);
width = 212;
},
{
components = (
{
name = dotaccent;
transform = "{1, 0, 0, 1, -116, 0}";
}
);
layerId = "90FEB760-6DE5-46E5-A8E9-582C63BAB3AD";
name = Regular;
paths = (
{
closed = 1;
nodes = (
"94 500 LINE",
"94 0 LINE",
"174 0 LINE",
"174 500 LINE"
);
}
);
width = 268;
}
);
leftMetricsKey = "=n-17";
rightMetricsKey = "=|n-17";
unicode = 0069;
},
{
glyphname = dotlessi;
lastChange = "2014-09-22 11:44:41 +0100";
layers = (
{
anchors = (
{
name = ogonek;
position = "{114, 0}";
},
{
name = top;
position = "{106, 500}";
}
);
background = {
anchors = (
{
name = ogonek;
position = "{133, 0}";
},
{
name = top;
position = "{93, 500}";
}
);
paths = (
{
closed = 1;
nodes = (
"53 500 LINE",
"53 0 LINE",
"133 0 LINE",
"133 500 LINE"
);
}
);
};
layerId = "40D202EF-20C6-4DB3-A3D1-28A333770DD8";
name = Light;
paths = (
{
closed = 1;
nodes = (
"98 500 LINE",
"98 0 LINE",
"114 0 LINE",
"114 500 LINE"
);
}
);
width = 212;
},
{
anchors = (
{
name = ogonek;
position = "{174, 0}";
},
{
name = top;
position = "{134, 500}";
}
);
layerId = "90FEB760-6DE5-46E5-A8E9-582C63BAB3AD";
name = Regular;
paths = (
{
closed = 1;
nodes = (
"94 500 LINE",
"94 0 LINE",
"174 0 LINE",
"174 500 LINE"
);
}
);
width = 268;
}
);
leftMetricsKey = n;
rightMetricsKey = "=|n";
unicode = 0131;
},
{
glyphname = idieresis;
lastChange = "2014-09-22 11:44:41 +0100";
layers = (
{
components = (
{
name = dotlessi;
transform = "{1, 0, 0, 1, 0, 0}";
}
);
layerId = "40D202EF-20C6-4DB3-A3D1-28A333770DD8";
name = Light;
paths = (
{
closed = 1;
nodes = (
"33 730 OFFCURVE",
"20 717 OFFCURVE",
"20 698 CURVE",
"20 680 OFFCURVE",
"33 667 OFFCURVE",
"46 667 CURVE",
"60 667 OFFCURVE",
"73 680 OFFCURVE",
"73 698 CURVE",
"73 717 OFFCURVE",
"60 730 OFFCURVE",
"46 730 CURVE"
);
},
{
closed = 1;
nodes = (
"227 730 OFFCURVE",
"214 717 OFFCURVE",
"214 698 CURVE",
"214 680 OFFCURVE",
"227 667 OFFCURVE",
"241 667 CURVE",
"254 667 OFFCURVE",
"268 680 OFFCURVE",
"268 698 CURVE",
"268 717 OFFCURVE",
"254 730 OFFCURVE",
"241 730 CURVE"
);
}
);
width = 295;
},
{
components = (
{
name = dotlessi;
transform = "{1, 0, 0, 1, 0, 0}";
}
);
layerId = "90FEB760-6DE5-46E5-A8E9-582C63BAB3AD";
name = Regular;
paths = (
{
closed = 1;
nodes = (
"11 706 OFFCURVE",
"-15 680 OFFCURVE",
"-15 649 CURVE SMOOTH",
"-15 618 OFFCURVE",
"11 592 OFFCURVE",
"42 592 CURVE SMOOTH",
"73 592 OFFCURVE",
"99 618 OFFCURVE",
"99 649 CURVE SMOOTH",
"99 680 OFFCURVE",
"73 706 OFFCURVE",
"42 706 CURVE SMOOTH"
);
},
{
closed = 1;
nodes = (
"188 706 OFFCURVE",
"162 680 OFFCURVE",
"162 649 CURVE SMOOTH",
"162 618 OFFCURVE",
"188 592 OFFCURVE",
"219 592 CURVE SMOOTH",
"250 592 OFFCURVE",
"276 618 OFFCURVE",
"276 649 CURVE SMOOTH",
"276 680 OFFCURVE",
"250 706 OFFCURVE",
"219 706 CURVE SMOOTH"
);
}
);
width = 268;
}
);
unicode = 00EF;
},
{
color = 0;
glyphname = iogonek;
lastChange = "2014-09-22 11:44:41 +0100";
layers = (
{
background = {
paths = (
{
closed = 1;
nodes = (
"128 19 LINE",
"60 -9 OFFCURVE",
"7 -51 OFFCURVE",
"7 -115 CURVE SMOOTH",
"7 -177 OFFCURVE",
"56 -215 OFFCURVE",
"122 -215 CURVE SMOOTH",
"172 -215 OFFCURVE",
"204 -196 OFFCURVE",
"224 -178 CURVE",
"202 -122 LINE",
"190 -138 OFFCURVE",
"172 -152 OFFCURVE",
"139 -152 CURVE SMOOTH",
"102 -152 OFFCURVE",
"76 -132 OFFCURVE",
"76 -102 CURVE SMOOTH",
"76 -65 OFFCURVE",
"96 -38 OFFCURVE",
"174 0 CURVE"
);
}
);
};
components = (
{
name = dotlessi;
transform = "{1, 0, 0, 1, 0, 0}";
},
{
name = dotaccent;
transform = "{1, 0, 0, 1, -128, 0}";
}
);
layerId = "40D202EF-20C6-4DB3-A3D1-28A333770DD8";
name = Light;
paths = (
{
closed = 1;
nodes = (
"140 -45 LINE",
"74 -71 OFFCURVE",
"43 -110 OFFCURVE",
"43 -164 CURVE",
"43 -213 OFFCURVE",
"78 -240 OFFCURVE",
"134 -240 CURVE",
"166 -240 OFFCURVE",
"187 -233 OFFCURVE",
"204 -221 CURVE",
"205 -223 LINE",
"189 -230 OFFCURVE",
"170 -234 OFFCURVE",
"149 -234 CURVE",
"102 -234 OFFCURVE",
"47 -212 OFFCURVE",
"47 -148 CURVE",
"47 -106 OFFCURVE",
"67 -69 OFFCURVE",
"116 -35 CURVE"
);
}
);
width = 295;
},
{
components = (
{
name = dotlessi;
transform = "{1, 0, 0, 1, 0, 0}";
},
{
name = dotaccent;
transform = "{1, 0, 0, 1, -116, 0}";
}
);
layerId = "90FEB760-6DE5-46E5-A8E9-582C63BAB3AD";
name = Regular;
paths = (
{
closed = 1;
nodes = (
"128 19 LINE",
"47 -9 OFFCURVE",
"7 -53 OFFCURVE",
"7 -118 CURVE SMOOTH",
"7 -180 OFFCURVE",
"56 -215 OFFCURVE",
"122 -215 CURVE SMOOTH",
"172 -215 OFFCURVE",
"204 -196 OFFCURVE",
"224 -178 CURVE",
"202 -122 LINE",
"192 -136 OFFCURVE",
"172 -152 OFFCURVE",
"136 -152 CURVE SMOOTH",
"105 -152 OFFCURVE",
"76 -139 OFFCURVE",
"76 -104 CURVE SMOOTH",
"76 -67 OFFCURVE",
"101 -33 OFFCURVE",
"174 0 CURVE"
);
}
);
width = 268;
}
);
unicode = 012F;
},
{
glyphname = j;
lastChange = "2014-09-22 11:44:41 +0100";
layers = (
{
background = {
paths = (
{
closed = 1;
nodes = (
"122 500 LINE",
"42 500 LINE",
"42 -58 LINE SMOOTH",
"42 -121 OFFCURVE",
"14 -142 OFFCURVE",
"-21 -142 CURVE SMOOTH",
"-58 -142 OFFCURVE",
"-83 -128 OFFCURVE",
"-99 -114 CURVE",
"-121 -184 LINE",
"-97 -202 OFFCURVE",
"-69 -215 OFFCURVE",
"-15 -215 CURVE SMOOTH",
"33 -215 OFFCURVE",
"122 -189 OFFCURVE",
"122 -71 CURVE SMOOTH"
);
},
{
closed = 1;
nodes = (
"115 619 OFFCURVE",
"142 646 OFFCURVE",
"142 679 CURVE SMOOTH",
"142 712 OFFCURVE",
"115 739 OFFCURVE",
"82 739 CURVE SMOOTH",
"49 739 OFFCURVE",
"22 712 OFFCURVE",
"22 679 CURVE SMOOTH",
"22 646 OFFCURVE",
"49 619 OFFCURVE",
"82 619 CURVE SMOOTH"
);
}
);
};
components = (
{
name = dotaccent;
transform = "{1, 0, 0, 1, -161, 0}";
}
);
layerId = "40D202EF-20C6-4DB3-A3D1-28A333770DD8";
name = Light;
paths = (
{
closed = 1;
nodes = (
"106 500 LINE",
"106 -64 LINE SMOOTH",
"106 -147 OFFCURVE",
"60 -201 OFFCURVE",
"-10 -201 CURVE SMOOTH",
"-34 -201 OFFCURVE",
"-60 -194 OFFCURVE",
"-76 -179 CURVE",
"-81 -193 LINE",
"-65 -207 OFFCURVE",
"-38 -215 OFFCURVE",
"-10 -215 CURVE SMOOTH",
"70 -215 OFFCURVE",
"122 -156 OFFCURVE",
"122 -64 CURVE SMOOTH",
"122 500 LINE"
);
}
);
width = 220;
},
{
components = (
{
name = dotaccent;
transform = "{1, 0, 0, 1, -105, 0}";
}
);
layerId = "90FEB760-6DE5-46E5-A8E9-582C63BAB3AD";
name = Regular;
paths = (
{
closed = 1;
nodes = (
"105 500 LINE",
"105 -43 LINE SMOOTH",
"105 -113 OFFCURVE",
"75 -137 OFFCURVE",
"32 -137 CURVE SMOOTH",
"-3 -137 OFFCURVE",
"-31 -123 OFFCURVE",
"-50 -106 CURVE",
"-67 -182 LINE",
"-44 -201 OFFCURVE",
"-8 -215 OFFCURVE",
"33 -215 CURVE SMOOTH",
"101 -215 OFFCURVE",
"185 -176 OFFCURVE",
"185 -51 CURVE SMOOTH",
"185 500 LINE"
);
}
);
width = 279;
}
);
rightMetricsKey = "=|n-25";
unicode = 006A;
},
{
glyphname = k;
lastChange = "2014-09-22 11:44:41 +0100";
layers = (
{
anchors = (
{
name = bottom;
position = "{299, 0}";
}
);
background = {
anchors = (
{
name = bottom;
position = "{320, 0}";
}
);
paths = (
{
closed = 1;
nodes = (
"437 500 LINE",
"138 201 LINE",
"138 101 LINE",
"537 500 LINE"
);
},
{
closed = 1;
nodes = (
"98 730 LINE",
"98 0 LINE",
"178 0 LINE",
"178 730 LINE"
);
},
{
closed = 1;
nodes = (
"261 280 LINE",
"452 0 LINE",
"549 0 LINE",
"328 325 LINE"
);
}
);
};
layerId = "40D202EF-20C6-4DB3-A3D1-28A333770DD8";
name = Light;
paths = (
{
closed = 1;
nodes = (
"433 500 LINE",
"107 164 LINE",
"107 141 LINE",
"456 500 LINE"
);
},
{
closed = 1;
nodes = (
"98 730 LINE",
"98 0 LINE",
"114 0 LINE",
"114 730 LINE"
);
},
{
closed = 1;
nodes = (
"260 311 LINE",
"465 0 LINE",
"486 0 LINE",
"271 322 LINE"
);
}
);
width = 495;
},
{
anchors = (
{
name = bottom;
position = "{316, 0}";
}
);
layerId = "90FEB760-6DE5-46E5-A8E9-582C63BAB3AD";
name = Regular;
paths = (
{
closed = 1;
nodes = (
"433 500 LINE",
"134 201 LINE",
"134 101 LINE",
"533 500 LINE"
);
},
{
closed = 1;
nodes = (
"94 730 LINE",
"94 0 LINE",
"174 0 LINE",
"174 730 LINE"
);
},
{
closed = 1;
nodes = (
"257 280 LINE",
"448 0 LINE",
"545 0 LINE",
"324 325 LINE"
);
}
);
width = 559;
}
);
leftMetricsKey = n;
unicode = 006B;
},
{
glyphname = l;
lastChange = "2014-09-22 11:44:41 +0100";
layers = (
{
anchors = (
{
name = bottom;
position = "{211, 0}";
},
{
name = top;
position = "{106, 730}";
},
{
name = topright;
position = "{246, 730}";
}
);
background = {
paths = (
{
closed = 1;
nodes = (
"98 730 LINE",
"98 124 LINE SMOOTH",
"98 33 OFFCURVE",
"137 -10 OFFCURVE",
"218 -10 CURVE SMOOTH",
"244 -10 OFFCURVE",
"271 -5 OFFCURVE",
"292 4 CURVE",
"305 81 LINE",
"280 72 OFFCURVE",
"263 67 OFFCURVE",
"232 67 CURVE SMOOTH",
"191 67 OFFCURVE",
"178 83 OFFCURVE",
"178 134 CURVE SMOOTH",
"178 730 LINE"
);
}
);
};
layerId = "40D202EF-20C6-4DB3-A3D1-28A333770DD8";
name = Light;
paths = (
{
closed = 1;
nodes = (
"98 730 LINE",
"98 107 LINE SMOOTH",
"98 25 OFFCURVE",
"131 -10 OFFCURVE",
"195 -10 CURVE SMOOTH",
"223 -10 OFFCURVE",
"241 -4 OFFCURVE",
"255 4 CURVE",
"256 20 LINE",
"239 10 OFFCURVE",
"226 4 OFFCURVE",
"195 4 CURVE SMOOTH",
"142 4 OFFCURVE",
"114 34 OFFCURVE",
"114 107 CURVE SMOOTH",
"114 730 LINE"
);
}
);
width = 274;
},
{
anchors = (
{
name = bottom;
position = "{229, 0}";
},
{
name = top;
position = "{134, 730}";
},
{
name = topright;
position = "{267, 730}";
}
);
layerId = "90FEB760-6DE5-46E5-A8E9-582C63BAB3AD";
name = Regular;
paths = (
{
closed = 1;
nodes = (
"94 730 LINE",
"94 124 LINE SMOOTH",
"94 33 OFFCURVE",
"133 -10 OFFCURVE",
"214 -10 CURVE SMOOTH",
"240 -10 OFFCURVE",
"267 -5 OFFCURVE",
"288 4 CURVE",
"301 81 LINE",
"276 72 OFFCURVE",
"259 67 OFFCURVE",
"228 67 CURVE SMOOTH",
"187 67 OFFCURVE",
"174 83 OFFCURVE",
"174 134 CURVE SMOOTH",
"174 730 LINE"
);
}
);
width = 314;
}
);
leftMetricsKey = n;
unicode = 006C;
},
{
color = 2;
glyphname = lacute;
lastChange = "2014-09-22 11:44:41 +0100";
layers = (
{
components = (
{
name = l;
transform = "{1, 0, 0, 1, 0, 0}";
}
);
layerId = "40D202EF-20C6-4DB3-A3D1-28A333770DD8";
name = Light;
paths = (
{
closed = 1;
nodes = (
"155 915 LINE",
"148 915 LINE",
"220 1038 LINE",
"207 1038 LINE"
);
}
);
width = 372;
},
{
components = (
{
name = l;
transform = "{1, 0, 0, 1, 0, 0}";
}
);
layerId = "90FEB760-6DE5-46E5-A8E9-582C63BAB3AD";
name = Regular;
paths = (
{
closed = 1;
nodes = (
"94 813 LINE",
"154 813 LINE",
"254 980 LINE",
"166 980 LINE"
);
}
);
width = 338;
}
);
unicode = 013A;
},
{
glyphname = lcaron;
lastChange = "2014-09-22 11:44:41 +0100";
layers = (
{
background = {
paths = (
{
closed = 1;
nodes = (
"94 730 LINE",
"94 124 LINE SMOOTH",
"94 29 OFFCURVE",
"133 -10 OFFCURVE",
"214 -10 CURVE SMOOTH",
"240 -10 OFFCURVE",
"267 -5 OFFCURVE",
"288 4 CURVE",
"301 81 LINE",
"276 72 OFFCURVE",
"259 67 OFFCURVE",
"228 67 CURVE SMOOTH",
"193 67 OFFCURVE",
"174 94 OFFCURVE",
"174 134 CURVE SMOOTH",
"174 730 LINE"
);
},
{
closed = 1;
nodes = (
"267 730 LINE",
"248 533 LINE",
"311 533 LINE",
"357 730 LINE"
);
}
);
};
components = (
{
disableAlignment = 1;
name = l;
transform = "{1, 0, 0, 1, 0, 0}";
},
{
name = caron.alt;
transform = "{1, 0, 0, 1, 178, 0}";
}
);
layerId = "40D202EF-20C6-4DB3-A3D1-28A333770DD8";
name = Light;
width = 338;
},
{
components = (
{
disableAlignment = 1;
name = l;
transform = "{1, 0, 0, 1, 0, 0}";
},
{
name = caron.alt;
transform = "{1, 0, 0, 1, 178, 0}";
}
);
layerId = "90FEB760-6DE5-46E5-A8E9-582C63BAB3AD";
name = Regular;
width = 338;
}
);
leftMetricsKey = l;
unicode = 013E;
},
{
glyphname = lslash;
lastChange = "2014-09-22 11:44:41 +0100";
layers = (
{
background = {
paths = (
{
closed = 1;
nodes = (
"27 312 LINE",
"27 229 LINE",
"323 427 LINE",
"323 510 LINE"
);
},
{
closed = 1;
nodes = (
"123 730 LINE",
"123 124 LINE SMOOTH",
"123 33 OFFCURVE",
"162 -10 OFFCURVE",
"243 -10 CURVE SMOOTH",
"269 -10 OFFCURVE",
"296 -5 OFFCURVE",
"317 4 CURVE",
"330 81 LINE",
"305 72 OFFCURVE",
"288 67 OFFCURVE",
"257 67 CURVE SMOOTH",
"216 67 OFFCURVE",
"203 83 OFFCURVE",
"203 134 CURVE SMOOTH",
"203 730 LINE"
);
}
);
};
components = (
{
name = l;
transform = "{1, 0, 0, 1, 0, 0}";
}
);
layerId = "40D202EF-20C6-4DB3-A3D1-28A333770DD8";
name = Light;
paths = (
{
closed = 1;
nodes = (
"1 294 LINE",
"1 274 LINE",
"239 455 LINE",
"239 475 LINE"
);
}
);
width = 274;
},
{
components = (
{
name = l;
transform = "{1, 0, 0, 1, 29, 0}";
}
);
layerId = "90FEB760-6DE5-46E5-A8E9-582C63BAB3AD";
name = Regular;
paths = (
{
closed = 1;
nodes = (
"27 312 LINE",
"27 229 LINE",
"323 427 LINE",
"323 510 LINE"
);
}
);
width = 349;
}
);
unicode = 0142;
},
{
glyphname = m;
lastChange = "2014-09-22 11:44:41 +0100";
layers = (
{
background = {
paths = (
{
closed = 1;
nodes = (
"599 510 OFFCURVE",
"491 461 OFFCURVE",
"491 346 CURVE",
"524 274 LINE",
"524 381 OFFCURVE",
"594 440 OFFCURVE",
"672 440 CURVE SMOOTH",
"738 440 OFFCURVE",
"790 403 OFFCURVE",
"790 312 CURVE SMOOTH",
"790 0 LINE",
"870 0 LINE",
"870 320 LINE SMOOTH",
"870 452 OFFCURVE",
"775 510 OFFCURVE",
"679 510 CURVE SMOOTH"
);
},
{
closed = 1;
nodes = (
"98 500 LINE",
"98 383 LINE",
"98 0 LINE",
"178 0 LINE",
"178 383 LINE",
"163 500 LINE"
);
},
{
closed = 1;
nodes = (
"238 510 OFFCURVE",
"141 445 OFFCURVE",
"141 293 CURVE",
"178 267 LINE",
"178 391 OFFCURVE",
"260 440 OFFCURVE",
"326 440 CURVE SMOOTH",
"392 440 OFFCURVE",
"444 403 OFFCURVE",
"444 312 CURVE SMOOTH",
"444 0 LINE",
"524 0 LINE",
"524 320 LINE SMOOTH",
"524 452 OFFCURVE",
"429 510 OFFCURVE",
"333 510 CURVE SMOOTH"
);
}
);
};
guideLines = (
{
position = "{217, 423}";
}
);
layerId = "40D202EF-20C6-4DB3-A3D1-28A333770DD8";
name = Light;
paths = (
{
closed = 1;
nodes = (
"98 500 LINE",
"98 301 LINE",
"98 0 LINE",
"114 0 LINE",
"114 301 LINE",
"114 500 LINE"
);
},
{
closed = 1;
nodes = (
"193 510 OFFCURVE",
"107 423 OFFCURVE",
"107 317 CURVE",
"114 301 LINE",
"114 405 OFFCURVE",
"198 496 OFFCURVE",
"305 496 CURVE SMOOTH",
"416 496 OFFCURVE",
"492 433 OFFCURVE",
"492 327 CURVE SMOOTH",
"492 1 LINE",
"508 1 LINE",
"508 329 LINE SMOOTH",
"508 442 OFFCURVE",
"426 510 OFFCURVE",
"308 510 CURVE SMOOTH"
);
},
{
closed = 1;
nodes = (
"587 511 OFFCURVE",
"501 424 OFFCURVE",
"501 318 CURVE",
"508 302 LINE",
"508 406 OFFCURVE",
"592 497 OFFCURVE",
"699 497 CURVE SMOOTH",
"810 497 OFFCURVE",
"886 434 OFFCURVE",
"886 328 CURVE SMOOTH",
"886 2 LINE",
"902 2 LINE",
"902 330 LINE SMOOTH",
"902 443 OFFCURVE",
"820 511 OFFCURVE",
"702 511 CURVE SMOOTH"
);
}
);
width = 996;
},
{
guideLines = (
{
position = "{194, 423}";
}
);
layerId = "90FEB760-6DE5-46E5-A8E9-582C63BAB3AD";
name = Regular;
paths = (
{
closed = 1;
nodes = (
"94 500 LINE",
"94 383 LINE",
"94 0 LINE",
"174 0 LINE",
"174 383 LINE",
"159 500 LINE"
);
},
{
closed = 1;
nodes = (
"234 510 OFFCURVE",
"137 445 OFFCURVE",
"137 293 CURVE",
"174 267 LINE",
"174 391 OFFCURVE",
"256 440 OFFCURVE",
"322 440 CURVE SMOOTH",
"388 440 OFFCURVE",
"440 403 OFFCURVE",
"440 312 CURVE SMOOTH",
"440 0 LINE",
"520 0 LINE",
"520 320 LINE SMOOTH",
"520 452 OFFCURVE",
"425 510 OFFCURVE",
"329 510 CURVE SMOOTH"
);
},
{
closed = 1;
nodes = (
"595 510 OFFCURVE",
"487 461 OFFCURVE",
"487 346 CURVE",
"520 274 LINE",
"520 381 OFFCURVE",
"590 440 OFFCURVE",
"668 440 CURVE SMOOTH",
"734 440 OFFCURVE",
"786 403 OFFCURVE",
"786 312 CURVE SMOOTH",
"786 0 LINE",
"866 0 LINE",
"866 320 LINE SMOOTH",
"866 452 OFFCURVE",
"771 510 OFFCURVE",
"675 510 CURVE SMOOTH"
);
}
);
width = 954;
}
);
leftMetricsKey = n;
rightMetricsKey = n;
unicode = 006D;
},
{
glyphname = n;
lastChange = "2014-09-22 11:44:41 +0100";
layers = (
{
anchors = (
{
name = bottom;
position = "{336, 0}";
},
{
name = top;
position = "{306, 500}";
}
);
background = {
anchors = (
{
name = top;
position = "{278, 500}";
},
{
name = bottom;
position = "{302, 0}";
}
);
paths = (
{
closed = 1;
nodes = (
"236 510 OFFCURVE",
"143 451 OFFCURVE",
"143 291 CURVE",
"178 266 LINE",
"178 394 OFFCURVE",
"260 440 OFFCURVE",
"333 440 CURVE SMOOTH",
"402 440 OFFCURVE",
"456 403 OFFCURVE",
"456 292 CURVE SMOOTH",
"456 0 LINE",
"536 0 LINE",
"536 320 LINE SMOOTH",
"536 449 OFFCURVE",
"448 510 OFFCURVE",
"341 510 CURVE SMOOTH"
);
},
{
closed = 1;
nodes = (
"98 500 LINE",
"98 383 LINE",
"98 0 LINE",
"178 0 LINE",
"178 383 LINE",
"163 500 LINE"
);
}
);
};
layerId = "40D202EF-20C6-4DB3-A3D1-28A333770DD8";
name = Light;
paths = (
{
closed = 1;
nodes = (
"193 510 OFFCURVE",
"107 423 OFFCURVE",
"107 317 CURVE",
"114 301 LINE",
"114 405 OFFCURVE",
"198 496 OFFCURVE",
"305 496 CURVE SMOOTH",
"416 496 OFFCURVE",
"492 433 OFFCURVE",
"492 327 CURVE SMOOTH",
"492 0 LINE",
"508 0 LINE",
"508 329 LINE SMOOTH",
"508 442 OFFCURVE",
"426 510 OFFCURVE",
"308 510 CURVE SMOOTH"
);
},
{
closed = 1;
nodes = (
"98 500 LINE",
"98 301 LINE",
"98 0 LINE",
"114 0 LINE",
"114 301 LINE",
"114 500 LINE"
);
}
);
width = 602;
},
{
anchors = (
{
name = bottom;
position = "{343, 0}";
},
{
name = top;
position = "{319, 500}";
}
);
layerId = "90FEB760-6DE5-46E5-A8E9-582C63BAB3AD";
name = Regular;
paths = (
{
closed = 1;
nodes = (
"232 510 OFFCURVE",
"139 451 OFFCURVE",
"139 291 CURVE",
"174 266 LINE",
"174 394 OFFCURVE",
"256 440 OFFCURVE",
"329 440 CURVE SMOOTH",
"398 440 OFFCURVE",
"452 403 OFFCURVE",
"452 292 CURVE SMOOTH",
"452 0 LINE",
"532 0 LINE",
"532 320 LINE SMOOTH",
"532 449 OFFCURVE",
"444 510 OFFCURVE",
"337 510 CURVE SMOOTH"
);
},
{
closed = 1;
nodes = (
"94 500 LINE",
"94 383 LINE",
"94 0 LINE",
"174 0 LINE",
"174 383 LINE",
"159 500 LINE"
);
}
);
width = 620;
}
);
unicode = 006E;
},
{
glyphname = o;
lastChange = "2014-09-22 11:44:41 +0100";
layers = (
{
anchors = (
{
name = top;
position = "{308, 500}";
}
);
background = {
anchors = (
{
name = top;
position = "{244, 500}";
}
);
paths = (
{
closed = 1;
nodes = (
"154 510 OFFCURVE",
"63 412 OFFCURVE",
"63 250 CURVE SMOOTH",
"63 88 OFFCURVE",
"154 -10 OFFCURVE",
"308 -10 CURVE SMOOTH",
"462 -10 OFFCURVE",
"553 88 OFFCURVE",
"553 250 CURVE SMOOTH",
"553 412 OFFCURVE",
"462 510 OFFCURVE",
"308 510 CURVE SMOOTH"
);
},
{
closed = 1;
nodes = (
"409 440 OFFCURVE",
"470 369 OFFCURVE",
"470 250 CURVE SMOOTH",
"470 131 OFFCURVE",
"409 60 OFFCURVE",
"308 60 CURVE SMOOTH",
"207 60 OFFCURVE",
"146 131 OFFCURVE",
"146 250 CURVE SMOOTH",
"146 369 OFFCURVE",
"207 440 OFFCURVE",
"308 440 CURVE SMOOTH"
);
}
);
};
layerId = "40D202EF-20C6-4DB3-A3D1-28A333770DD8";
name = Light;
paths = (
{
closed = 1;
nodes = (
"163 510 OFFCURVE",
"74 412 OFFCURVE",
"74 250 CURVE SMOOTH",
"74 88 OFFCURVE",
"163 -10 OFFCURVE",
"308 -10 CURVE SMOOTH",
"453 -10 OFFCURVE",
"541 88 OFFCURVE",
"541 250 CURVE SMOOTH",
"541 412 OFFCURVE",
"453 510 OFFCURVE",
"308 510 CURVE SMOOTH"
);
},
{
closed = 1;
nodes = (
"443 496 OFFCURVE",
"525 403 OFFCURVE",
"525 250 CURVE SMOOTH",
"525 97 OFFCURVE",
"443 4 OFFCURVE",
"308 4 CURVE SMOOTH",
"173 4 OFFCURVE",
"90 97 OFFCURVE",
"90 250 CURVE SMOOTH",
"90 403 OFFCURVE",
"173 496 OFFCURVE",
"308 496 CURVE SMOOTH"
);
}
);
width = 615;
},
{
anchors = (
{
name = top;
position = "{307, 500}";
}
);
layerId = "90FEB760-6DE5-46E5-A8E9-582C63BAB3AD";
name = Regular;
paths = (
{
closed = 1;
nodes = (
"153 510 OFFCURVE",
"62 412 OFFCURVE",
"62 250 CURVE SMOOTH",
"62 88 OFFCURVE",
"153 -10 OFFCURVE",
"307 -10 CURVE SMOOTH",
"461 -10 OFFCURVE",
"552 88 OFFCURVE",
"552 250 CURVE SMOOTH",
"552 412 OFFCURVE",
"461 510 OFFCURVE",
"307 510 CURVE SMOOTH"
);
},
{
closed = 1;
nodes = (
"408 440 OFFCURVE",
"469 369 OFFCURVE",
"469 250 CURVE SMOOTH",
"469 131 OFFCURVE",
"408 60 OFFCURVE",
"307 60 CURVE SMOOTH",
"206 60 OFFCURVE",
"145 131 OFFCURVE",
"145 250 CURVE SMOOTH",
"145 369 OFFCURVE",
"206 440 OFFCURVE",
"307 440 CURVE SMOOTH"
);
}
);
width = 614;
}
);
unicode = 006F;
},
{
glyphname = omacron;
lastChange = "2014-09-22 11:44:41 +0100";
layers = (
{
background = {
paths = (
{
closed = 1;
nodes = (
"149 510 OFFCURVE",
"58 412 OFFCURVE",
"58 250 CURVE SMOOTH",
"58 88 OFFCURVE",
"149 -10 OFFCURVE",
"303 -10 CURVE SMOOTH",
"457 -10 OFFCURVE",
"548 88 OFFCURVE",
"548 250 CURVE SMOOTH",
"548 412 OFFCURVE",
"457 510 OFFCURVE",
"303 510 CURVE SMOOTH"
);
},
{
closed = 1;
nodes = (
"404 440 OFFCURVE",
"465 369 OFFCURVE",
"465 250 CURVE SMOOTH",
"465 131 OFFCURVE",
"404 60 OFFCURVE",
"303 60 CURVE SMOOTH",
"202 60 OFFCURVE",
"141 131 OFFCURVE",
"141 250 CURVE SMOOTH",
"141 369 OFFCURVE",
"202 440 OFFCURVE",
"303 440 CURVE SMOOTH"
);
},
{
closed = 1;
nodes = (
"129 637 LINE",
"477 637 LINE",
"477 704 LINE",
"129 704 LINE"
);
}
);
};
components = (
{
name = o;
transform = "{1, 0, 0, 1, 0, 0}";
},
{
name = macron;
transform = "{1, 0, 0, 1, 33, -62}";
}
);
layerId = "40D202EF-20C6-4DB3-A3D1-28A333770DD8";
name = Light;
width = 615;
},
{
components = (
{
name = o;
transform = "{1, 0, 0, 1, 0, 0}";
},
{
name = macron;
transform = "{1, 0, 0, 1, 57, 0}";
}
);
layerId = "90FEB760-6DE5-46E5-A8E9-582C63BAB3AD";
name = Regular;
width = 614;
}
);
unicode = 014D;
},
{
glyphname = oslash;
lastChange = "2014-09-22 11:44:41 +0100";
layers = (
{
background = {
paths = (
{
closed = 1;
nodes = (
"486 540 LINE",
"63 -41 LINE",
"130 -41 LINE",
"553 540 LINE"
);
},
{
closed = 1;
nodes = (
"148 510 OFFCURVE",
"57 412 OFFCURVE",
"57 250 CURVE SMOOTH",
"57 88 OFFCURVE",
"148 -10 OFFCURVE",
"302 -10 CURVE SMOOTH",
"456 -10 OFFCURVE",
"547 88 OFFCURVE",
"547 250 CURVE SMOOTH",
"547 412 OFFCURVE",
"456 510 OFFCURVE",
"302 510 CURVE SMOOTH"
);
},
{
closed = 1;
nodes = (
"403 440 OFFCURVE",
"464 369 OFFCURVE",
"464 250 CURVE SMOOTH",
"464 131 OFFCURVE",
"403 60 OFFCURVE",
"302 60 CURVE SMOOTH",
"201 60 OFFCURVE",
"140 131 OFFCURVE",
"140 250 CURVE SMOOTH",
"140 369 OFFCURVE",
"201 440 OFFCURVE",
"302 440 CURVE SMOOTH"
);
}
);
};
components = (
{
name = o;
transform = "{1, 0, 0, 1, -1, 0}";
}
);
guideLines = (
{
angle = 90;
position = "{555, 257}";
},
{
angle = 90;
position = "{65, 257}";
}
);
layerId = "40D202EF-20C6-4DB3-A3D1-28A333770DD8";
name = Light;
paths = (
{
closed = 1;
nodes = (
"517 540 LINE",
"75 -31 LINE",
"96 -31 LINE",
"538 540 LINE"
);
}
);
width = 613;
},
{
components = (
{
name = o;
transform = "{1, 0, 0, 1, 0, 0}";
}
);
guideLines = (
{
angle = 90;
position = "{558, 257}";
},
{
angle = 90;
position = "{68, 257}";
}
);
layerId = "90FEB760-6DE5-46E5-A8E9-582C63BAB3AD";
name = Regular;
paths = (
{
closed = 1;
nodes = (
"491 540 LINE",
"68 -41 LINE",
"135 -41 LINE",
"558 540 LINE"
);
}
);
width = 626;
}
);
unicode = 00F8;
},
{
glyphname = oe;
lastChange = "2014-09-22 11:44:41 +0100";
layers = (
{
anchors = (
{
name = bottom;
position = "{759, 0}";
},
{
name = ogonek;
position = "{903, 0}";
},
{
name = top;
position = "{750, 500}";
}
);
background = {
paths = (
{
closed = 1;
nodes = (
"123 510 OFFCURVE",
"32 412 OFFCURVE",
"32 250 CURVE SMOOTH",
"32 88 OFFCURVE",
"123 -10 OFFCURVE",
"277 -10 CURVE SMOOTH",
"425 -10 OFFCURVE",
"512 88 OFFCURVE",
"512 250 CURVE SMOOTH",
"512 412 OFFCURVE",
"425 510 OFFCURVE",
"277 510 CURVE SMOOTH"
);
},
{
closed = 1;
nodes = (
"378 440 OFFCURVE",
"439 369 OFFCURVE",
"439 250 CURVE SMOOTH",
"439 131 OFFCURVE",
"378 60 OFFCURVE",
"277 60 CURVE SMOOTH",
"176 60 OFFCURVE",
"115 131 OFFCURVE",
"115 250 CURVE SMOOTH",
"115 369 OFFCURVE",
"176 440 OFFCURVE",
"277 440 CURVE SMOOTH"
);
},
{
closed = 1;
nodes = (
"530 510 OFFCURVE",
"449 412 OFFCURVE",
"449 250 CURVE SMOOTH",
"449 88 OFFCURVE",
"536 -10 OFFCURVE",
"681 -10 CURVE SMOOTH",
"789 -10 OFFCURVE",
"851 31 OFFCURVE",
"889 99 CURVE",
"822 134 LINE",
"804 86 OFFCURVE",
"754 60 OFFCURVE",
"681 60 CURVE SMOOTH",
"580 60 OFFCURVE",
"517 131 OFFCURVE",
"517 250 CURVE SMOOTH",
"517 369 OFFCURVE",
"574 440 OFFCURVE",
"675 440 CURVE SMOOTH",
"770 440 OFFCURVE",
"828 368 OFFCURVE",
"824 255 CURVE SMOOTH",
"823 220 LINE",
"900 220 LINE",
"900 255 LINE SMOOTH",
"900 412 OFFCURVE",
"820 510 OFFCURVE",
"675 510 CURVE SMOOTH"
);
},
{
closed = 1;
nodes = (
"491 291 LINE",
"491 220 LINE",
"863 220 LINE",
"863 291 LINE"
);
}
);
};
layerId = "40D202EF-20C6-4DB3-A3D1-28A333770DD8";
name = Light;
paths = (
{
closed = 1;
nodes = (
"163 510 OFFCURVE",
"74 412 OFFCURVE",
"74 250 CURVE SMOOTH",
"74 88 OFFCURVE",
"163 -10 OFFCURVE",
"308 -10 CURVE SMOOTH",
"453 -10 OFFCURVE",
"541 88 OFFCURVE",
"541 250 CURVE SMOOTH",
"541 412 OFFCURVE",
"453 510 OFFCURVE",
"308 510 CURVE SMOOTH"
);
},
{
closed = 1;
nodes = (
"443 496 OFFCURVE",
"525 403 OFFCURVE",
"525 250 CURVE SMOOTH",
"525 97 OFFCURVE",
"443 4 OFFCURVE",
"308 4 CURVE SMOOTH",
"173 4 OFFCURVE",
"90 97 OFFCURVE",
"90 250 CURVE SMOOTH",
"90 403 OFFCURVE",
"173 496 OFFCURVE",
"308 496 CURVE SMOOTH"
);
},
{
closed = 1;
nodes = (
"610 510 OFFCURVE",
"526 413 OFFCURVE",
"526 250 CURVE SMOOTH",
"526 87 OFFCURVE",
"611 -10 OFFCURVE",
"755 -10 CURVE SMOOTH",
"846 -10 OFFCURVE",
"922 35 OFFCURVE",
"957 109 CURVE",
"944 116 LINE",
"911 46 OFFCURVE",
"839 4 OFFCURVE",
"755 4 CURVE SMOOTH",
"620 4 OFFCURVE",
"541 96 OFFCURVE",
"541 250 CURVE SMOOTH",
"541 404 OFFCURVE",
"619 496 OFFCURVE",
"750 496 CURVE SMOOTH",
"878 496 OFFCURVE",
"947 401 OFFCURVE",
"947 244 CURVE SMOOTH",
"947 239 LINE",
"961 239 LINE",
"961 246 LINE SMOOTH",
"961 411 OFFCURVE",
"882 510 OFFCURVE",
"750 510 CURVE SMOOTH"
);
},
{
closed = 1;
nodes = (
"534 254 LINE",
"534 239 LINE",
"956 239 LINE",
"956 254 LINE"
);
}
);
width = 1011;
},
{
layerId = "90FEB760-6DE5-46E5-A8E9-582C63BAB3AD";
name = Regular;
paths = (
{
closed = 1;
nodes = (
"153 510 OFFCURVE",
"62 412 OFFCURVE",
"62 250 CURVE SMOOTH",
"62 88 OFFCURVE",
"153 -10 OFFCURVE",
"307 -10 CURVE SMOOTH",
"455 -10 OFFCURVE",
"542 88 OFFCURVE",
"542 250 CURVE SMOOTH",
"542 412 OFFCURVE",
"455 510 OFFCURVE",
"307 510 CURVE SMOOTH"
);
},
{
closed = 1;
nodes = (
"408 440 OFFCURVE",
"469 369 OFFCURVE",
"469 250 CURVE SMOOTH",
"469 131 OFFCURVE",
"408 60 OFFCURVE",
"307 60 CURVE SMOOTH",
"206 60 OFFCURVE",
"145 131 OFFCURVE",
"145 250 CURVE SMOOTH",
"145 369 OFFCURVE",
"206 440 OFFCURVE",
"307 440 CURVE SMOOTH"
);
},
{
closed = 1;
nodes = (
"560 510 OFFCURVE",
"479 412 OFFCURVE",
"479 250 CURVE SMOOTH",
"479 88 OFFCURVE",
"566 -10 OFFCURVE",
"711 -10 CURVE SMOOTH",
"819 -10 OFFCURVE",
"881 31 OFFCURVE",
"919 99 CURVE",
"852 134 LINE",
"834 86 OFFCURVE",
"784 60 OFFCURVE",
"711 60 CURVE SMOOTH",
"610 60 OFFCURVE",
"547 131 OFFCURVE",
"547 250 CURVE SMOOTH",
"547 369 OFFCURVE",
"604 440 OFFCURVE",
"705 440 CURVE SMOOTH",
"800 440 OFFCURVE",
"858 368 OFFCURVE",
"854 255 CURVE SMOOTH",
"853 220 LINE",
"930 220 LINE",
"930 255 LINE SMOOTH",
"930 412 OFFCURVE",
"850 510 OFFCURVE",
"705 510 CURVE SMOOTH"
);
},
{
closed = 1;
nodes = (
"521 291 LINE",
"521 220 LINE",
"893 220 LINE",
"893 291 LINE"
);
}
);
width = 991;
}
);
leftMetricsKey = o;
rightMetricsKey = e;
unicode = 0153;
},
{
glyphname = p;
lastChange = "2014-09-22 11:44:41 +0100";
layers = (
{
background = {
components = (
{
name = n;
transform = "{1, 0, 0, 1, 0, 0}";
}
);
};
components = (
{
name = bowl;
transform = "{-1, 0, 0, 1, 671, 0}";
}
);
layerId = "40D202EF-20C6-4DB3-A3D1-28A333770DD8";
name = Light;
paths = (
{
closed = 1;
nodes = (
"98 500 LINE",
"98 399 LINE",
"98 -210 LINE",
"114 -210 LINE",
"114 321 LINE",
"114 500 LINE"
);
}
);
width = 621;
},
{
components = (
{
name = bowl;
transform = "{-1, 0, 0, 1, 648, 0}";
}
);
layerId = "90FEB760-6DE5-46E5-A8E9-582C63BAB3AD";
name = Regular;
paths = (
{
closed = 1;
nodes = (
"94 500 LINE",
"94 383 LINE",
"94 -210 LINE",
"174 -210 LINE",
"174 383 LINE",
"159 500 LINE"
);
}
);
width = 630;
}
);
leftMetricsKey = n;
rightMetricsKey = o;
unicode = 0070;
},
{
glyphname = thorn;
lastChange = "2014-09-22 11:44:41 +0100";
layers = (
{
components = (
{
name = bowl;
transform = "{-1, -0, 0, -1, 671, 562}";
}
);
layerId = "40D202EF-20C6-4DB3-A3D1-28A333770DD8";
name = Light;
paths = (
{
closed = 1;
nodes = (
"98 730 LINE",
"98 -210 LINE",
"114 -210 LINE",
"114 730 LINE"
);
}
);
width = 621;
},
{
components = (
{
name = bowl;
transform = "{-1, -0, 0, -1, 648, 500}";
}
);
layerId = "90FEB760-6DE5-46E5-A8E9-582C63BAB3AD";
name = Regular;
paths = (
{
closed = 1;
nodes = (
"94 730 LINE",
"94 -210 LINE",
"174 -210 LINE",
"174 730 LINE"
);
}
);
width = 630;
}
);
leftMetricsKey = n;
rightMetricsKey = o;
unicode = 00FE;
},
{
glyphname = q;
lastChange = "2014-09-22 11:44:41 +0100";
layers = (
{
components = (
{
name = bowl;
transform = "{1, 0, 0, 1, -50, 0}";
}
);
layerId = "40D202EF-20C6-4DB3-A3D1-28A333770DD8";
name = Light;
paths = (
{
closed = 1;
nodes = (
"507 500 LINE",
"507 318 LINE",
"507 -210 LINE",
"523 -210 LINE",
"523 399 LINE",
"523 500 LINE"
);
}
);
width = 621;
},
{
components = (
{
name = bowl;
transform = "{1, 0, 0, 1, -18, 0}";
}
);
layerId = "90FEB760-6DE5-46E5-A8E9-582C63BAB3AD";
name = Regular;
paths = (
{
closed = 1;
nodes = (
"471 500 LINE",
"456 383 LINE",
"456 -210 LINE",
"536 -210 LINE",
"536 383 LINE",
"536 500 LINE"
);
}
);
width = 630;
}
);
leftMetricsKey = o;
rightMetricsKey = "=|n";
unicode = 0071;
},
{
glyphname = r;
lastChange = "2014-09-22 11:44:41 +0100";
layers = (
{
anchors = (
{
name = bottom;
position = "{114, 0}";
},
{
name = top;
position = "{209, 500}";
}
);
background = {
paths = (
{
closed = 1;
nodes = (
"215 510 OFFCURVE",
"151 438 OFFCURVE",
"151 295 CURVE",
"178 270 LINE",
"178 382 OFFCURVE",
"250 435 OFFCURVE",
"310 435 CURVE SMOOTH",
"336 435 OFFCURVE",
"358 430 OFFCURVE",
"373 422 CURVE",
"389 500 LINE",
"374 508 OFFCURVE",
"351 510 OFFCURVE",
"334 510 CURVE SMOOTH"
);
},
{
closed = 1;
nodes = (
"98 500 LINE",
"98 383 LINE",
"98 0 LINE",
"178 0 LINE",
"178 383 LINE",
"163 500 LINE"
);
}
);
};
layerId = "40D202EF-20C6-4DB3-A3D1-28A333770DD8";
name = Light;
paths = (
{
closed = 1;
nodes = (
"175 510 OFFCURVE",
"107 413 OFFCURVE",
"107 307 CURVE",
"114 291 LINE",
"114 395 OFFCURVE",
"174 496 OFFCURVE",
"276 496 CURVE SMOOTH",
"311 496 OFFCURVE",
"327 487 OFFCURVE",
"340 474 CURVE",
"349 486 LINE",
"335 500 OFFCURVE",
"312 510 OFFCURVE",
"278 510 CURVE SMOOTH"
);
},
{
closed = 1;
nodes = (
"98 500 LINE",
"98 291 LINE",
"98 0 LINE",
"114 0 LINE",
"114 291 LINE",
"114 500 LINE"
);
}
);
width = 355;
},
{
anchors = (
{
name = bottom;
position = "{155, 0}";
},
{
name = top;
position = "{221, 500}";
}
);
layerId = "90FEB760-6DE5-46E5-A8E9-582C63BAB3AD";
name = Regular;
paths = (
{
closed = 1;
nodes = (
"211 510 OFFCURVE",
"147 438 OFFCURVE",
"147 295 CURVE",
"174 270 LINE",
"174 382 OFFCURVE",
"246 435 OFFCURVE",
"306 435 CURVE SMOOTH",
"332 435 OFFCURVE",
"354 430 OFFCURVE",
"369 422 CURVE",
"385 500 LINE",
"370 508 OFFCURVE",
"347 510 OFFCURVE",
"330 510 CURVE SMOOTH"
);
},
{
closed = 1;
nodes = (
"94 500 LINE",
"94 383 LINE",
"94 0 LINE",
"174 0 LINE",
"174 383 LINE",
"159 500 LINE"
);
}
);
width = 409;
}
);
leftMetricsKey = n;
unicode = 0072;
},
{
glyphname = s;
lastChange = "2014-09-22 11:44:41 +0100";
layers = (
{
anchors = (
{
name = bottom;
position = "{251, 0}";
},
{
name = top;
position = "{238, 500}";
}
);
background = {
anchors = (
{
name = top;
position = "{278, 500}";
},
{
name = bottom;
position = "{281, 0}";
}
);
paths = (
{
closed = 1;
nodes = (
"119 510 OFFCURVE",
"44 441 OFFCURVE",
"44 360 CURVE SMOOTH",
"44 279 OFFCURVE",
"99 237 OFFCURVE",
"223 214 CURVE SMOOTH",
"349 191 OFFCURVE",
"369 171 OFFCURVE",
"369 134 CURVE SMOOTH",
"369 93 OFFCURVE",
"330 60 OFFCURVE",
"248 60 CURVE SMOOTH",
"176 60 OFFCURVE",
"116 91 OFFCURVE",
"92 150 CURVE",
"23 117 LINE",
"55 24 OFFCURVE",
"138 -10 OFFCURVE",
"240 -10 CURVE SMOOTH",
"368 -10 OFFCURVE",
"449 51 OFFCURVE",
"449 138 CURVE SMOOTH",
"449 220 OFFCURVE",
"397 259 OFFCURVE",
"283 279 CURVE SMOOTH",
"151 302 OFFCURVE",
"124 327 OFFCURVE",
"124 366 CURVE SMOOTH",
"124 404 OFFCURVE",
"174 440 OFFCURVE",
"241 440 CURVE SMOOTH",
"304 440 OFFCURVE",
"349 416 OFFCURVE",
"371 350 CURVE",
"439 390 LINE",
"411 472 OFFCURVE",
"348 510 OFFCURVE",
"241 510 CURVE SMOOTH"
);
}
);
};
layerId = "40D202EF-20C6-4DB3-A3D1-28A333770DD8";
name = Light;
paths = (
{
closed = 1;
nodes = (
"136 510 OFFCURVE",
"58 451 OFFCURVE",
"58 374 CURVE SMOOTH",
"58 183 OFFCURVE",
"415 293 OFFCURVE",
"415 124 CURVE SMOOTH",
"415 51 OFFCURVE",
"348 4 OFFCURVE",
"242 4 CURVE SMOOTH",
"141 4 OFFCURVE",
"68 43 OFFCURVE",
"51 118 CURVE",
"36 111 LINE",
"55 31 OFFCURVE",
"135 -10 OFFCURVE",
"239 -10 CURVE SMOOTH",
"357 -10 OFFCURVE",
"431 41 OFFCURVE",
"431 124 CURVE SMOOTH",
"431 310 OFFCURVE",
"74 196 OFFCURVE",
"74 378 CURVE SMOOTH",
"74 445 OFFCURVE",
"145 496 OFFCURVE",
"243 496 CURVE SMOOTH",
"337 496 OFFCURVE",
"398 459 OFFCURVE",
"415 377 CURVE",
"429 385 LINE",
"410 472 OFFCURVE",
"345 510 OFFCURVE",
"243 510 CURVE SMOOTH"
);
}
);
width = 477;
},
{
anchors = (
{
name = bottom;
position = "{285, 0}";
},
{
name = top;
position = "{282, 500}";
}
);
layerId = "90FEB760-6DE5-46E5-A8E9-582C63BAB3AD";
name = Regular;
paths = (
{
closed = 1;
nodes = (
"160 510 OFFCURVE",
"85 441 OFFCURVE",
"85 360 CURVE SMOOTH",
"85 166 OFFCURVE",
"410 249 OFFCURVE",
"410 134 CURVE SMOOTH",
"410 93 OFFCURVE",
"371 60 OFFCURVE",
"289 60 CURVE SMOOTH",
"217 60 OFFCURVE",
"157 91 OFFCURVE",
"133 150 CURVE",
"64 117 LINE",
"96 24 OFFCURVE",
"179 -10 OFFCURVE",
"281 -10 CURVE SMOOTH",
"409 -10 OFFCURVE",
"490 51 OFFCURVE",
"490 138 CURVE SMOOTH",
"490 335 OFFCURVE",
"165 241 OFFCURVE",
"165 367 CURVE SMOOTH",
"165 404 OFFCURVE",
"215 440 OFFCURVE",
"282 440 CURVE SMOOTH",
"345 440 OFFCURVE",
"390 416 OFFCURVE",
"412 350 CURVE",
"480 390 LINE",
"452 472 OFFCURVE",
"389 510 OFFCURVE",
"282 510 CURVE SMOOTH"
);
}
);
width = 548;
}
);
unicode = 0073;
},
{
glyphname = germandbls;
lastChange = "2014-09-22 11:44:41 +0100";
layers = (
{
background = {
paths = (
{
closed = 1;
nodes = (
"275 392 LINE",
"275 347 LINE",
"314 347 LINE SMOOTH",
"426 347 OFFCURVE",
"488 299 OFFCURVE",
"488 206 CURVE SMOOTH",
"488 123 OFFCURVE",
"439 63 OFFCURVE",
"348 63 CURVE SMOOTH",
"310 63 OFFCURVE",
"282 72 OFFCURVE",
"262 88 CURVE",
"239 23 LINE",
"257 6 OFFCURVE",
"299 -10 OFFCURVE",
"344 -10 CURVE SMOOTH",
"492 -10 OFFCURVE",
"565 91 OFFCURVE",
"565 197 CURVE SMOOTH",
"565 286 OFFCURVE",
"514 392 OFFCURVE",
"378 392 CURVE SMOOTH"
);
},
{
closed = 1;
nodes = (
"410 660 OFFCURVE",
"457 623 OFFCURVE",
"457 544 CURVE SMOOTH",
"457 474 OFFCURVE",
"404 422 OFFCURVE",
"314 422 CURVE SMOOTH",
"275 422 LINE",
"275 392 LINE",
"378 392 LINE SMOOTH",
"480 392 OFFCURVE",
"539 469 OFFCURVE",
"539 549 CURVE SMOOTH",
"539 631 OFFCURVE",
"485 735 OFFCURVE",
"331 735 CURVE SMOOTH",
"153 735 OFFCURVE",
"98 634 OFFCURVE",
"98 497 CURVE SMOOTH",
"98 0 LINE",
"178 0 LINE",
"178 473 LINE SMOOTH",
"178 596 OFFCURVE",
"211 660 OFFCURVE",
"323 660 CURVE SMOOTH"
);
}
);
};
hints = (
{
place = "{257.299790, 0.000000}";
},
{
place = "{257.299790, 0.000000}";
}
);
layerId = "40D202EF-20C6-4DB3-A3D1-28A333770DD8";
name = Light;
paths = (
{
closed = 1;
nodes = (
"261 379 LINE",
"261 370 LINE",
"305 370 LINE SMOOTH",
"421 370 OFFCURVE",
"503 310 OFFCURVE",
"503 182 CURVE SMOOTH",
"503 73 OFFCURVE",
"435 3 OFFCURVE",
"333 3 CURVE SMOOTH",
"292 3 OFFCURVE",
"262 15 OFFCURVE",
"237 44 CURVE",
"228 34 LINE",
"251 5 OFFCURVE",
"289 -10 OFFCURVE",
"333 -10 CURVE SMOOTH",
"444 -10 OFFCURVE",
"519 65 OFFCURVE",
"519 182 CURVE SMOOTH",
"519 315 OFFCURVE",
"435 379 OFFCURVE",
"314 379 CURVE SMOOTH"
);
},
{
closed = 1;
nodes = (
"410 721 OFFCURVE",
"474 662 OFFCURVE",
"474 563 CURVE SMOOTH",
"474 449 OFFCURVE",
"403 384 OFFCURVE",
"305 384 CURVE SMOOTH",
"261 384 LINE",
"261 376 LINE",
"314 376 LINE SMOOTH",
"416 376 OFFCURVE",
"490 445 OFFCURVE",
"490 563 CURVE SMOOTH",
"490 671 OFFCURVE",
"420 735 OFFCURVE",
"306 735 CURVE SMOOTH",
"170 735 OFFCURVE",
"98 660 OFFCURVE",
"98 516 CURVE SMOOTH",
"98 0 LINE",
"113 0 LINE",
"113 505 LINE SMOOTH",
"113 647 OFFCURVE",
"180 721 OFFCURVE",
"306 721 CURVE SMOOTH"
);
}
);
width = 572;
},
{
hints = (
{
place = "{257.299790, 0.000000}";
},
{
place = "{257.299790, 0.000000}";
}
);
layerId = "90FEB760-6DE5-46E5-A8E9-582C63BAB3AD";
name = Regular;
paths = (
{
closed = 1;
nodes = (
"271 392 LINE",
"271 347 LINE",
"310 347 LINE SMOOTH",
"422 347 OFFCURVE",
"484 299 OFFCURVE",
"484 206 CURVE SMOOTH",
"484 123 OFFCURVE",
"435 63 OFFCURVE",
"344 63 CURVE SMOOTH",
"306 63 OFFCURVE",
"278 72 OFFCURVE",
"258 88 CURVE",
"235 23 LINE",
"253 6 OFFCURVE",
"295 -10 OFFCURVE",
"340 -10 CURVE SMOOTH",
"488 -10 OFFCURVE",
"561 91 OFFCURVE",
"561 197 CURVE SMOOTH",
"561 286 OFFCURVE",
"510 392 OFFCURVE",
"374 392 CURVE SMOOTH"
);
},
{
closed = 1;
nodes = (
"406 660 OFFCURVE",
"453 623 OFFCURVE",
"453 544 CURVE SMOOTH",
"453 474 OFFCURVE",
"400 422 OFFCURVE",
"310 422 CURVE SMOOTH",
"271 422 LINE",
"271 392 LINE",
"374 392 LINE SMOOTH",
"476 392 OFFCURVE",
"535 469 OFFCURVE",
"535 549 CURVE SMOOTH",
"535 631 OFFCURVE",
"481 735 OFFCURVE",
"327 735 CURVE SMOOTH",
"149 735 OFFCURVE",
"94 634 OFFCURVE",
"94 497 CURVE SMOOTH",
"94 0 LINE",
"174 0 LINE",
"174 473 LINE SMOOTH",
"174 596 OFFCURVE",
"207 660 OFFCURVE",
"319 660 CURVE SMOOTH"
);
}
);
width = 610;
}
);
leftMetricsKey = n;
unicode = 00DF;
},
{
glyphname = t;
lastChange = "2014-09-22 11:44:41 +0100";
layers = (
{
anchors = (
{
name = bottom;
position = "{229, 0}";
},
{
name = center;
position = "{138, 281}";
},
{
name = topright;
position = "{279, 862}";
}
);
background = {
anchors = (
{
name = center;
position = "{152, 250}";
},
{
name = bottom;
position = "{235, 0}";
},
{
name = topright;
position = "{280, 767}";
}
);
paths = (
{
closed = 1;
nodes = (
"130 620 LINE",
"130 124 LINE SMOOTH",
"131 27 OFFCURVE",
"195 -10 OFFCURVE",
"269 -10 CURVE SMOOTH",
"324 -10 OFFCURVE",
"367 7 OFFCURVE",
"398 35 CURVE",
"370 102 LINE",
"347 79 OFFCURVE",
"321 65 OFFCURVE",
"285 65 CURVE SMOOTH",
"241 65 OFFCURVE",
"210 89 OFFCURVE",
"210 138 CURVE SMOOTH",
"210 642 LINE"
);
},
{
closed = 1;
nodes = (
"30 500 LINE",
"30 431 LINE",
"385 431 LINE",
"385 500 LINE"
);
}
);
};
layerId = "40D202EF-20C6-4DB3-A3D1-28A333770DD8";
name = Light;
paths = (
{
closed = 1;
nodes = (
"130 630 LINE",
"131 126 LINE SMOOTH",
"131 37 OFFCURVE",
"169 -10 OFFCURVE",
"250 -10 CURVE SMOOTH",
"290 -10 OFFCURVE",
"326 7 OFFCURVE",
"346 28 CURVE",
"338 41 LINE",
"314 15 OFFCURVE",
"285 4 OFFCURVE",
"250 4 CURVE SMOOTH",
"178 4 OFFCURVE",
"146 46 OFFCURVE",
"146 126 CURVE SMOOTH",
"146 635 LINE"
);
},
{
closed = 1;
nodes = (
"30 500 LINE",
"30 486 LINE",
"339 486 LINE",
"339 500 LINE"
);
}
);
width = 383;
},
{
anchors = (
{
name = bottom;
position = "{243, 0}";
},
{
name = center;
position = "{160, 250}";
},
{
name = topright;
position = "{288, 767}";
}
);
layerId = "90FEB760-6DE5-46E5-A8E9-582C63BAB3AD";
name = Regular;
paths = (
{
closed = 1;
nodes = (
"120 620 LINE",
"120 124 LINE SMOOTH",
"121 27 OFFCURVE",
"185 -10 OFFCURVE",
"259 -10 CURVE SMOOTH",
"314 -10 OFFCURVE",
"357 7 OFFCURVE",
"388 35 CURVE",
"360 102 LINE",
"337 79 OFFCURVE",
"311 65 OFFCURVE",
"275 65 CURVE SMOOTH",
"231 65 OFFCURVE",
"200 89 OFFCURVE",
"200 138 CURVE SMOOTH",
"200 642 LINE"
);
},
{
closed = 1;
nodes = (
"20 500 LINE",
"20 431 LINE",
"375 431 LINE",
"375 500 LINE"
);
}
);
width = 423;
}
);
unicode = 0074;
},
{
glyphname = tcaron;
lastChange = "2014-09-22 11:44:41 +0100";
layers = (
{
background = {
components = (
{
name = t;
transform = "{1, 0, 0, 1, 0, 0}";
}
);
paths = (
{
closed = 1;
nodes = (
"285 751 LINE",
"266 564 LINE",
"329 564 LINE",
"375 751 LINE"
);
}
);
};
components = (
{
name = t;
transform = "{1, 0, 0, 1, 0, 0}";
},
{
name = caron.alt;
transform = "{1, 0, 0, 1, 181, 41}";
}
);
layerId = "40D202EF-20C6-4DB3-A3D1-28A333770DD8";
name = Light;
width = 383;
},
{
components = (
{
name = t;
transform = "{1, 0, 0, 1, 0, 0}";
},
{
name = caron.alt;
transform = "{1, 0, 0, 1, 199, 37}";
}
);
layerId = "90FEB760-6DE5-46E5-A8E9-582C63BAB3AD";
name = Regular;
width = 423;
}
);
unicode = 0165;
},
{
glyphname = u;
lastChange = "2014-09-22 11:44:41 +0100";
layers = (
{
anchors = (
{
name = ogonek;
position = "{494, 0}";
},
{
name = top;
position = "{289, 500}";
}
);
background = {
paths = (
{
closed = 1;
nodes = (
"84 499 LINE",
"84 163 LINE",
"84 37 OFFCURVE",
"157 -10 OFFCURVE",
"250 -10 CURVE",
"365 -10 OFFCURVE",
"439 44 OFFCURVE",
"445 185 CURVE",
"473 169 LINE",
"451 55 OFFCURVE",
"362 4 OFFCURVE",
"266 4 CURVE",
"170 4 OFFCURVE",
"100 51 OFFCURVE",
"100 187 CURVE",
"100 499 LINE"
);
},
{
closed = 1;
nodes = (
"478 499 LINE",
"478 102 LINE",
"490 1 LINE",
"494 1 LINE",
"494 101 LINE",
"494 499 LINE"
);
}
);
};
layerId = "40D202EF-20C6-4DB3-A3D1-28A333770DD8";
name = Light;
paths = (
{
closed = 1;
nodes = (
"94 500 LINE",
"94 167 LINE SMOOTH",
"94 54 OFFCURVE",
"167 -10 OFFCURVE",
"269 -10 CURVE SMOOTH",
"396 -10 OFFCURVE",
"485 77 OFFCURVE",
"485 183 CURVE",
"478 199 LINE",
"478 95 OFFCURVE",
"391 4 OFFCURVE",
"272 4 CURVE SMOOTH",
"177 4 OFFCURVE",
"110 63 OFFCURVE",
"110 169 CURVE SMOOTH",
"110 500 LINE"
);
},
{
closed = 1;
nodes = (
"478 500 LINE",
"478 199 LINE",
"478 0 LINE",
"494 0 LINE",
"494 199 LINE",
"494 500 LINE"
);
}
);
width = 592;
},
{
anchors = (
{
name = ogonek;
position = "{526, 0}";
},
{
name = top;
position = "{308, 500}";
}
);
layerId = "90FEB760-6DE5-46E5-A8E9-582C63BAB3AD";
name = Regular;
paths = (
{
closed = 1;
nodes = (
"88 500 LINE",
"88 173 LINE SMOOTH",
"88 41 OFFCURVE",
"173 -10 OFFCURVE",
"272 -10 CURVE SMOOTH",
"396 -10 OFFCURVE",
"482 53 OFFCURVE",
"482 208 CURVE",
"446 228 LINE",
"446 110 OFFCURVE",
"371 60 OFFCURVE",
"286 60 CURVE SMOOTH",
"214 60 OFFCURVE",
"168 91 OFFCURVE",
"168 194 CURVE SMOOTH",
"168 500 LINE"
);
},
{
closed = 1;
nodes = (
"446 500 LINE",
"446 117 LINE",
"461 0 LINE",
"526 0 LINE",
"526 117 LINE",
"526 500 LINE"
);
}
);
width = 620;
}
);
leftMetricsKey = "=|n";
rightMetricsKey = "=|n";
unicode = 0075;
},
{
glyphname = umacron;
lastChange = "2014-09-22 11:44:41 +0100";
layers = (
{
background = {
anchors = (
{
name = ogonek;
position = "{564, 10}";
},
{
name = top;
position = "{314, 500}";
}
);
paths = (
{
closed = 1;
nodes = (
"487 704 LINE",
"139 704 LINE",
"139 637 LINE",
"487 637 LINE"
);
},
{
closed = 1;
nodes = (
"452 500 LINE",
"452 184 LINE",
"439 106 OFFCURVE",
"379 60 OFFCURVE",
"292 60 CURVE SMOOTH",
"220 60 OFFCURVE",
"174 91 OFFCURVE",
"174 194 CURVE SMOOTH",
"174 500 LINE",
"94 500 LINE",
"94 173 LINE SMOOTH",
"94 41 OFFCURVE",
"179 -10 OFFCURVE",
"278 -10 CURVE SMOOTH",
"362.578 -10 OFFCURVE",
"422.963 19.311 OFFCURVE",
"457.253 76.026 CURVE",
"467 0 LINE",
"532 0 LINE",
"532 500 LINE"
);
}
);
};
components = (
{
name = u;
transform = "{1, 0, 0, 1, 0, 0}";
},
{
name = macron;
transform = "{1, 0, 0, 1, 14, -62}";
}
);
layerId = "40D202EF-20C6-4DB3-A3D1-28A333770DD8";
name = Light;
width = 592;
},
{
components = (
{
name = u;
transform = "{1, 0, 0, 1, 0, 0}";
},
{
name = macron;
transform = "{1, 0, 0, 1, 58, 0}";
}
);
layerId = "90FEB760-6DE5-46E5-A8E9-582C63BAB3AD";
name = Regular;
width = 620;
}
);
unicode = 016B;
},
{
glyphname = v;
lastChange = "2014-09-22 11:44:41 +0100";
layers = (
{
background = {
paths = (
{
closed = 1;
nodes = (
"397 500 LINE",
"193 0 LINE",
"273 0 LINE",
"486 500 LINE"
);
},
{
closed = 1;
nodes = (
"-20 500 LINE",
"193 0 LINE",
"273 0 LINE",
"69 500 LINE"
);
}
);
};
layerId = "40D202EF-20C6-4DB3-A3D1-28A333770DD8";
name = Light;
paths = (
{
closed = 1;
nodes = (
"438 500 LINE",
"229 0 LINE",
"246 0 LINE",
"456 500 LINE"
);
},
{
closed = 1;
nodes = (
"19 500 LINE",
"229 0 LINE",
"246 0 LINE",
"37 500 LINE"
);
}
);
width = 475;
},
{
layerId = "90FEB760-6DE5-46E5-A8E9-582C63BAB3AD";
name = Regular;
paths = (
{
closed = 1;
nodes = (
"428 500 LINE",
"224 0 LINE",
"304 0 LINE",
"517 500 LINE"
);
},
{
closed = 1;
nodes = (
"11 500 LINE",
"224 0 LINE",
"304 0 LINE",
"100 500 LINE"
);
}
);
width = 528;
}
);
unicode = 0076;
},
{
glyphname = w;
lastChange = "2014-09-22 11:44:41 +0100";
layers = (
{
background = {
paths = (
{
closed = 1;
nodes = (
"350 500 LINE",
"527 0 LINE",
"607 0 LINE",
"430 500 LINE"
);
},
{
closed = 1;
nodes = (
"-1 500 LINE",
"173 0 LINE",
"253 0 LINE",
"88 500 LINE"
);
},
{
closed = 1;
nodes = (
"350 500 LINE",
"183 0 LINE",
"253 0 LINE",
"420 500 LINE"
);
},
{
closed = 1;
nodes = (
"692 500 LINE",
"537 0 LINE",
"607 0 LINE",
"781 500 LINE"
);
}
);
};
layerId = "40D202EF-20C6-4DB3-A3D1-28A333770DD8";
name = Light;
paths = (
{
closed = 1;
nodes = (
"378 500 LINE",
"565 0 LINE",
"581 0 LINE",
"395 500 LINE"
);
},
{
closed = 1;
nodes = (
"26 500 LINE",
"192 0 LINE",
"208 0 LINE",
"43 500 LINE"
);
},
{
closed = 1;
nodes = (
"378 500 LINE",
"192 0 LINE",
"208 0 LINE",
"395 500 LINE"
);
},
{
closed = 1;
nodes = (
"730 500 LINE",
"565 0 LINE",
"581 0 LINE",
"747 500 LINE"
);
}
);
width = 773;
},
{
layerId = "90FEB760-6DE5-46E5-A8E9-582C63BAB3AD";
name = Regular;
paths = (
{
closed = 1;
nodes = (
"370 500 LINE",
"547 0 LINE",
"627 0 LINE",
"450 500 LINE"
);
},
{
closed = 1;
nodes = (
"19 500 LINE",
"193 0 LINE",
"273 0 LINE",
"108 500 LINE"
);
},
{
closed = 1;
nodes = (
"370 500 LINE",
"203 0 LINE",
"273 0 LINE",
"440 500 LINE"
);
},
{
closed = 1;
nodes = (
"712 500 LINE",
"557 0 LINE",
"627 0 LINE",
"801 500 LINE"
);
}
);
width = 820;
}
);
unicode = 0077;
},
{
glyphname = x;
lastChange = "2014-09-22 11:44:41 +0100";
layers = (
{
background = {
paths = (
{
closed = 1;
nodes = (
"355 500 LINE",
"212 288 LINE",
"206 288 LINE",
"-2 0 LINE",
"92 0 LINE",
"252 237 LINE",
"256 237 LINE",
"439 500 LINE"
);
},
{
closed = 1;
nodes = (
"15 500 LINE",
"355 0 LINE",
"451 0 LINE",
"111 500 LINE"
);
}
);
};
layerId = "40D202EF-20C6-4DB3-A3D1-28A333770DD8";
name = Light;
paths = (
{
closed = 1;
nodes = (
"370 500 LINE",
"220 268 LINE",
"216 264 LINE",
"32 0 LINE",
"53 0 LINE",
"227 250 LINE",
"230 254 LINE",
"392 500 LINE"
);
},
{
closed = 1;
nodes = (
"41 500 LINE",
"397 0 LINE",
"417 0 LINE",
"63 500 LINE"
);
}
);
width = 445;
},
{
layerId = "90FEB760-6DE5-46E5-A8E9-582C63BAB3AD";
name = Regular;
paths = (
{
closed = 1;
nodes = (
"376 500 LINE",
"235 288 LINE",
"229 288 LINE",
"21 0 LINE",
"115 0 LINE",
"275 237 LINE",
"279 237 LINE",
"464 500 LINE"
);
},
{
closed = 1;
nodes = (
"38 500 LINE",
"378 0 LINE",
"474 0 LINE",
"134 500 LINE"
);
}
);
width = 494;
}
);
unicode = 0078;
},
{
glyphname = y;
lastChange = "2014-09-22 11:44:41 +0100";
layers = (
{
anchors = (
{
name = top;
position = "{238, 562}";
}
);
background = {
anchors = (
{
name = top;
position = "{211, 500}";
}
);
paths = (
{
closed = 1;
nodes = (
"380 500 LINE",
"153 -64 LINE SMOOTH",
"128 -127 OFFCURVE",
"96 -142 OFFCURVE",
"56 -142 CURVE SMOOTH",
"33 -142 OFFCURVE",
"6 -135 OFFCURVE",
"-19 -105 CURVE",
"-47 -173 LINE",
"-19 -203 OFFCURVE",
"11 -215 OFFCURVE",
"61 -215 CURVE SMOOTH",
"135 -215 OFFCURVE",
"180 -182 OFFCURVE",
"213 -103 CURVE SMOOTH",
"466 500 LINE"
);
},
{
closed = 1;
nodes = (
"-40 500 LINE",
"180 0 LINE",
"257 0 LINE",
"51 500 LINE"
);
}
);
};
layerId = "40D202EF-20C6-4DB3-A3D1-28A333770DD8";
name = Light;
paths = (
{
closed = 1;
nodes = (
"444 500 LINE",
"198 -98 LINE SMOOTH",
"165 -178 OFFCURVE",
"130 -201 OFFCURVE",
"78 -201 CURVE SMOOTH",
"50 -201 OFFCURVE",
"23 -193 OFFCURVE",
"8 -170 CURVE",
"-1 -183 LINE",
"13 -204 OFFCURVE",
"42 -215 OFFCURVE",
"77 -215 CURVE SMOOTH",
"139 -215 OFFCURVE",
"177 -188 OFFCURVE",
"213 -101 CURVE SMOOTH",
"462 500 LINE"
);
},
{
closed = 1;
nodes = (
"25 500 LINE",
"238 -1 LINE",
"254 -1 LINE",
"43 500 LINE"
);
}
);
width = 481;
},
{
anchors = (
{
name = top;
position = "{266, 500}";
}
);
layerId = "90FEB760-6DE5-46E5-A8E9-582C63BAB3AD";
name = Regular;
paths = (
{
closed = 1;
nodes = (
"435 500 LINE",
"208 -64 LINE SMOOTH",
"183 -130 OFFCURVE",
"152 -145 OFFCURVE",
"117 -145 CURVE SMOOTH",
"89 -145 OFFCURVE",
"59 -137 OFFCURVE",
"36 -105 CURVE",
"8 -173 LINE",
"36 -203 OFFCURVE",
"68 -215 OFFCURVE",
"118 -215 CURVE SMOOTH",
"192 -215 OFFCURVE",
"234 -181 OFFCURVE",
"275 -84 CURVE SMOOTH",
"521 500 LINE"
);
},
{
closed = 1;
nodes = (
"15 500 LINE",
"235 0 LINE",
"312 0 LINE",
"106 500 LINE"
);
}
);
width = 532;
}
);
rightMetricsKey = v;
unicode = 0079;
},
{
glyphname = z;
lastChange = "2014-09-22 11:44:41 +0100";
layers = (
{
anchors = (
{
name = top;
position = "{243, 500}";
}
);
background = {
anchors = (
{
name = top;
position = "{235, 500}";
}
);
paths = (
{
closed = 1;
nodes = (
"21 63 LINE",
"70 17 LINE",
"459 438 LINE",
"409 484 LINE"
);
},
{
closed = 1;
nodes = (
"204 68 LINE",
"21 63 LINE",
"21 0 LINE",
"204 0 LINE",
"459 0 LINE",
"459 68 LINE"
);
},
{
closed = 1;
nodes = (
"285 500 LINE",
"21 500 LINE",
"21 433 LINE",
"285 433 LINE",
"459 438 LINE",
"459 500 LINE"
);
}
);
};
layerId = "40D202EF-20C6-4DB3-A3D1-28A333770DD8";
name = Light;
paths = (
{
closed = 1;
nodes = (
"37 14 LINE",
"50 5 LINE",
"447 486 LINE",
"434 493 LINE"
);
},
{
closed = 1;
nodes = (
"48 14 LINE",
"37 14 LINE",
"37 0 LINE",
"48 0 LINE",
"456 0 LINE",
"456 14 LINE"
);
},
{
closed = 1;
nodes = (
"437 500 LINE",
"39 500 LINE",
"39 486 LINE",
"437 486 LINE",
"447 486 LINE",
"447 500 LINE"
);
}
);
width = 484;
},
{
anchors = (
{
name = top;
position = "{279, 500}";
}
);
layerId = "90FEB760-6DE5-46E5-A8E9-582C63BAB3AD";
name = Regular;
paths = (
{
closed = 1;
nodes = (
"65 63 LINE",
"114 17 LINE",
"503 438 LINE",
"453 484 LINE"
);
},
{
closed = 1;
nodes = (
"248 68 LINE",
"65 63 LINE",
"65 0 LINE",
"248 0 LINE",
"503 0 LINE",
"503 68 LINE"
);
},
{
closed = 1;
nodes = (
"329 500 LINE",
"65 500 LINE",
"65 433 LINE",
"329 433 LINE",
"503 438 LINE",
"503 500 LINE"
);
}
);
width = 557;
}
);
unicode = 007A;
},
{
glyphname = g.ss01;
lastChange = "2014-09-22 11:52:00 +0100";
layers = (
{
anchors = (
{
name = top;
position = "{294, 500}";
}
);
background = {
paths = (
{
closed = 1;
nodes = (
"484 500 LINE",
"469 383 LINE",
"469 21 LINE SMOOTH",
"469 -79 OFFCURVE",
"412 -145 OFFCURVE",
"311 -145 CURVE SMOOTH",
"223 -145 OFFCURVE",
"179 -116 OFFCURVE",
"167 -59 CURVE",
"91 -92 LINE",
"109 -177 OFFCURVE",
"194 -215 OFFCURVE",
"296 -215 CURVE SMOOTH",
"473 -215 OFFCURVE",
"549 -134 OFFCURVE",
"549 40 CURVE SMOOTH",
"549 383 LINE",
"549 500 LINE"
);
},
{
closed = 1;
nodes = (
"469 249 LINE",
"469 139 OFFCURVE",
"407 70 OFFCURVE",
"312 70 CURVE SMOOTH",
"214 70 OFFCURVE",
"155 142 OFFCURVE",
"155 255 CURVE SMOOTH",
"155 368 OFFCURVE",
"214 440 OFFCURVE",
"312 440 CURVE SMOOTH",
"407 440 OFFCURVE",
"469 371 OFFCURVE",
"469 261 CURVE",
"498 340 LINE",
"498 434 OFFCURVE",
"420 510 OFFCURVE",
"303 510 CURVE SMOOTH",
"164 510 OFFCURVE",
"75 415 OFFCURVE",
"75 255 CURVE SMOOTH",
"75 95 OFFCURVE",
"164 0 OFFCURVE",
"303 0 CURVE SMOOTH",
"420 0 OFFCURVE",
"498 77 OFFCURVE",
"498 170 CURVE"
);
}
);
};
layerId = "40D202EF-20C6-4DB3-A3D1-28A333770DD8";
name = Light;
paths = (
{
closed = 1;
nodes = (
"496 499 LINE",
"496 397 LINE",
"496 7 LINE SMOOTH",
"496 -123 OFFCURVE",
"417 -201 OFFCURVE",
"283 -201 CURVE SMOOTH",
"177 -201 OFFCURVE",
"107 -157 OFFCURVE",
"94 -83 CURVE",
"78 -90 LINE",
"94 -168 OFFCURVE",
"171 -215 OFFCURVE",
"283 -215 CURVE SMOOTH",
"427 -215 OFFCURVE",
"512 -132 OFFCURVE",
"512 8 CURVE SMOOTH",
"512 397 LINE",
"512 499 LINE"
);
},
{
closed = 1;
nodes = (
"496 246 LINE",
"496 95 OFFCURVE",
"416 4 OFFCURVE",
"295 4 CURVE SMOOTH",
"159 4 OFFCURVE",
"79 95 OFFCURVE",
"79 250 CURVE SMOOTH",
"79 405 OFFCURVE",
"159 496 OFFCURVE",
"295 496 CURVE SMOOTH",
"417 496 OFFCURVE",
"497 404 OFFCURVE",
"496 253 CURVE",
"506 267 LINE",
"506 420 OFFCURVE",
"421 510 OFFCURVE",
"292 510 CURVE SMOOTH",
"148 510 OFFCURVE",
"63 413 OFFCURVE",
"63 250 CURVE SMOOTH",
"63 87 OFFCURVE",
"148 -10 OFFCURVE",
"292 -10 CURVE SMOOTH",
"422 -10 OFFCURVE",
"506 79 OFFCURVE",
"505 230 CURVE"
);
}
);
width = 610;
},
{
anchors = (
{
name = top;
position = "{277, 500}";
}
);
layerId = "90FEB760-6DE5-46E5-A8E9-582C63BAB3AD";
name = Regular;
paths = (
{
closed = 1;
nodes = (
"461 500 LINE",
"446 383 LINE",
"446 21 LINE SMOOTH",
"446 -79 OFFCURVE",
"389 -145 OFFCURVE",
"288 -145 CURVE SMOOTH",
"200 -145 OFFCURVE",
"156 -116 OFFCURVE",
"144 -59 CURVE",
"68 -92 LINE",
"86 -177 OFFCURVE",
"171 -215 OFFCURVE",
"273 -215 CURVE SMOOTH",
"450 -215 OFFCURVE",
"526 -134 OFFCURVE",
"526 40 CURVE SMOOTH",
"526 383 LINE",
"526 500 LINE"
);
},
{
closed = 1;
nodes = (
"446 249 LINE",
"446 139 OFFCURVE",
"384 70 OFFCURVE",
"289 70 CURVE SMOOTH",
"191 70 OFFCURVE",
"132 142 OFFCURVE",
"132 255 CURVE SMOOTH",
"132 368 OFFCURVE",
"191 440 OFFCURVE",
"289 440 CURVE SMOOTH",
"384 440 OFFCURVE",
"446 371 OFFCURVE",
"446 261 CURVE",
"475 340 LINE",
"475 434 OFFCURVE",
"397 510 OFFCURVE",
"280 510 CURVE SMOOTH",
"141 510 OFFCURVE",
"52 415 OFFCURVE",
"52 255 CURVE SMOOTH",
"52 95 OFFCURVE",
"141 0 OFFCURVE",
"280 0 CURVE SMOOTH",
"397 0 OFFCURVE",
"475 77 OFFCURVE",
"475 170 CURVE"
);
}
);
width = 621;
}
);
leftMetricsKey = "=o*.8";
},
{
glyphname = ordfeminine;
lastChange = "2014-09-22 11:44:41 +0100";
layers = (
{
background = {
paths = (
{
closed = 1;
nodes = (
"97 670 OFFCURVE",
"31 636 OFFCURVE",
"13 585 CURVE",
"67 554 LINE",
"86 598 OFFCURVE",
"118 613 OFFCURVE",
"165 613 CURVE SMOOTH",
"220 613 OFFCURVE",
"245 590 OFFCURVE",
"245 544 CURVE SMOOTH",
"245 384 LINE SMOOTH",
"245 339 OFFCURVE",
"276 306 OFFCURVE",
"319 306 CURVE SMOOTH",
"337 306 OFFCURVE",
"352 310 OFFCURVE",
"362 313 CURVE",
"365 366 LINE",
"357 364 OFFCURVE",
"346 363 OFFCURVE",
"337 363 CURVE SMOOTH",
"317 363 OFFCURVE",
"310 371 OFFCURVE",
"310 388 CURVE SMOOTH",
"310 551 LINE SMOOTH",
"310 632 OFFCURVE",
"245 670 OFFCURVE",
"163 670 CURVE SMOOTH"
);
},
{
closed = 1;
nodes = (
"158 514 LINE SMOOTH",
"61 497 OFFCURVE",
"7 468 OFFCURVE",
"7 403 CURVE SMOOTH",
"7 333 OFFCURVE",
"59 306 OFFCURVE",
"127 306 CURVE SMOOTH",
"195 306 OFFCURVE",
"261 342 OFFCURVE",
"261 400 CURVE",
"246 427 LINE",
"246 394 OFFCURVE",
"193 363 OFFCURVE",
"136 363 CURVE SMOOTH",
"98 363 OFFCURVE",
"72 376 OFFCURVE",
"72 402 CURVE SMOOTH",
"72 439 OFFCURVE",
"109 455 OFFCURVE",
"174 467 CURVE SMOOTH",
"279 486 LINE",
"271 534 LINE"
);
},
{
closed = 1;
nodes = (
"12 222 LINE",
"12 169 LINE",
"349 169 LINE",
"349 222 LINE"
);
}
);
};
layerId = "40D202EF-20C6-4DB3-A3D1-28A333770DD8";
name = Light;
paths = (
{
closed = 1;
nodes = (
"125 670 OFFCURVE",
"78 639 OFFCURVE",
"59 582 CURVE",
"73 574 LINE",
"87 627 OFFCURVE",
"129 656 OFFCURVE",
"193 656 CURVE SMOOTH",
"264 656 OFFCURVE",
"303 616 OFFCURVE",
"303 544 CURVE SMOOTH",
"303 394 LINE SMOOTH",
"303 339 OFFCURVE",
"327 316 OFFCURVE",
"365 316 CURVE SMOOTH",
"372 316 OFFCURVE",
"380 317 OFFCURVE",
"385 321 CURVE",
"381 332 LINE",
"378 331 OFFCURVE",
"374 330 OFFCURVE",
"366 330 CURVE SMOOTH",
"337 330 OFFCURVE",
"319 350 OFFCURVE",
"319 398 CURVE SMOOTH",
"319 551 LINE SMOOTH",
"319 628 OFFCURVE",
"273 670 OFFCURVE",
"191 670 CURVE SMOOTH"
);
},
{
closed = 1;
nodes = (
"49 216 LINE",
"49 202 LINE",
"368 202 LINE",
"368 216 LINE"
);
},
{
closed = 1;
nodes = (
"159 494 LINE SMOOTH",
"95 482 OFFCURVE",
"50 450 OFFCURVE",
"50 400 CURVE SMOOTH",
"50 344 OFFCURVE",
"92 316 OFFCURVE",
"161 316 CURVE SMOOTH",
"253 316 OFFCURVE",
"309 374 OFFCURVE",
"311 439 CURVE",
"303 451 LINE",
"303 385 OFFCURVE",
"246 330 OFFCURVE",
"161 330 CURVE SMOOTH",
"102 330 OFFCURVE",
"66 353 OFFCURVE",
"66 399 CURVE SMOOTH",
"66 442 OFFCURVE",
"107 471 OFFCURVE",
"167 482 CURVE SMOOTH",
"313 510 LINE",
"311 523 LINE"
);
}
);
width = 396;
},
{
layerId = "90FEB760-6DE5-46E5-A8E9-582C63BAB3AD";
name = Regular;
paths = (
{
closed = 1;
nodes = (
"148 670 OFFCURVE",
"82 636 OFFCURVE",
"64 585 CURVE",
"118 554 LINE",
"137 598 OFFCURVE",
"169 613 OFFCURVE",
"216 613 CURVE SMOOTH",
"271 613 OFFCURVE",
"296 590 OFFCURVE",
"296 544 CURVE SMOOTH",
"296 384 LINE SMOOTH",
"296 339 OFFCURVE",
"327 306 OFFCURVE",
"370 306 CURVE SMOOTH",
"388 306 OFFCURVE",
"403 310 OFFCURVE",
"413 313 CURVE",
"416 366 LINE",
"408 364 OFFCURVE",
"397 363 OFFCURVE",
"388 363 CURVE SMOOTH",
"368 363 OFFCURVE",
"361 371 OFFCURVE",
"361 388 CURVE SMOOTH",
"361 551 LINE SMOOTH",
"361 632 OFFCURVE",
"296 670 OFFCURVE",
"214 670 CURVE SMOOTH"
);
},
{
closed = 1;
nodes = (
"63 222 LINE",
"63 169 LINE",
"400 169 LINE",
"400 222 LINE"
);
},
{
closed = 1;
nodes = (
"209 514 LINE SMOOTH",
"112 497 OFFCURVE",
"58 468 OFFCURVE",
"58 403 CURVE SMOOTH",
"58 333 OFFCURVE",
"110 306 OFFCURVE",
"178 306 CURVE SMOOTH",
"261 306 OFFCURVE",
"314 352 OFFCURVE",
"314 424 CURVE",
"297 437 LINE",
"297 391 OFFCURVE",
"256 363 OFFCURVE",
"187 363 CURVE SMOOTH",
"149 363 OFFCURVE",
"123 376 OFFCURVE",
"123 402 CURVE SMOOTH",
"123 439 OFFCURVE",
"160 455 OFFCURVE",
"225 467 CURVE SMOOTH",
"330 486 LINE",
"322 534 LINE"
);
}
);
width = 457;
}
);
unicode = 00AA;
},
{
color = 0;
glyphname = ordmasculine;
lastChange = "2014-09-22 11:44:41 +0100";
layers = (
{
background = {
paths = (
{
closed = 1;
nodes = (
"108 670 OFFCURVE",
"38 601 OFFCURVE",
"38 488 CURVE SMOOTH",
"38 375 OFFCURVE",
"108 306 OFFCURVE",
"211 306 CURVE SMOOTH",
"314 306 OFFCURVE",
"384 375 OFFCURVE",
"384 488 CURVE SMOOTH",
"384 601 OFFCURVE",
"314 670 OFFCURVE",
"211 670 CURVE SMOOTH"
);
},
{
closed = 1;
nodes = (
"277 613 OFFCURVE",
"319 571 OFFCURVE",
"319 488 CURVE SMOOTH",
"319 405 OFFCURVE",
"277 363 OFFCURVE",
"211 363 CURVE SMOOTH",
"145 363 OFFCURVE",
"103 405 OFFCURVE",
"103 488 CURVE SMOOTH",
"103 571 OFFCURVE",
"145 613 OFFCURVE",
"211 613 CURVE SMOOTH"
);
},
{
closed = 1;
nodes = (
"48 222 LINE",
"48 169 LINE",
"375 169 LINE",
"375 222 LINE"
);
}
);
};
layerId = "40D202EF-20C6-4DB3-A3D1-28A333770DD8";
name = Light;
paths = (
{
closed = 1;
nodes = (
"126 670 OFFCURVE",
"60 605 OFFCURVE",
"60 498 CURVE SMOOTH",
"60 391 OFFCURVE",
"126 326 OFFCURVE",
"218 326 CURVE SMOOTH",
"310 326 OFFCURVE",
"376 391 OFFCURVE",
"376 498 CURVE SMOOTH",
"376 605 OFFCURVE",
"310 670 OFFCURVE",
"218 670 CURVE SMOOTH"
);
},
{
closed = 1;
nodes = (
"59 216 LINE",
"59 202 LINE",
"378 202 LINE",
"378 216 LINE"
);
},
{
closed = 1;
nodes = (
"301 656 OFFCURVE",
"360 598 OFFCURVE",
"360 498 CURVE SMOOTH",
"360 398 OFFCURVE",
"301 340 OFFCURVE",
"218 340 CURVE SMOOTH",
"135 340 OFFCURVE",
"76 398 OFFCURVE",
"76 498 CURVE SMOOTH",
"76 598 OFFCURVE",
"135 656 OFFCURVE",
"218 656 CURVE SMOOTH"
);
}
);
width = 396;
},
{
layerId = "90FEB760-6DE5-46E5-A8E9-582C63BAB3AD";
name = Regular;
paths = (
{
closed = 1;
nodes = (
"125 670 OFFCURVE",
"55 601 OFFCURVE",
"55 488 CURVE SMOOTH",
"55 375 OFFCURVE",
"125 306 OFFCURVE",
"228 306 CURVE SMOOTH",
"331 306 OFFCURVE",
"401 375 OFFCURVE",
"401 488 CURVE SMOOTH",
"401 601 OFFCURVE",
"331 670 OFFCURVE",
"228 670 CURVE SMOOTH"
);
},
{
closed = 1;
nodes = (
"63 222 LINE",
"63 169 LINE",
"394 169 LINE",
"394 222 LINE"
);
},
{
closed = 1;
nodes = (
"294 613 OFFCURVE",
"336 571 OFFCURVE",
"336 488 CURVE SMOOTH",
"336 405 OFFCURVE",
"294 363 OFFCURVE",
"228 363 CURVE SMOOTH",
"162 363 OFFCURVE",
"120 405 OFFCURVE",
"120 488 CURVE SMOOTH",
"120 571 OFFCURVE",
"162 613 OFFCURVE",
"228 613 CURVE SMOOTH"
);
}
);
width = 457;
}
);
unicode = 00BA;
},
{
glyphname = pi;
lastChange = "2014-09-22 11:44:41 +0100";
layers = (
{
background = {
paths = (
{
closed = 1;
nodes = (
"648 500 LINE",
"-16 500 LINE",
"-16 433 LINE",
"648 433 LINE"
);
},
{
closed = 1;
nodes = (
"120 500 LINE",
"120 0 LINE",
"200 0 LINE",
"200 500 LINE"
);
},
{
closed = 1;
nodes = (
"416 500 LINE",
"416 125 LINE SMOOTH",
"416 30 OFFCURVE",
"463 0 OFFCURVE",
"589 0 CURVE",
"605 67 LINE",
"529 67 OFFCURVE",
"496 83 OFFCURVE",
"496 136 CURVE SMOOTH",
"496 500 LINE"
);
}
);
};
layerId = "40D202EF-20C6-4DB3-A3D1-28A333770DD8";
name = Light;
paths = (
{
closed = 1;
nodes = (
"680 500 LINE",
"22 500 LINE",
"22 486 LINE",
"680 486 LINE"
);
},
{
closed = 1;
nodes = (
"188 494 LINE",
"188 0 LINE",
"204 0 LINE",
"204 494 LINE"
);
},
{
closed = 1;
nodes = (
"497 494 LINE",
"497 94 LINE SMOOTH",
"497 23 OFFCURVE",
"554 0 OFFCURVE",
"622 0 CURVE",
"625 14 LINE",
"565 14 OFFCURVE",
"513 30 OFFCURVE",
"513 94 CURVE SMOOTH",
"513 494 LINE"
);
}
);
width = 702;
},
{
layerId = "90FEB760-6DE5-46E5-A8E9-582C63BAB3AD";
name = Regular;
paths = (
{
closed = 1;
nodes = (
"688 500 LINE",
"24 500 LINE",
"24 433 LINE",
"688 433 LINE"
);
},
{
closed = 1;
nodes = (
"160 500 LINE",
"160 0 LINE",
"240 0 LINE",
"240 500 LINE"
);
},
{
closed = 1;
nodes = (
"456 500 LINE",
"456 125 LINE SMOOTH",
"456 30 OFFCURVE",
"503 0 OFFCURVE",
"629 0 CURVE",
"645 67 LINE",
"569 67 OFFCURVE",
"536 83 OFFCURVE",
"536 136 CURVE SMOOTH",
"536 500 LINE"
);
}
);
width = 714;
}
);
unicode = 03C0;
},
{
glyphname = kadeva;
lastChange = "2014-09-22 11:44:41 +0100";
layers = (
{
anchors = (
{
name = DVAnchor0;
position = "{462, 0}";
},
{
name = DVAnchor3;
position = "{462, 660}";
}
);
layerId = "90FEB760-6DE5-46E5-A8E9-582C63BAB3AD";
name = Regular;
paths = (
{
closed = 1;
nodes = (
"426 627 LINE",
"426 0 LINE",
"496 0 LINE",
"496 627 LINE"
);
},
{
closed = 1;
nodes = (
"149 495 OFFCURVE",
"73 418 OFFCURVE",
"73 299 CURVE SMOOTH",
"73 198 OFFCURVE",
"159 124 OFFCURVE",
"252 124 CURVE SMOOTH",
"367 124 OFFCURVE",
"420 169 OFFCURVE",
"458 275 CURVE",
"426 298 LINE",
"395 235 OFFCURVE",
"349 184 OFFCURVE",
"274 184 CURVE SMOOTH",
"204 184 OFFCURVE",
"141 227 OFFCURVE",
"141 311 CURVE SMOOTH",
"141 397 OFFCURVE",
"199 436 OFFCURVE",
"258 436 CURVE SMOOTH",
"291 436 OFFCURVE",
"309 427 OFFCURVE",
"323 413 CURVE",
"351 461 LINE",
"326 485 OFFCURVE",
"302 495 OFFCURVE",
"257 495 CURVE SMOOTH"
);
},
{
closed = 1;
nodes = (
"760 123 OFFCURVE",
"839 197 OFFCURVE",
"839 320 CURVE SMOOTH",
"839 428 OFFCURVE",
"756 499 OFFCURVE",
"660 499 CURVE SMOOTH",
"561 499 OFFCURVE",
"500 451 OFFCURVE",
"463 347 CURVE",
"496 324 LINE",
"524 385 OFFCURVE",
"572 439 OFFCURVE",
"647 439 CURVE SMOOTH",
"720 439 OFFCURVE",
"771 392 OFFCURVE",
"771 307 CURVE SMOOTH",
"771 228 OFFCURVE",
"718 182 OFFCURVE",
"666 182 CURVE SMOOTH",
"636 182 OFFCURVE",
"618 192 OFFCURVE",
"603 206 CURVE",
"575 150 LINE",
"598 132 OFFCURVE",
"621 123 OFFCURVE",
"665 123 CURVE SMOOTH"
);
},
{
closed = 1;
nodes = (
"-10 660 LINE",
"-10 604 LINE",
"922 604 LINE",
"922 660 LINE"
);
}
);
width = 912;
},
{
anchors = (
{
name = DVAnchor0;
position = "{462, 0}";
},
{
name = DVAnchor3;
position = "{462, 660}";
}
);
layerId = "40D202EF-20C6-4DB3-A3D1-28A333770DD8";
name = Light;
paths = (
{
closed = 1;
nodes = (
"426 627 LINE",
"426 0 LINE",
"496 0 LINE",
"496 627 LINE"
);
},
{
closed = 1;
nodes = (
"149 495 OFFCURVE",
"73 418 OFFCURVE",
"73 299 CURVE SMOOTH",
"73 198 OFFCURVE",
"159 124 OFFCURVE",
"252 124 CURVE SMOOTH",
"367 124 OFFCURVE",
"420 169 OFFCURVE",
"458 275 CURVE",
"426 298 LINE",
"395 235 OFFCURVE",
"349 184 OFFCURVE",
"274 184 CURVE SMOOTH",
"204 184 OFFCURVE",
"141 227 OFFCURVE",
"141 311 CURVE SMOOTH",
"141 397 OFFCURVE",
"199 436 OFFCURVE",
"258 436 CURVE SMOOTH",
"291 436 OFFCURVE",
"309 427 OFFCURVE",
"323 413 CURVE",
"351 461 LINE",
"326 485 OFFCURVE",
"302 495 OFFCURVE",
"257 495 CURVE SMOOTH"
);
},
{
closed = 1;
nodes = (
"760 123 OFFCURVE",
"839 197 OFFCURVE",
"839 320 CURVE SMOOTH",
"839 428 OFFCURVE",
"756 499 OFFCURVE",
"660 499 CURVE SMOOTH",
"561 499 OFFCURVE",
"500 451 OFFCURVE",
"463 347 CURVE",
"496 324 LINE",
"524 385 OFFCURVE",
"572 439 OFFCURVE",
"647 439 CURVE SMOOTH",
"720 439 OFFCURVE",
"771 392 OFFCURVE",
"771 307 CURVE SMOOTH",
"771 228 OFFCURVE",
"718 182 OFFCURVE",
"666 182 CURVE SMOOTH",
"636 182 OFFCURVE",
"618 192 OFFCURVE",
"603 206 CURVE",
"575 150 LINE",
"598 132 OFFCURVE",
"621 123 OFFCURVE",
"665 123 CURVE SMOOTH"
);
},
{
closed = 1;
nodes = (
"-10 660 LINE",
"-10 604 LINE",
"922 604 LINE",
"922 660 LINE"
);
}
);
width = 912;
}
);
unicode = 0915;
},
{
glyphname = khadeva;
lastChange = "2014-09-22 11:44:41 +0100";
layers = (
{
anchors = (
{
name = DVAnchor0;
position = "{780, 0}";
},
{
name = DVAnchor3;
position = "{780, 660}";
}
);
layerId = "90FEB760-6DE5-46E5-A8E9-582C63BAB3AD";
name = Regular;
paths = (
{
closed = 1;
nodes = (
"745 627 LINE",
"745 5 LINE",
"815 5 LINE",
"815 627 LINE"
);
},
{
closed = 1;
nodes = (
"-10 660 LINE",
"-10 604 LINE",
"953 604 LINE",
"953 660 LINE"
);
},
{
closed = 1;
nodes = (
"488 516 OFFCURVE",
"421 453 OFFCURVE",
"421 356 CURVE SMOOTH",
"421 259 OFFCURVE",
"486 195 OFFCURVE",
"584 195 CURVE SMOOTH",
"689 195 OFFCURVE",
"744 263 OFFCURVE",
"781 344 CURVE",
"745 364 LINE",
"713 302 OFFCURVE",
"664 255 OFFCURVE",
"595 255 CURVE SMOOTH",
"529 255 OFFCURVE",
"489 294 OFFCURVE",
"489 359 CURVE SMOOTH",
"489 417 OFFCURVE",
"525 454 OFFCURVE",
"580 457 CURVE SMOOTH",
"610 459 OFFCURVE",
"632 449 OFFCURVE",
"648 431 CURVE",
"678 473 LINE",
"662 497 OFFCURVE",
"633 516 OFFCURVE",
"591 516 CURVE SMOOTH"
);
},
{
closed = 1;
nodes = (
"120 304 OFFCURVE",
"186 271 OFFCURVE",
"256 306 CURVE SMOOTH",
"305 332 OFFCURVE",
"324 378 OFFCURVE",
"324 456 CURVE SMOOTH",
"324 632 LINE",
"254 632 LINE",
"254 456 LINE SMOOTH",
"254 394 OFFCURVE",
"245 362 OFFCURVE",
"212 349 CURVE SMOOTH",
"172 333 OFFCURVE",
"129 363 OFFCURVE",
"106 409 CURVE",
"86 385 LINE"
);
},
{
closed = 1;
nodes = (
"676 92 OFFCURVE",
"578 65 OFFCURVE",
"515 65 CURVE SMOOTH",
"319 65 OFFCURVE",
"188 214 OFFCURVE",
"104 411 CURVE",
"48 387 LINE",
"141 163 OFFCURVE",
"290 5 OFFCURVE",
"508 5 CURVE SMOOTH",
"632 5 OFFCURVE",
"708 41 OFFCURVE",
"779 140 CURVE",
"745 169 LINE"
);
}
);
width = 943;
},
{
anchors = (
{
name = DVAnchor0;
position = "{780, 0}";
},
{
name = DVAnchor3;
position = "{780, 660}";
}
);
layerId = "40D202EF-20C6-4DB3-A3D1-28A333770DD8";
name = Light;
paths = (
{
closed = 1;
nodes = (
"745 627 LINE",
"745 5 LINE",
"815 5 LINE",
"815 627 LINE"
);
},
{
closed = 1;
nodes = (
"-10 660 LINE",
"-10 604 LINE",
"953 604 LINE",
"953 660 LINE"
);
},
{
closed = 1;
nodes = (
"488 516 OFFCURVE",
"421 453 OFFCURVE",
"421 356 CURVE SMOOTH",
"421 259 OFFCURVE",
"486 195 OFFCURVE",
"584 195 CURVE SMOOTH",
"689 195 OFFCURVE",
"744 263 OFFCURVE",
"781 344 CURVE",
"745 364 LINE",
"713 302 OFFCURVE",
"664 255 OFFCURVE",
"595 255 CURVE SMOOTH",
"529 255 OFFCURVE",
"489 294 OFFCURVE",
"489 359 CURVE SMOOTH",
"489 417 OFFCURVE",
"525 454 OFFCURVE",
"580 457 CURVE SMOOTH",
"610 459 OFFCURVE",
"632 449 OFFCURVE",
"648 431 CURVE",
"678 473 LINE",
"662 497 OFFCURVE",
"633 516 OFFCURVE",
"591 516 CURVE SMOOTH"
);
},
{
closed = 1;
nodes = (
"120 304 OFFCURVE",
"186 271 OFFCURVE",
"256 306 CURVE SMOOTH",
"305 332 OFFCURVE",
"324 378 OFFCURVE",
"324 456 CURVE SMOOTH",
"324 632 LINE",
"254 632 LINE",
"254 456 LINE SMOOTH",
"254 394 OFFCURVE",
"245 362 OFFCURVE",
"212 349 CURVE SMOOTH",
"172 333 OFFCURVE",
"129 363 OFFCURVE",
"106 409 CURVE",
"86 385 LINE"
);
},
{
closed = 1;
nodes = (
"676 92 OFFCURVE",
"578 65 OFFCURVE",
"515 65 CURVE SMOOTH",
"319 65 OFFCURVE",
"188 214 OFFCURVE",
"104 411 CURVE",
"48 387 LINE",
"141 163 OFFCURVE",
"290 5 OFFCURVE",
"508 5 CURVE SMOOTH",
"632 5 OFFCURVE",
"708 41 OFFCURVE",
"779 140 CURVE",
"745 169 LINE"
);
}
);
width = 943;
}
);
unicode = 0916;
},
{
glyphname = ddadeva;
lastChange = "2014-09-22 11:44:41 +0100";
layers = (
{
anchors = (
{
name = DVAnchor0;
position = "{332, 45}";
},
{
name = DVAnchor3;
position = "{467, 660}";
}
);
layerId = "90FEB760-6DE5-46E5-A8E9-582C63BAB3AD";
name = Regular;
paths = (
{
closed = 1;
nodes = (
"-10 660 LINE",
"-10 604 LINE",
"648 604 LINE",
"648 660 LINE"
);
},
{
closed = 1;
nodes = (
"432 627 LINE",
"432 441 LINE",
"502 441 LINE",
"502 627 LINE"
);
},
{
closed = 1;
nodes = (
"243 497 LINE SMOOTH",
"159 497 OFFCURVE",
"121 443 OFFCURVE",
"121 376 CURVE SMOOTH",
"121 283 OFFCURVE",
"203 225 OFFCURVE",
"290 225 CURVE SMOOTH",
"360 225 OFFCURVE",
"400 252 OFFCURVE",
"443 252 CURVE SMOOTH",
"476 252 OFFCURVE",
"497 229 OFFCURVE",
"497 190 CURVE SMOOTH",
"497 116 OFFCURVE",
"427 73 OFFCURVE",
"301 73 CURVE SMOOTH",
"214 73 OFFCURVE",
"138 113 OFFCURVE",
"101 200 CURVE",
"45 164 LINE",
"92 62 OFFCURVE",
"187 15 OFFCURVE",
"303 15 CURVE SMOOTH",
"431 15 OFFCURVE",
"561 61 OFFCURVE",
"561 189 CURVE SMOOTH",
"561 270 OFFCURVE",
"504 318 OFFCURVE",
"455 318 CURVE SMOOTH",
"405 318 OFFCURVE",
"361 288 OFFCURVE",
"302 288 CURVE SMOOTH",
"245 288 OFFCURVE",
"187 314 OFFCURVE",
"187 379 CURVE SMOOTH",
"187 423 OFFCURVE",
"212 441 OFFCURVE",
"248 441 CURVE SMOOTH",
"465 441 LINE",
"465 497 LINE"
);
}
);
width = 638;
},
{
anchors = (
{
name = DVAnchor0;
position = "{332, 45}";
},
{
name = DVAnchor3;
position = "{467, 660}";
}
);
layerId = "40D202EF-20C6-4DB3-A3D1-28A333770DD8";
name = Light;
paths = (
{
closed = 1;
nodes = (
"-10 660 LINE",
"-10 604 LINE",
"648 604 LINE",
"648 660 LINE"
);
},
{
closed = 1;
nodes = (
"432 627 LINE",
"432 441 LINE",
"502 441 LINE",
"502 627 LINE"
);
},
{
closed = 1;
nodes = (
"243 497 LINE SMOOTH",
"159 497 OFFCURVE",
"121 443 OFFCURVE",
"121 376 CURVE SMOOTH",
"121 283 OFFCURVE",
"203 225 OFFCURVE",
"290 225 CURVE SMOOTH",
"360 225 OFFCURVE",
"400 252 OFFCURVE",
"443 252 CURVE SMOOTH",
"476 252 OFFCURVE",
"497 229 OFFCURVE",
"497 190 CURVE SMOOTH",
"497 116 OFFCURVE",
"427 73 OFFCURVE",
"301 73 CURVE SMOOTH",
"214 73 OFFCURVE",
"138 113 OFFCURVE",
"101 200 CURVE",
"45 164 LINE",
"92 62 OFFCURVE",
"187 15 OFFCURVE",
"303 15 CURVE SMOOTH",
"431 15 OFFCURVE",
"561 61 OFFCURVE",
"561 189 CURVE SMOOTH",
"561 270 OFFCURVE",
"504 318 OFFCURVE",
"455 318 CURVE SMOOTH",
"405 318 OFFCURVE",
"361 288 OFFCURVE",
"302 288 CURVE SMOOTH",
"245 288 OFFCURVE",
"187 314 OFFCURVE",
"187 379 CURVE SMOOTH",
"187 423 OFFCURVE",
"212 441 OFFCURVE",
"248 441 CURVE SMOOTH",
"465 441 LINE",
"465 497 LINE"
);
}
);
width = 638;
}
);
unicode = 0921;
},
{
glyphname = tadeva;
lastChange = "2014-09-22 11:44:41 +0100";
layers = (
{
anchors = (
{
name = DVAnchor3;
position = "{522, 660}";
}
);
layerId = "90FEB760-6DE5-46E5-A8E9-582C63BAB3AD";
name = Regular;
paths = (
{
closed = 1;
nodes = (
"183 111 OFFCURVE",
"135 189 OFFCURVE",
"135 267 CURVE SMOOTH",
"135 344 OFFCURVE",
"173 391 OFFCURVE",
"271 391 CURVE SMOOTH",
"515 391 LINE",
"515 447 LINE",
"247 447 LINE SMOOTH",
"126 447 OFFCURVE",
"66 386 OFFCURVE",
"66 280 CURVE SMOOTH",
"66 137 OFFCURVE",
"150 54 OFFCURVE",
"296 0 CURVE",
"331 53 LINE"
);
},
{
closed = 1;
nodes = (
"487 627 LINE",
"487 0 LINE",
"557 0 LINE",
"557 627 LINE"
);
},
{
closed = 1;
nodes = (
"-10 660 LINE",
"-10 604 LINE",
"695 604 LINE",
"695 660 LINE"
);
}
);
width = 685;
},
{
anchors = (
{
name = DVAnchor3;
position = "{522, 660}";
}
);
layerId = "40D202EF-20C6-4DB3-A3D1-28A333770DD8";
name = Light;
paths = (
{
closed = 1;
nodes = (
"183 111 OFFCURVE",
"135 189 OFFCURVE",
"135 267 CURVE SMOOTH",
"135 344 OFFCURVE",
"173 391 OFFCURVE",
"271 391 CURVE SMOOTH",
"515 391 LINE",
"515 447 LINE",
"247 447 LINE SMOOTH",
"126 447 OFFCURVE",
"66 386 OFFCURVE",
"66 280 CURVE SMOOTH",
"66 137 OFFCURVE",
"150 54 OFFCURVE",
"296 0 CURVE",
"331 53 LINE"
);
},
{
closed = 1;
nodes = (
"487 627 LINE",
"487 0 LINE",
"557 0 LINE",
"557 627 LINE"
);
},
{
closed = 1;
nodes = (
"-10 660 LINE",
"-10 604 LINE",
"695 604 LINE",
"695 660 LINE"
);
}
);
width = 685;
}
);
unicode = 0924;
},
{
glyphname = thadeva;
lastChange = "2014-09-22 11:44:41 +0100";
layers = (
{
anchors = (
{
name = DVAnchor3;
position = "{569, 660}";
}
);
layerId = "90FEB760-6DE5-46E5-A8E9-582C63BAB3AD";
name = Regular;
paths = (
{
closed = 1;
nodes = (
"128 665 OFFCURVE",
"71 611 OFFCURVE",
"71 532 CURVE SMOOTH",
"71 493 OFFCURVE",
"90 457 OFFCURVE",
"123 433 CURVE",
"172 453 LINE",
"151 474 OFFCURVE",
"139 500 OFFCURVE",
"139 534 CURVE SMOOTH",
"139 567 OFFCURVE",
"169 605 OFFCURVE",
"223 605 CURVE SMOOTH",
"279 605 OFFCURVE",
"308 570 OFFCURVE",
"308 514 CURVE SMOOTH",
"308 428 OFFCURVE",
"239 374 OFFCURVE",
"39 334 CURVE",
"62 169 OFFCURVE",
"163 110 OFFCURVE",
"306 110 CURVE SMOOTH",
"463 110 OFFCURVE",
"546 192 OFFCURVE",
"576 307 CURVE",
"534 324 LINE",
"507 235 OFFCURVE",
"417 170 OFFCURVE",
"310 170 CURVE SMOOTH",
"192 170 OFFCURVE",
"115 233 OFFCURVE",
"109 293 CURVE",
"307 339 OFFCURVE",
"375 425 OFFCURVE",
"375 515 CURVE SMOOTH",
"375 598 OFFCURVE",
"331 665 OFFCURVE",
"227 665 CURVE SMOOTH"
);
},
{
closed = 1;
nodes = (
"534 627 LINE",
"534 0 LINE",
"604 0 LINE",
"604 627 LINE"
);
},
{
closed = 1;
nodes = (
"449 660 LINE",
"449 604 LINE",
"741 604 LINE",
"741 660 LINE"
);
}
);
width = 731;
},
{
anchors = (
{
name = DVAnchor3;
position = "{569, 660}";
}
);
layerId = "40D202EF-20C6-4DB3-A3D1-28A333770DD8";
name = Light;
paths = (
{
closed = 1;
nodes = (
"128 665 OFFCURVE",
"71 611 OFFCURVE",
"71 532 CURVE SMOOTH",
"71 493 OFFCURVE",
"90 457 OFFCURVE",
"123 433 CURVE",
"172 453 LINE",
"151 474 OFFCURVE",
"139 500 OFFCURVE",
"139 534 CURVE SMOOTH",
"139 567 OFFCURVE",
"169 605 OFFCURVE",
"223 605 CURVE SMOOTH",
"279 605 OFFCURVE",
"308 570 OFFCURVE",
"308 514 CURVE SMOOTH",
"308 428 OFFCURVE",
"239 374 OFFCURVE",
"39 334 CURVE",
"62 169 OFFCURVE",
"163 110 OFFCURVE",
"306 110 CURVE SMOOTH",
"463 110 OFFCURVE",
"546 192 OFFCURVE",
"576 307 CURVE",
"534 324 LINE",
"507 235 OFFCURVE",
"417 170 OFFCURVE",
"310 170 CURVE SMOOTH",
"192 170 OFFCURVE",
"115 233 OFFCURVE",
"109 293 CURVE",
"307 339 OFFCURVE",
"375 425 OFFCURVE",
"375 515 CURVE SMOOTH",
"375 598 OFFCURVE",
"331 665 OFFCURVE",
"227 665 CURVE SMOOTH"
);
},
{
closed = 1;
nodes = (
"534 627 LINE",
"534 0 LINE",
"604 0 LINE",
"604 627 LINE"
);
},
{
closed = 1;
nodes = (
"449 660 LINE",
"449 604 LINE",
"741 604 LINE",
"741 660 LINE"
);
}
);
width = 731;
}
);
unicode = 0925;
},
{
glyphname = dadeva;
lastChange = "2014-09-22 11:44:41 +0100";
layers = (
{
anchors = (
{
name = DVAnchor0;
position = "{553, 7}";
},
{
name = DVAnchor3;
position = "{449, 660}";
}
);
layerId = "90FEB760-6DE5-46E5-A8E9-582C63BAB3AD";
name = Regular;
paths = (
{
closed = 1;
nodes = (
"414 627 LINE",
"414 449 LINE",
"484 449 LINE",
"484 627 LINE"
);
},
{
closed = 1;
nodes = (
"-10 660 LINE",
"-10 604 LINE",
"629 604 LINE",
"629 660 LINE"
);
},
{
closed = 1;
nodes = (
"424 102 OFFCURVE",
"522 171 OFFCURVE",
"519 242 CURVE SMOOTH",
"515 334 OFFCURVE",
"393 314 OFFCURVE",
"397 226 CURVE SMOOTH",
"399 186 OFFCURVE",
"427 86 OFFCURVE",
"502 -42 CURVE",
"576 -26 LINE",
"511 62 OFFCURVE",
"452 133 OFFCURVE",
"449 226 CURVE SMOOTH",
"447 286 OFFCURVE",
"416 281 OFFCURVE",
"419 220 CURVE SMOOTH",
"421 177 OFFCURVE",
"332 162 OFFCURVE",
"280 162 CURVE SMOOTH",
"205 162 OFFCURVE",
"131 200 OFFCURVE",
"131 296 CURVE SMOOTH",
"131 371 OFFCURVE",
"181 418 OFFCURVE",
"277 418 CURVE SMOOTH",
"484 418 LINE",
"484 477 LINE",
"255 477 LINE SMOOTH",
"147 477 OFFCURVE",
"63 417 OFFCURVE",
"61 291 CURVE SMOOTH",
"59 176 OFFCURVE",
"145 102 OFFCURVE",
"284 102 CURVE SMOOTH"
);
}
);
width = 619;
},
{
anchors = (
{
name = DVAnchor0;
position = "{553, 7}";
},
{
name = DVAnchor3;
position = "{449, 660}";
}
);
layerId = "40D202EF-20C6-4DB3-A3D1-28A333770DD8";
name = Light;
paths = (
{
closed = 1;
nodes = (
"414 627 LINE",
"414 449 LINE",
"484 449 LINE",
"484 627 LINE"
);
},
{
closed = 1;
nodes = (
"-10 660 LINE",
"-10 604 LINE",
"629 604 LINE",
"629 660 LINE"
);
},
{
closed = 1;
nodes = (
"424 102 OFFCURVE",
"522 171 OFFCURVE",
"519 242 CURVE SMOOTH",
"515 334 OFFCURVE",
"393 314 OFFCURVE",
"397 226 CURVE SMOOTH",
"399 186 OFFCURVE",
"427 86 OFFCURVE",
"502 -42 CURVE",
"576 -26 LINE",
"511 62 OFFCURVE",
"452 133 OFFCURVE",
"449 226 CURVE SMOOTH",
"447 286 OFFCURVE",
"416 281 OFFCURVE",
"419 220 CURVE SMOOTH",
"421 177 OFFCURVE",
"332 162 OFFCURVE",
"280 162 CURVE SMOOTH",
"205 162 OFFCURVE",
"131 200 OFFCURVE",
"131 296 CURVE SMOOTH",
"131 371 OFFCURVE",
"181 418 OFFCURVE",
"277 418 CURVE SMOOTH",
"484 418 LINE",
"484 477 LINE",
"255 477 LINE SMOOTH",
"147 477 OFFCURVE",
"63 417 OFFCURVE",
"61 291 CURVE SMOOTH",
"59 176 OFFCURVE",
"145 102 OFFCURVE",
"284 102 CURVE SMOOTH"
);
}
);
width = 619;
}
);
unicode = 0926;
},
{
glyphname = dhadeva;
lastChange = "2014-09-22 11:44:41 +0100";
layers = (
{
anchors = (
{
name = DVAnchor3;
position = "{537, 660}";
}
);
layerId = "90FEB760-6DE5-46E5-A8E9-582C63BAB3AD";
name = Regular;
paths = (
{
closed = 1;
nodes = (
"193 416 OFFCURVE",
"68 383 OFFCURVE",
"68 262 CURVE SMOOTH",
"68 158 OFFCURVE",
"151 108 OFFCURVE",
"266 108 CURVE SMOOTH",
"391 108 OFFCURVE",
"500 168 OFFCURVE",
"562 239 CURVE",
"522 267 LINE",
"455 201 OFFCURVE",
"381 168 OFFCURVE",
"276 168 CURVE SMOOTH",
"178 168 OFFCURVE",
"134 205 OFFCURVE",
"134 266 CURVE SMOOTH",
"134 340 OFFCURVE",
"211 363 OFFCURVE",
"311 364 CURVE",
"294 417 LINE"
);
},
{
closed = 1;
nodes = (
"522 627 LINE",
"522 0 LINE",
"592 0 LINE",
"592 627 LINE"
);
},
{
closed = 1;
nodes = (
"391 660 LINE",
"391 604 LINE",
"729 604 LINE",
"729 660 LINE"
);
},
{
closed = 1;
nodes = (
"117 665 OFFCURVE",
"60 604 OFFCURVE",
"60 526 CURVE SMOOTH",
"60 419 OFFCURVE",
"176 366 OFFCURVE",
"311 364 CURVE",
"294 417 LINE",
"187 418 OFFCURVE",
"127 467 OFFCURVE",
"127 531 CURVE SMOOTH",
"127 571 OFFCURVE",
"157 605 OFFCURVE",
"201 605 CURVE SMOOTH",
"246 605 OFFCURVE",
"269 568 OFFCURVE",
"267 531 CURVE",
"318 554 LINE",
"327 631 OFFCURVE",
"281 665 OFFCURVE",
"207 665 CURVE SMOOTH"
);
}
);
width = 719;
},
{
anchors = (
{
name = DVAnchor3;
position = "{537, 660}";
}
);
layerId = "40D202EF-20C6-4DB3-A3D1-28A333770DD8";
name = Light;
paths = (
{
closed = 1;
nodes = (
"193 416 OFFCURVE",
"68 383 OFFCURVE",
"68 262 CURVE SMOOTH",
"68 158 OFFCURVE",
"151 108 OFFCURVE",
"266 108 CURVE SMOOTH",
"391 108 OFFCURVE",
"500 168 OFFCURVE",
"562 239 CURVE",
"522 267 LINE",
"455 201 OFFCURVE",
"381 168 OFFCURVE",
"276 168 CURVE SMOOTH",
"178 168 OFFCURVE",
"134 205 OFFCURVE",
"134 266 CURVE SMOOTH",
"134 340 OFFCURVE",
"211 363 OFFCURVE",
"311 364 CURVE",
"294 417 LINE"
);
},
{
closed = 1;
nodes = (
"522 627 LINE",
"522 0 LINE",
"592 0 LINE",
"592 627 LINE"
);
},
{
closed = 1;
nodes = (
"391 660 LINE",
"391 604 LINE",
"729 604 LINE",
"729 660 LINE"
);
},
{
closed = 1;
nodes = (
"117 665 OFFCURVE",
"60 604 OFFCURVE",
"60 526 CURVE SMOOTH",
"60 419 OFFCURVE",
"176 366 OFFCURVE",
"311 364 CURVE",
"294 417 LINE",
"187 418 OFFCURVE",
"127 467 OFFCURVE",
"127 531 CURVE SMOOTH",
"127 571 OFFCURVE",
"157 605 OFFCURVE",
"201 605 CURVE SMOOTH",
"246 605 OFFCURVE",
"269 568 OFFCURVE",
"267 531 CURVE",
"318 554 LINE",
"327 631 OFFCURVE",
"281 665 OFFCURVE",
"207 665 CURVE SMOOTH"
);
}
);
width = 719;
}
);
unicode = 0927;
},
{
glyphname = padeva;
lastChange = "2014-09-22 11:44:41 +0100";
layers = (
{
anchors = (
{
name = DVAnchor3;
position = "{501, 660}";
}
);
layerId = "90FEB760-6DE5-46E5-A8E9-582C63BAB3AD";
name = Regular;
paths = (
{
closed = 1;
nodes = (
"111 627 LINE",
"111 339 LINE SMOOTH",
"111 226 OFFCURVE",
"189 174 OFFCURVE",
"283 174 CURVE SMOOTH",
"398 174 OFFCURVE",
"470 229 OFFCURVE",
"506 347 CURVE",
"466 368 LINE",
"437 288 OFFCURVE",
"376 234 OFFCURVE",
"306 234 CURVE SMOOTH",
"227 234 OFFCURVE",
"181 270 OFFCURVE",
"181 366 CURVE SMOOTH",
"181 627 LINE"
);
},
{
closed = 1;
nodes = (
"466 627 LINE",
"466 0 LINE",
"536 0 LINE",
"536 627 LINE"
);
},
{
closed = 1;
nodes = (
"-10 660 LINE",
"-10 604 LINE",
"673 604 LINE",
"673 660 LINE"
);
}
);
width = 663;
},
{
anchors = (
{
name = DVAnchor3;
position = "{501, 660}";
}
);
layerId = "40D202EF-20C6-4DB3-A3D1-28A333770DD8";
name = Light;
paths = (
{
closed = 1;
nodes = (
"111 627 LINE",
"111 339 LINE SMOOTH",
"111 226 OFFCURVE",
"189 174 OFFCURVE",
"283 174 CURVE SMOOTH",
"398 174 OFFCURVE",
"470 229 OFFCURVE",
"506 347 CURVE",
"466 368 LINE",
"437 288 OFFCURVE",
"376 234 OFFCURVE",
"306 234 CURVE SMOOTH",
"227 234 OFFCURVE",
"181 270 OFFCURVE",
"181 366 CURVE SMOOTH",
"181 627 LINE"
);
},
{
closed = 1;
nodes = (
"466 627 LINE",
"466 0 LINE",
"536 0 LINE",
"536 627 LINE"
);
},
{
closed = 1;
nodes = (
"-10 660 LINE",
"-10 604 LINE",
"673 604 LINE",
"673 660 LINE"
);
}
);
width = 663;
}
);
unicode = 092A;
},
{
glyphname = bhadeva;
lastChange = "2014-09-22 11:44:41 +0100";
layers = (
{
anchors = (
{
name = DVAnchor3;
position = "{576, 660}";
}
);
layerId = "90FEB760-6DE5-46E5-A8E9-582C63BAB3AD";
name = Regular;
paths = (
{
closed = 1;
nodes = (
"541 627 LINE",
"541 0 LINE",
"611 0 LINE",
"611 627 LINE"
);
},
{
closed = 1;
nodes = (
"400 660 LINE",
"400 604 LINE",
"750 604 LINE",
"750 660 LINE"
);
},
{
closed = 1;
nodes = (
"541 627 LINE",
"541 0 LINE",
"611 0 LINE",
"611 627 LINE"
);
},
{
closed = 1;
nodes = (
"400 660 LINE",
"400 604 LINE",
"750 604 LINE",
"750 660 LINE"
);
},
{
closed = 1;
nodes = (
"287 617 OFFCURVE",
"240 660 OFFCURVE",
"163 660 CURVE SMOOTH",
"91 660 OFFCURVE",
"35 621 OFFCURVE",
"35 548 CURVE SMOOTH",
"35 488 OFFCURVE",
"74 439 OFFCURVE",
"144 438 CURVE",
"165 488 LINE",
"118 490 OFFCURVE",
"96 512 OFFCURVE",
"96 542 CURVE SMOOTH",
"96 570 OFFCURVE",
"119 596 OFFCURVE",
"156 596 CURVE SMOOTH",
"202 596 OFFCURVE",
"217 571 OFFCURVE",
"217 509 CURVE SMOOTH",
"217 310 LINE SMOOTH",
"217 296 OFFCURVE",
"261 293 OFFCURVE",
"256 297 CURVE SMOOTH",
"251 301 OFFCURVE",
"245 307 OFFCURVE",
"240 313 CURVE SMOOTH",
"238 316 OFFCURVE",
"242 279 OFFCURVE",
"250 279 CURVE SMOOTH",
"568 279 LINE",
"568 335 LINE",
"193 335 LINE SMOOTH",
"161 335 OFFCURVE",
"132 295 OFFCURVE",
"149 271 CURVE SMOOTH",
"163 251 OFFCURVE",
"200 215 OFFCURVE",
"218 200 CURVE SMOOTH",
"244 179 OFFCURVE",
"287 198 OFFCURVE",
"287 227 CURVE SMOOTH",
"287 508 LINE SMOOTH"
);
}
);
width = 740;
},
{
anchors = (
{
name = DVAnchor3;
position = "{576, 660}";
}
);
layerId = "40D202EF-20C6-4DB3-A3D1-28A333770DD8";
name = Light;
paths = (
{
closed = 1;
nodes = (
"541 627 LINE",
"541 0 LINE",
"611 0 LINE",
"611 627 LINE"
);
},
{
closed = 1;
nodes = (
"400 660 LINE",
"400 604 LINE",
"750 604 LINE",
"750 660 LINE"
);
},
{
closed = 1;
nodes = (
"541 627 LINE",
"541 0 LINE",
"611 0 LINE",
"611 627 LINE"
);
},
{
closed = 1;
nodes = (
"400 660 LINE",
"400 604 LINE",
"750 604 LINE",
"750 660 LINE"
);
},
{
closed = 1;
nodes = (
"287 617 OFFCURVE",
"240 660 OFFCURVE",
"163 660 CURVE SMOOTH",
"91 660 OFFCURVE",
"35 621 OFFCURVE",
"35 548 CURVE SMOOTH",
"35 488 OFFCURVE",
"74 439 OFFCURVE",
"144 438 CURVE",
"165 488 LINE",
"118 490 OFFCURVE",
"96 512 OFFCURVE",
"96 542 CURVE SMOOTH",
"96 570 OFFCURVE",
"119 596 OFFCURVE",
"156 596 CURVE SMOOTH",
"202 596 OFFCURVE",
"217 571 OFFCURVE",
"217 509 CURVE SMOOTH",
"217 310 LINE SMOOTH",
"217 296 OFFCURVE",
"261 293 OFFCURVE",
"256 297 CURVE SMOOTH",
"251 301 OFFCURVE",
"245 307 OFFCURVE",
"240 313 CURVE SMOOTH",
"238 316 OFFCURVE",
"242 279 OFFCURVE",
"250 279 CURVE SMOOTH",
"568 279 LINE",
"568 335 LINE",
"193 335 LINE SMOOTH",
"161 335 OFFCURVE",
"132 295 OFFCURVE",
"149 271 CURVE SMOOTH",
"163 251 OFFCURVE",
"200 215 OFFCURVE",
"218 200 CURVE SMOOTH",
"244 179 OFFCURVE",
"287 198 OFFCURVE",
"287 227 CURVE SMOOTH",
"287 508 LINE SMOOTH"
);
}
);
width = 740;
}
);
unicode = 092D;
},
{
glyphname = vadeva;
lastChange = "2014-09-22 11:44:41 +0100";
layers = (
{
anchors = (
{
name = DVAnchor3;
position = "{490, 660}";
}
);
layerId = "90FEB760-6DE5-46E5-A8E9-582C63BAB3AD";
name = Regular;
paths = (
{
closed = 1;
nodes = (
"158 500 OFFCURVE",
"72 425 OFFCURVE",
"72 310 CURVE SMOOTH",
"72 192 OFFCURVE",
"158 117 OFFCURVE",
"270 117 CURVE SMOOTH",
"396 117 OFFCURVE",
"453 189 OFFCURVE",
"493 309 CURVE",
"455 322 LINE",
"417 230 OFFCURVE",
"362 177 OFFCURVE",
"277 177 CURVE SMOOTH",
"207 177 OFFCURVE",
"142 222 OFFCURVE",
"142 312 CURVE SMOOTH",
"142 396 OFFCURVE",
"201 438 OFFCURVE",
"263 438 CURVE SMOOTH",
"299 438 OFFCURVE",
"321 422 OFFCURVE",
"335 404 CURVE",
"377 451 LINE",
"355 479 OFFCURVE",
"323 500 OFFCURVE",
"265 500 CURVE SMOOTH"
);
},
{
closed = 1;
nodes = (
"455 627 LINE",
"455 0 LINE",
"525 0 LINE",
"525 627 LINE"
);
},
{
closed = 1;
nodes = (
"-10 660 LINE",
"-10 604 LINE",
"662 604 LINE",
"662 660 LINE"
);
}
);
width = 652;
},
{
anchors = (
{
name = DVAnchor3;
position = "{490, 660}";
}
);
layerId = "40D202EF-20C6-4DB3-A3D1-28A333770DD8";
name = Light;
paths = (
{
closed = 1;
nodes = (
"158 500 OFFCURVE",
"72 425 OFFCURVE",
"72 310 CURVE SMOOTH",
"72 192 OFFCURVE",
"158 117 OFFCURVE",
"270 117 CURVE SMOOTH",
"396 117 OFFCURVE",
"453 189 OFFCURVE",
"493 309 CURVE",
"455 322 LINE",
"417 230 OFFCURVE",
"362 177 OFFCURVE",
"277 177 CURVE SMOOTH",
"207 177 OFFCURVE",
"142 222 OFFCURVE",
"142 312 CURVE SMOOTH",
"142 396 OFFCURVE",
"201 438 OFFCURVE",
"263 438 CURVE SMOOTH",
"299 438 OFFCURVE",
"321 422 OFFCURVE",
"335 404 CURVE",
"377 451 LINE",
"355 479 OFFCURVE",
"323 500 OFFCURVE",
"265 500 CURVE SMOOTH"
);
},
{
closed = 1;
nodes = (
"455 627 LINE",
"455 0 LINE",
"525 0 LINE",
"525 627 LINE"
);
},
{
closed = 1;
nodes = (
"-10 660 LINE",
"-10 604 LINE",
"662 604 LINE",
"662 660 LINE"
);
}
);
width = 652;
}
);
unicode = 0935;
},
{
glyphname = ssadeva;
lastChange = "2014-09-22 11:44:41 +0100";
layers = (
{
anchors = (
{
name = DVAnchor3;
position = "{502, 660}";
}
);
components = (
{
name = padeva;
transform = "{1, 0, 0, 1, 13, 0}";
}
);
layerId = "90FEB760-6DE5-46E5-A8E9-582C63BAB3AD";
name = Regular;
paths = (
{
closed = 1;
nodes = (
"186 612 LINE",
"144 562 LINE",
"468 294 LINE",
"510 344 LINE"
);
}
);
width = 663;
},
{
anchors = (
{
name = DVAnchor3;
position = "{502, 660}";
}
);
components = (
{
name = padeva;
transform = "{1, 0, 0, 1, 13, 0}";
}
);
layerId = "40D202EF-20C6-4DB3-A3D1-28A333770DD8";
name = Light;
paths = (
{
closed = 1;
nodes = (
"186 612 LINE",
"144 562 LINE",
"468 294 LINE",
"510 344 LINE"
);
}
);
width = 663;
}
);
unicode = 0937;
},
{
glyphname = ddadeva_viramadeva_ddadeva;
lastChange = "2014-09-22 11:52:00 +0100";
layers = (
{
anchors = (
{
name = DVAnchor0;
position = "{373, -113}";
}
);
layerId = "90FEB760-6DE5-46E5-A8E9-582C63BAB3AD";
name = Regular;
paths = (
{
closed = 1;
nodes = (
"-10 660 LINE",
"-10 604 LINE",
"706 604 LINE",
"706 660 LINE"
);
},
{
closed = 1;
nodes = (
"505 627 LINE",
"505 461 LINE",
"575 461 LINE",
"575 627 LINE"
);
},
{
closed = 1;
nodes = (
"226.581 191.928 LINE",
"179.713 189.428 OFFCURVE",
"140 161.795 OFFCURVE",
"140 113 CURVE SMOOTH",
"140 35.486 OFFCURVE",
"230.892 2 OFFCURVE",
"308 2 CURVE SMOOTH",
"387.152 2 OFFCURVE",
"470.152 31 OFFCURVE",
"505 31 CURVE SMOOTH",
"537.261 31 OFFCURVE",
"554.094 21.936 OFFCURVE",
"552.998 -13.156 CURVE SMOOTH",
"551.926 -54.933 OFFCURVE",
"482.337 -95 OFFCURVE",
"369 -95 CURVE SMOOTH",
"229.452 -95 OFFCURVE",
"145.474 -58.228 OFFCURVE",
"91.546 33.505 CURVE",
"48.736 -0.071 LINE",
"107.158 -86.358 OFFCURVE",
"191.327 -148 OFFCURVE",
"371 -148 CURVE SMOOTH",
"505.915 -148 OFFCURVE",
"614 -98.783 OFFCURVE",
"614 4 CURVE SMOOTH",
"614 83.022 OFFCURVE",
"566.431 94 OFFCURVE",
"524 94 CURVE SMOOTH",
"468.93 94 OFFCURVE",
"385.93 62 OFFCURVE",
"328 62 CURVE SMOOTH",
"247.566 62 OFFCURVE",
"204 89.229 OFFCURVE",
"204 121 CURVE SMOOTH",
"204 140.87 OFFCURVE",
"219.356 160.885 OFFCURVE",
"262.925 167.451 CURVE"
);
},
{
closed = 1;
nodes = (
"266 517 LINE SMOOTH",
"181.373 517 OFFCURVE",
"144 471.218 OFFCURVE",
"144 418 CURVE SMOOTH",
"144 329.434 OFFCURVE",
"230.928 296 OFFCURVE",
"308 296 CURVE SMOOTH",
"387.152 296 OFFCURVE",
"470.152 325 OFFCURVE",
"505 325 CURVE SMOOTH",
"537.261 325 OFFCURVE",
"554.094 315.936 OFFCURVE",
"552.998 280.844 CURVE SMOOTH",
"551.926 239.067 OFFCURVE",
"482.337 199 OFFCURVE",
"369 199 CURVE SMOOTH",
"229.452 199 OFFCURVE",
"145.474 235.772 OFFCURVE",
"91.546 327.505 CURVE",
"48.736 293.929 LINE",
"107.158 207.642 OFFCURVE",
"191.327 146 OFFCURVE",
"371 146 CURVE SMOOTH",
"505.915 146 OFFCURVE",
"614 195.217 OFFCURVE",
"614 298 CURVE SMOOTH",
"614 377.022 OFFCURVE",
"566.431 388 OFFCURVE",
"524 388 CURVE SMOOTH",
"468.93 388 OFFCURVE",
"385.93 356 OFFCURVE",
"328 356 CURVE SMOOTH",
"271.218 356 OFFCURVE",
"214 374.353 OFFCURVE",
"214 414 CURVE SMOOTH",
"214 445.557 OFFCURVE",
"235.383 461 OFFCURVE",
"271 461 CURVE SMOOTH",
"538 461 LINE",
"538 517 LINE"
);
}
);
width = 696;
},
{
anchors = (
{
name = DVAnchor0;
position = "{373, -113}";
}
);
layerId = "40D202EF-20C6-4DB3-A3D1-28A333770DD8";
name = Light;
paths = (
{
closed = 1;
nodes = (
"-10 660 LINE",
"-10 604 LINE",
"706 604 LINE",
"706 660 LINE"
);
},
{
closed = 1;
nodes = (
"505 627 LINE",
"505 461 LINE",
"575 461 LINE",
"575 627 LINE"
);
},
{
closed = 1;
nodes = (
"226.581 191.928 LINE",
"179.713 189.428 OFFCURVE",
"140 161.795 OFFCURVE",
"140 113 CURVE SMOOTH",
"140 35.486 OFFCURVE",
"230.892 2 OFFCURVE",
"308 2 CURVE SMOOTH",
"387.152 2 OFFCURVE",
"470.152 31 OFFCURVE",
"505 31 CURVE SMOOTH",
"537.261 31 OFFCURVE",
"554.094 21.936 OFFCURVE",
"552.998 -13.156 CURVE SMOOTH",
"551.926 -54.933 OFFCURVE",
"482.337 -95 OFFCURVE",
"369 -95 CURVE SMOOTH",
"229.452 -95 OFFCURVE",
"145.474 -58.228 OFFCURVE",
"91.546 33.505 CURVE",
"48.736 -0.071 LINE",
"107.158 -86.358 OFFCURVE",
"191.327 -148 OFFCURVE",
"371 -148 CURVE SMOOTH",
"505.915 -148 OFFCURVE",
"614 -98.783 OFFCURVE",
"614 4 CURVE SMOOTH",
"614 83.022 OFFCURVE",
"566.431 94 OFFCURVE",
"524 94 CURVE SMOOTH",
"468.93 94 OFFCURVE",
"385.93 62 OFFCURVE",
"328 62 CURVE SMOOTH",
"247.566 62 OFFCURVE",
"204 89.229 OFFCURVE",
"204 121 CURVE SMOOTH",
"204 140.87 OFFCURVE",
"219.356 160.885 OFFCURVE",
"262.925 167.451 CURVE"
);
},
{
closed = 1;
nodes = (
"266 517 LINE SMOOTH",
"181.373 517 OFFCURVE",
"144 471.218 OFFCURVE",
"144 418 CURVE SMOOTH",
"144 329.434 OFFCURVE",
"230.928 296 OFFCURVE",
"308 296 CURVE SMOOTH",
"387.152 296 OFFCURVE",
"470.152 325 OFFCURVE",
"505 325 CURVE SMOOTH",
"537.261 325 OFFCURVE",
"554.094 315.936 OFFCURVE",
"552.998 280.844 CURVE SMOOTH",
"551.926 239.067 OFFCURVE",
"482.337 199 OFFCURVE",
"369 199 CURVE SMOOTH",
"229.452 199 OFFCURVE",
"145.474 235.772 OFFCURVE",
"91.546 327.505 CURVE",
"48.736 293.929 LINE",
"107.158 207.642 OFFCURVE",
"191.327 146 OFFCURVE",
"371 146 CURVE SMOOTH",
"505.915 146 OFFCURVE",
"614 195.217 OFFCURVE",
"614 298 CURVE SMOOTH",
"614 377.022 OFFCURVE",
"566.431 388 OFFCURVE",
"524 388 CURVE SMOOTH",
"468.93 388 OFFCURVE",
"385.93 356 OFFCURVE",
"328 356 CURVE SMOOTH",
"271.218 356 OFFCURVE",
"214 374.353 OFFCURVE",
"214 414 CURVE SMOOTH",
"214 445.557 OFFCURVE",
"235.383 461 OFFCURVE",
"271 461 CURVE SMOOTH",
"538 461 LINE",
"538 517 LINE"
);
}
);
width = 696;
}
);
},
{
glyphname = radeva_viramadeva;
lastChange = "2014-09-22 11:52:00 +0100";
layers = (
{
anchors = (
{
name = _DVAnchor3;
position = "{-166, 660}";
}
);
layerId = "90FEB760-6DE5-46E5-A8E9-582C63BAB3AD";
name = Regular;
paths = (
{
closed = 1;
nodes = (
"-146 1047 OFFCURVE",
"-354 894 OFFCURVE",
"-260 749 CURVE SMOOTH",
"-194 647 LINE",
"-130 647 LINE",
"-199 759 LINE SMOOTH",
"-268 872 OFFCURVE",
"-131 947 OFFCURVE",
"-42 870 CURVE",
"-13 922 LINE"
);
}
);
width = 0;
},
{
anchors = (
{
name = _DVAnchor3;
position = "{-166, 660}";
}
);
layerId = "40D202EF-20C6-4DB3-A3D1-28A333770DD8";
name = Light;
paths = (
{
closed = 1;
nodes = (
"-146 1047 OFFCURVE",
"-354 894 OFFCURVE",
"-260 749 CURVE SMOOTH",
"-194 647 LINE",
"-130 647 LINE",
"-199 759 LINE SMOOTH",
"-268 872 OFFCURVE",
"-131 947 OFFCURVE",
"-42 870 CURVE",
"-13 922 LINE"
);
}
);
width = 0;
}
);
},
{
export = 0;
glyphname = tadeva_viramadeva_radeva;
lastChange = "2014-09-22 11:52:00 +0100";
layers = (
{
anchors = (
{
name = DVAnchor3;
position = "{465, 660}";
}
);
layerId = "90FEB760-6DE5-46E5-A8E9-582C63BAB3AD";
name = Regular;
paths = (
{
closed = 1;
nodes = (
"430 627 LINE",
"430 0 LINE",
"500 0 LINE",
"500 627 LINE"
);
},
{
closed = 1;
nodes = (
"-10 660 LINE",
"-10 604 LINE",
"639 604 LINE",
"639 660 LINE"
);
},
{
closed = 1;
nodes = (
"93 496 OFFCURVE",
"37 440 OFFCURVE",
"23 371 CURVE",
"81 337 LINE",
"96 415 OFFCURVE",
"132 436 OFFCURVE",
"181 436 CURVE SMOOTH",
"275 436 OFFCURVE",
"313 307 OFFCURVE",
"473 307 CURVE",
"473 363 LINE",
"346 363 OFFCURVE",
"330 496 OFFCURVE",
"183 496 CURVE SMOOTH"
);
},
{
closed = 1;
nodes = (
"120 118 LINE",
"154 69 LINE",
"463 257 LINE",
"431 308 LINE"
);
}
);
width = 629;
},
{
anchors = (
{
name = DVAnchor3;
position = "{465, 660}";
}
);
layerId = "40D202EF-20C6-4DB3-A3D1-28A333770DD8";
name = Light;
paths = (
{
closed = 1;
nodes = (
"430 627 LINE",
"430 0 LINE",
"500 0 LINE",
"500 627 LINE"
);
},
{
closed = 1;
nodes = (
"-10 660 LINE",
"-10 604 LINE",
"639 604 LINE",
"639 660 LINE"
);
},
{
closed = 1;
nodes = (
"93 496 OFFCURVE",
"37 440 OFFCURVE",
"23 371 CURVE",
"81 337 LINE",
"96 415 OFFCURVE",
"132 436 OFFCURVE",
"181 436 CURVE SMOOTH",
"275 436 OFFCURVE",
"313 307 OFFCURVE",
"473 307 CURVE",
"473 363 LINE",
"346 363 OFFCURVE",
"330 496 OFFCURVE",
"183 496 CURVE SMOOTH"
);
},
{
closed = 1;
nodes = (
"120 118 LINE",
"154 69 LINE",
"463 257 LINE",
"431 308 LINE"
);
}
);
width = 629;
}
);
},
{
glyphname = adeva;
lastChange = "2014-09-22 11:44:41 +0100";
layers = (
{
anchors = (
{
name = DVAnchor3;
position = "{636, 660}";
}
);
layerId = "90FEB760-6DE5-46E5-A8E9-582C63BAB3AD";
name = Regular;
paths = (
{
closed = 1;
nodes = (
"201 326 LINE",
"330 325 OFFCURVE",
"375 267 OFFCURVE",
"375 200 CURVE SMOOTH",
"375 138 OFFCURVE",
"339 93 OFFCURVE",
"256 93 CURVE SMOOTH",
"176 93 OFFCURVE",
"115 122 OFFCURVE",
"100 217 CURVE",
"41 192 LINE",
"70 74 OFFCURVE",
"167 33 OFFCURVE",
"240 33 CURVE SMOOTH",
"368 33 OFFCURVE",
"444 91 OFFCURVE",
"444 201 CURVE SMOOTH",
"444 300 OFFCURVE",
"349 364 OFFCURVE",
"201 365 CURVE"
);
},
{
closed = 1;
nodes = (
"182 660 OFFCURVE",
"110 613 OFFCURVE",
"100 549 CURVE",
"159 528 LINE",
"170 572 OFFCURVE",
"193 600 OFFCURVE",
"254 600 CURVE SMOOTH",
"325 600 OFFCURVE",
"350 560 OFFCURVE",
"350 508 CURVE SMOOTH",
"350 445 OFFCURVE",
"320 382 OFFCURVE",
"201 380 CURVE",
"201 344 LINE",
"344 345 OFFCURVE",
"420 408 OFFCURVE",
"420 506 CURVE SMOOTH",
"420 610 OFFCURVE",
"351 660 OFFCURVE",
"256 660 CURVE SMOOTH"
);
},
{
closed = 1;
nodes = (
"201 331 LINE",
"324 330 OFFCURVE",
"422 276 OFFCURVE",
"489 276 CURVE SMOOTH",
"546 276 OFFCURVE",
"592 285 OFFCURVE",
"636 304 CURVE",
"623 355 LINE",
"581 338 OFFCURVE",
"541 330 OFFCURVE",
"493 330 CURVE SMOOTH",
"433 330 OFFCURVE",
"347 364 OFFCURVE",
"201 365 CURVE"
);
},
{
closed = 1;
nodes = (
"601 627 LINE",
"601 0 LINE",
"671 0 LINE",
"671 627 LINE"
);
},
{
closed = 1;
nodes = (
"470 660 LINE",
"470 604 LINE",
"810 604 LINE",
"810 660 LINE"
);
}
);
width = 800;
},
{
anchors = (
{
name = DVAnchor3;
position = "{636, 660}";
}
);
layerId = "40D202EF-20C6-4DB3-A3D1-28A333770DD8";
name = Light;
paths = (
{
closed = 1;
nodes = (
"201 326 LINE",
"330 325 OFFCURVE",
"375 267 OFFCURVE",
"375 200 CURVE SMOOTH",
"375 138 OFFCURVE",
"339 93 OFFCURVE",
"256 93 CURVE SMOOTH",
"176 93 OFFCURVE",
"115 122 OFFCURVE",
"100 217 CURVE",
"41 192 LINE",
"70 74 OFFCURVE",
"167 33 OFFCURVE",
"240 33 CURVE SMOOTH",
"368 33 OFFCURVE",
"444 91 OFFCURVE",
"444 201 CURVE SMOOTH",
"444 300 OFFCURVE",
"349 364 OFFCURVE",
"201 365 CURVE"
);
},
{
closed = 1;
nodes = (
"182 660 OFFCURVE",
"110 613 OFFCURVE",
"100 549 CURVE",
"159 528 LINE",
"170 572 OFFCURVE",
"193 600 OFFCURVE",
"254 600 CURVE SMOOTH",
"325 600 OFFCURVE",
"350 560 OFFCURVE",
"350 508 CURVE SMOOTH",
"350 445 OFFCURVE",
"320 382 OFFCURVE",
"201 380 CURVE",
"201 344 LINE",
"344 345 OFFCURVE",
"420 408 OFFCURVE",
"420 506 CURVE SMOOTH",
"420 610 OFFCURVE",
"351 660 OFFCURVE",
"256 660 CURVE SMOOTH"
);
},
{
closed = 1;
nodes = (
"201 331 LINE",
"324 330 OFFCURVE",
"422 276 OFFCURVE",
"489 276 CURVE SMOOTH",
"546 276 OFFCURVE",
"592 285 OFFCURVE",
"636 304 CURVE",
"623 355 LINE",
"581 338 OFFCURVE",
"541 330 OFFCURVE",
"493 330 CURVE SMOOTH",
"433 330 OFFCURVE",
"347 364 OFFCURVE",
"201 365 CURVE"
);
},
{
closed = 1;
nodes = (
"601 627 LINE",
"601 0 LINE",
"671 0 LINE",
"671 627 LINE"
);
},
{
closed = 1;
nodes = (
"470 660 LINE",
"470 604 LINE",
"810 604 LINE",
"810 660 LINE"
);
}
);
width = 800;
}
);
unicode = 0905;
},
{
color = 0;
glyphname = ideva;
lastChange = "2014-09-22 11:44:41 +0100";
layers = (
{
anchors = (
{
name = DVAnchor3;
position = "{436, 660}";
}
);
layerId = "90FEB760-6DE5-46E5-A8E9-582C63BAB3AD";
name = Regular;
paths = (
{
closed = 1;
nodes = (
"-10 660 LINE",
"-10 604 LINE",
"606 604 LINE",
"606 660 LINE"
);
},
{
closed = 1;
nodes = (
"401 627 LINE",
"401 441 LINE",
"471 441 LINE",
"471 627 LINE"
);
},
{
closed = 1;
nodes = (
"212 497 LINE SMOOTH",
"128 497 OFFCURVE",
"90 444 OFFCURVE",
"90 377 CURVE SMOOTH",
"90 290 OFFCURVE",
"176 235 OFFCURVE",
"263 235 CURVE SMOOTH",
"332 235 OFFCURVE",
"376 262 OFFCURVE",
"411 262 CURVE SMOOTH",
"444 262 OFFCURVE",
"466 241 OFFCURVE",
"466 202 CURVE SMOOTH",
"466 122 OFFCURVE",
"405 73 OFFCURVE",
"288 73 CURVE SMOOTH",
"236 73 OFFCURVE",
"201 81 OFFCURVE",
"168 102 CURVE SMOOTH",
"116 134 OFFCURVE",
"93 109 OFFCURVE",
"138 69 CURVE SMOOTH",
"204 5 OFFCURVE",
"308 -145 OFFCURVE",
"424 -121 CURVE",
"451 -64 LINE",
"312 -83 OFFCURVE",
"182 123 OFFCURVE",
"153 154 CURVE SMOOTH",
"93 218 OFFCURVE",
"22 129 OFFCURVE",
"82 76 CURVE SMOOTH",
"132 31 OFFCURVE",
"171 15 OFFCURVE",
"288 15 CURVE SMOOTH",
"382 15 OFFCURVE",
"530 59 OFFCURVE",
"530 201 CURVE SMOOTH",
"530 282 OFFCURVE",
"471 328 OFFCURVE",
"430 328 CURVE SMOOTH",
"375 328 OFFCURVE",
"329 298 OFFCURVE",
"271 298 CURVE SMOOTH",
"219 298 OFFCURVE",
"156 322 OFFCURVE",
"156 380 CURVE SMOOTH",
"156 424 OFFCURVE",
"181 441 OFFCURVE",
"217 441 CURVE SMOOTH",
"434 441 LINE",
"434 497 LINE"
);
}
);
width = 596;
},
{
anchors = (
{
name = DVAnchor3;
position = "{436, 660}";
}
);
layerId = "40D202EF-20C6-4DB3-A3D1-28A333770DD8";
name = Light;
paths = (
{
closed = 1;
nodes = (
"-10 660 LINE",
"-10 604 LINE",
"606 604 LINE",
"606 660 LINE"
);
},
{
closed = 1;
nodes = (
"401 627 LINE",
"401 441 LINE",
"471 441 LINE",
"471 627 LINE"
);
},
{
closed = 1;
nodes = (
"212 497 LINE SMOOTH",
"128 497 OFFCURVE",
"90 444 OFFCURVE",
"90 377 CURVE SMOOTH",
"90 290 OFFCURVE",
"176 235 OFFCURVE",
"263 235 CURVE SMOOTH",
"332 235 OFFCURVE",
"376 262 OFFCURVE",
"411 262 CURVE SMOOTH",
"444 262 OFFCURVE",
"466 241 OFFCURVE",
"466 202 CURVE SMOOTH",
"466 122 OFFCURVE",
"405 73 OFFCURVE",
"288 73 CURVE SMOOTH",
"236 73 OFFCURVE",
"201 81 OFFCURVE",
"168 102 CURVE SMOOTH",
"116 134 OFFCURVE",
"93 109 OFFCURVE",
"138 69 CURVE SMOOTH",
"204 5 OFFCURVE",
"308 -145 OFFCURVE",
"424 -121 CURVE",
"451 -64 LINE",
"312 -83 OFFCURVE",
"182 123 OFFCURVE",
"153 154 CURVE SMOOTH",
"93 218 OFFCURVE",
"22 129 OFFCURVE",
"82 76 CURVE SMOOTH",
"132 31 OFFCURVE",
"171 15 OFFCURVE",
"288 15 CURVE SMOOTH",
"382 15 OFFCURVE",
"530 59 OFFCURVE",
"530 201 CURVE SMOOTH",
"530 282 OFFCURVE",
"471 328 OFFCURVE",
"430 328 CURVE SMOOTH",
"375 328 OFFCURVE",
"329 298 OFFCURVE",
"271 298 CURVE SMOOTH",
"219 298 OFFCURVE",
"156 322 OFFCURVE",
"156 380 CURVE SMOOTH",
"156 424 OFFCURVE",
"181 441 OFFCURVE",
"217 441 CURVE SMOOTH",
"434 441 LINE",
"434 497 LINE"
);
}
);
width = 596;
}
);
unicode = 0907;
userData = {
com.typemytype.robofont.layerData = {
};
};
},
{
glyphname = udeva;
lastChange = "2014-09-22 11:44:41 +0100";
layers = (
{
anchors = (
{
name = DVAnchor3;
position = "{315, 660}";
}
);
layerId = "90FEB760-6DE5-46E5-A8E9-582C63BAB3AD";
name = Regular;
paths = (
{
closed = 1;
nodes = (
"-10 660 LINE",
"-10 604 LINE",
"560 604 LINE",
"560 660 LINE"
);
},
{
closed = 1;
nodes = (
"236 326 LINE",
"343 326 OFFCURVE",
"410 271 OFFCURVE",
"410 199 CURVE SMOOTH",
"410 139 OFFCURVE",
"378 93 OFFCURVE",
"282 93 CURVE SMOOTH",
"192 93 OFFCURVE",
"132 136 OFFCURVE",
"100 229 CURVE",
"44 198 LINE",
"95 77 OFFCURVE",
"188 33 OFFCURVE",
"275 33 CURVE SMOOTH",
"409 33 OFFCURVE",
"473 106 OFFCURVE",
"473 195 CURVE SMOOTH",
"473 306 OFFCURVE",
"396 367 OFFCURVE",
"236 368 CURVE"
);
},
{
closed = 1;
nodes = (
"259 604 LINE",
"336 604 OFFCURVE",
"385 558 OFFCURVE",
"385 493 CURVE SMOOTH",
"385 436 OFFCURVE",
"355 382 OFFCURVE",
"236 380 CURVE",
"236 341 LINE",
"376 342 OFFCURVE",
"452 402 OFFCURVE",
"452 485 CURVE SMOOTH",
"452 590 OFFCURVE",
"371 636 OFFCURVE",
"261 636 CURVE"
);
}
);
width = 550;
},
{
anchors = (
{
name = DVAnchor3;
position = "{315, 660}";
}
);
layerId = "40D202EF-20C6-4DB3-A3D1-28A333770DD8";
name = Light;
paths = (
{
closed = 1;
nodes = (
"-10 660 LINE",
"-10 604 LINE",
"560 604 LINE",
"560 660 LINE"
);
},
{
closed = 1;
nodes = (
"236 326 LINE",
"343 326 OFFCURVE",
"410 271 OFFCURVE",
"410 199 CURVE SMOOTH",
"410 139 OFFCURVE",
"378 93 OFFCURVE",
"282 93 CURVE SMOOTH",
"192 93 OFFCURVE",
"132 136 OFFCURVE",
"100 229 CURVE",
"44 198 LINE",
"95 77 OFFCURVE",
"188 33 OFFCURVE",
"275 33 CURVE SMOOTH",
"409 33 OFFCURVE",
"473 106 OFFCURVE",
"473 195 CURVE SMOOTH",
"473 306 OFFCURVE",
"396 367 OFFCURVE",
"236 368 CURVE"
);
},
{
closed = 1;
nodes = (
"259 604 LINE",
"336 604 OFFCURVE",
"385 558 OFFCURVE",
"385 493 CURVE SMOOTH",
"385 436 OFFCURVE",
"355 382 OFFCURVE",
"236 380 CURVE",
"236 341 LINE",
"376 342 OFFCURVE",
"452 402 OFFCURVE",
"452 485 CURVE SMOOTH",
"452 590 OFFCURVE",
"371 636 OFFCURVE",
"261 636 CURVE"
);
}
);
width = 550;
}
);
unicode = 0909;
},
{
glyphname = edeva;
lastChange = "2014-09-22 11:44:41 +0100";
layers = (
{
anchors = (
{
name = DVAnchor3;
position = "{321, 660}";
}
);
guideLines = (
{
angle = 90;
position = "{529, 209}";
}
);
layerId = "90FEB760-6DE5-46E5-A8E9-582C63BAB3AD";
name = Regular;
paths = (
{
closed = 1;
nodes = (
"109 632 LINE",
"109 264 LINE SMOOTH",
"109 210 OFFCURVE",
"127 164 OFFCURVE",
"207 120 CURVE SMOOTH",
"390 22 OFFCURVE",
"436 -5 OFFCURVE",
"436 -45 CURVE SMOOTH",
"436 -74 OFFCURVE",
"415 -96 OFFCURVE",
"395 -114 CURVE",
"446 -143 LINE",
"482 -117 OFFCURVE",
"504 -83 OFFCURVE",
"504 -40 CURVE SMOOTH",
"504 10 OFFCURVE",
"478 59 OFFCURVE",
"276 153 CURVE SMOOTH",
"187 196 OFFCURVE",
"180 234 OFFCURVE",
"180 289 CURVE",
"179 632 LINE"
);
},
{
closed = 1;
nodes = (
"-10 660 LINE",
"-10 604 LINE",
"596 604 LINE",
"596 660 LINE"
);
},
{
closed = 1;
nodes = (
"348 234 LINE",
"431 264 OFFCURVE",
"508 301 OFFCURVE",
"508 429 CURVE SMOOTH",
"508 521 OFFCURVE",
"457 594 OFFCURVE",
"390 623 CURVE",
"308 613 LINE",
"393 580 OFFCURVE",
"442 508 OFFCURVE",
"442 425 CURVE SMOOTH",
"442 337 OFFCURVE",
"387 311 OFFCURVE",
"309 289 CURVE"
);
}
);
width = 586;
},
{
anchors = (
{
name = DVAnchor3;
position = "{321, 660}";
}
);
guideLines = (
{
angle = 90;
position = "{529, 209}";
}
);
layerId = "40D202EF-20C6-4DB3-A3D1-28A333770DD8";
name = Light;
paths = (
{
closed = 1;
nodes = (
"109 632 LINE",
"109 264 LINE SMOOTH",
"109 210 OFFCURVE",
"127 164 OFFCURVE",
"207 120 CURVE SMOOTH",
"390 22 OFFCURVE",
"436 -5 OFFCURVE",
"436 -45 CURVE SMOOTH",
"436 -74 OFFCURVE",
"415 -96 OFFCURVE",
"395 -114 CURVE",
"446 -143 LINE",
"482 -117 OFFCURVE",
"504 -83 OFFCURVE",
"504 -40 CURVE SMOOTH",
"504 10 OFFCURVE",
"478 59 OFFCURVE",
"276 153 CURVE SMOOTH",
"187 196 OFFCURVE",
"180 234 OFFCURVE",
"180 289 CURVE",
"179 632 LINE"
);
},
{
closed = 1;
nodes = (
"-10 660 LINE",
"-10 604 LINE",
"596 604 LINE",
"596 660 LINE"
);
},
{
closed = 1;
nodes = (
"348 234 LINE",
"431 264 OFFCURVE",
"508 301 OFFCURVE",
"508 429 CURVE SMOOTH",
"508 521 OFFCURVE",
"457 594 OFFCURVE",
"390 623 CURVE",
"308 613 LINE",
"393 580 OFFCURVE",
"442 508 OFFCURVE",
"442 425 CURVE SMOOTH",
"442 337 OFFCURVE",
"387 311 OFFCURVE",
"309 289 CURVE"
);
}
);
width = 586;
}
);
unicode = 090F;
},
{
glyphname = aasigndeva;
lastChange = "2014-09-22 11:44:41 +0100";
layers = (
{
anchors = (
{
name = DVAnchor3;
position = "{164, 660}";
}
);
layerId = "90FEB760-6DE5-46E5-A8E9-582C63BAB3AD";
name = Regular;
paths = (
{
closed = 1;
nodes = (
"129 627 LINE",
"129 0 LINE",
"199 0 LINE",
"199 627 LINE"
);
},
{
closed = 1;
nodes = (
"-10 660 LINE",
"-10 604 LINE",
"338 604 LINE",
"338 660 LINE"
);
}
);
width = 328;
},
{
anchors = (
{
name = DVAnchor3;
position = "{164, 660}";
}
);
layerId = "40D202EF-20C6-4DB3-A3D1-28A333770DD8";
name = Light;
paths = (
{
closed = 1;
nodes = (
"129 627 LINE",
"129 0 LINE",
"199 0 LINE",
"199 627 LINE"
);
},
{
closed = 1;
nodes = (
"-10 660 LINE",
"-10 604 LINE",
"338 604 LINE",
"338 660 LINE"
);
}
);
width = 328;
}
);
unicode = 093E;
},
